<svg width="32" height="32" viewBox="0 0 32 32" fill="none" xmlns="http://www.w3.org/2000/svg">
<circle cx="16" cy="16" r="15.5" fill="white" stroke="#F73163"/>
<path d="M12.4142 22.4142C12.7893 22.0391 13 21.5304 13 21C13 20.4696 12.7893 19.9609 12.4142 19.5858C12.0391 19.2107 11.5304 19 11 19C10.4696 19 9.96086 19.2107 9.58579 19.5858C9.21071 19.9609 9 20.4696 9 21C9 21.5304 9.21071 22.0391 9.58579 22.4142C9.96086 22.7893 10.4696 23 11 23C11.5304 23 12.0391 22.7893 12.4142 22.4142ZM22.4142 22.4142C22.7893 22.0391 23 21.5304 23 21C23 20.4696 22.7893 19.9609 22.4142 19.5858C22.0391 19.2107 21.5304 19 21 19C20.4696 19 19.9609 19.2107 19.5858 19.5858C19.2107 19.9609 19 20.4696 19 21C19 21.5304 19.2107 22.0391 19.5858 22.4142C19.9609 22.7893 20.4696 23 21 23C21.5304 23 22.0391 22.7893 22.4142 22.4142Z" stroke="#F73163"/>
<path d="M17 20V10C17 9.73478 16.8946 9.48043 16.7071 9.29289C16.5196 9.10536 16.2652 9 16 9H8C7.73478 9 7.48043 9.10536 7.29289 9.29289C7.10536 9.48043 7 9.73478 7 10V20C7 20.2652 7.10536 20.5196 7.29289 20.7071C7.48043 20.8946 7.73478 21 8 21H9M17 20C17 20.2652 16.8946 20.5196 16.7071 20.7071C16.5196 20.8946 16.2652 21 16 21H13M17 20V12C17 11.7348 17.1054 11.4804 17.2929 11.2929C17.4804 11.1054 17.7348 11 18 11H20.586C20.8512 11.0001 21.1055 11.1055 21.293 11.293L24.707 14.707C24.8946 14.8945 24.9999 15.1488 25 15.414V20C25 20.2652 24.8946 20.5196 24.7071 20.7071C24.5196 20.8946 24.2652 21 24 21H23M17 20C17 20.2652 17.1054 20.5196 17.2929 20.7071C17.4804 20.8946 17.7348 21 18 21H19M9 21C9 21.5304 9.21071 22.0391 9.58579 22.4142C9.96086 22.7893 10.4696 23 11 23C11.5304 23 12.0391 22.7893 12.4142 22.4142C12.7893 22.0391 13 21.5304 13 21M9 21C9 20.4696 9.21071 19.9609 9.58579 19.5858C9.96086 19.2107 10.4696 19 11 19C11.5304 19 12.0391 19.2107 12.4142 19.5858C12.7893 19.9609 13 20.4696 13 21M23 21C23 21.5304 22.7893 22.0391 22.4142 22.4142C22.0391 22.7893 21.5304 23 21 23C20.4696 23 19.9609 22.7893 19.5858 22.4142C19.2107 22.0391 19 21.5304 19 21M23 21C23 20.4696 22.7893 19.9609 22.4142 19.5858C22.0391 19.2107 21.5304 19 21 19C20.4696 19 19.9609 19.2107 19.5858 19.5858C19.2107 19.9609 19 20.4696 19 21" stroke="#F73163" stroke-width="2" stroke-linecap="round" stroke-linejoin="round"/>
</svg>
