<svg width="128" height="128" viewBox="0 0 128 128" fill="none" xmlns="http://www.w3.org/2000/svg">
<circle cx="64" cy="64" r="64" fill="#E9F7EF"/>
<path d="M105.6 64C105.6 75.033 101.217 85.6141 93.4156 93.4156C85.6141 101.217 75.033 105.6 64 105.6C52.967 105.6 42.3859 101.217 34.5844 93.4156C26.7828 85.6141 22.4 75.033 22.4 64C22.4 52.967 26.7828 42.3859 34.5844 34.5844C42.3859 26.7828 52.967 22.4 64 22.4C67.952 22.4 71.8 22.972 75.44 24.012L83.604 15.848C77.572 13.352 70.968 12 64 12C57.1713 12 50.4094 13.345 44.1005 15.9583C37.7915 18.5715 32.0591 22.4018 27.2304 27.2304C17.4786 36.9823 12 50.2087 12 64C12 77.7913 17.4786 91.0177 27.2304 100.77C32.0591 105.598 37.7915 109.428 44.1005 112.042C50.4094 114.655 57.1713 116 64 116C77.7913 116 91.0177 110.521 100.77 100.77C110.521 91.0177 116 77.7913 116 64H105.6ZM42.732 54.016L35.4 61.4L58.8 84.8L110.8 32.8L103.468 25.416L58.8 70.084L42.732 54.016Z" fill="#24B561"/>
</svg>
