<svg width="25" height="24" viewBox="0 0 25 24" fill="none" xmlns="http://www.w3.org/2000/svg">
<path fill-rule="evenodd" clip-rule="evenodd" d="M4.33339 19C4.33339 20.6569 5.67654 22 7.33339 22H17.3334C18.9902 22 20.3334 20.6569 20.3334 19V13H21.3334C22.2243 13 22.6705 11.9229 22.0405 11.2929L13.0405 2.29289C12.65 1.90237 12.0168 1.90237 11.6263 2.29289L2.62628 11.2929C1.99632 11.9229 2.44249 13 3.33339 13H4.33339V19ZM11.3333 14C10.2288 14 9.33334 14.8954 9.33334 16V20H15.3333V16C15.3333 14.8954 14.4379 14 13.3333 14H11.3333Z" fill="currentColor"/>
</svg>
