<svg width="32" height="32" viewBox="0 0 32 32" fill="none" xmlns="http://www.w3.org/2000/svg">
<path fill-rule="evenodd" clip-rule="evenodd" d="M10.06 8.85985C11.6353 7.28446 13.772 6.39941 16 6.39941C18.2279 6.39941 20.3646 7.28446 21.94 8.85985C23.5153 10.4352 24.4004 12.5719 24.4004 14.7998C24.4004 17.0278 23.5153 19.1645 21.94 20.7399L16 26.6799L10.06 20.7399C9.27987 19.9599 8.66105 19.0338 8.23886 18.0145C7.81666 16.9954 7.59937 15.903 7.59937 14.7998C7.59937 13.6967 7.81666 12.6043 8.23886 11.5851C8.66105 10.5659 9.27987 9.63987 10.06 8.85985ZM16 17.1999C16.6364 17.1999 17.2469 16.947 17.697 16.4969C18.1471 16.0468 18.4 15.4364 18.4 14.7998C18.4 14.1633 18.1471 13.5529 17.697 13.1028C17.2469 12.6527 16.6364 12.3998 16 12.3998C15.3634 12.3998 14.753 12.6527 14.3029 13.1028C13.8528 13.5529 13.6 14.1633 13.6 14.7998C13.6 15.4364 13.8528 16.0468 14.3029 16.4969C14.753 16.947 15.3634 17.1999 16 17.1999Z" fill="#F73163"/>
<rect x="0.5" y="0.5" width="31" height="31" rx="15.5" stroke="#F73163"/>
</svg>
