<svg width="18" height="21" viewBox="0 0 18 21" fill="none" xmlns="http://www.w3.org/2000/svg">
<path fill-rule="evenodd" clip-rule="evenodd" d="M3.06003 2.85985C4.63541 1.28446 6.77209 0.399414 9.00003 0.399414C11.2279 0.399414 13.3647 1.28446 14.94 2.85985C16.5154 4.43523 17.4005 6.57191 17.4005 8.79985C17.4005 11.0278 16.5154 13.1645 14.94 14.7399L9.00003 20.6799L3.06003 14.7399C2.27993 13.9599 1.66111 13.0338 1.23892 12.0145C0.816722 10.9954 0.599426 9.90302 0.599426 8.79985C0.599426 7.69667 0.816722 6.6043 1.23892 5.58511C1.66111 4.56592 2.27993 3.63987 3.06003 2.85985ZM9.00003 11.1999C9.63651 11.1999 10.2469 10.947 10.6971 10.4969C11.1472 10.0468 11.4 9.43636 11.4 8.79985C11.4 8.16333 11.1472 7.55288 10.6971 7.10279C10.2469 6.6527 9.63651 6.39985 9.00003 6.39985C8.36351 6.39985 7.75306 6.6527 7.30297 7.10279C6.85289 7.55288 6.60003 8.16333 6.60003 8.79985C6.60003 9.43636 6.85289 10.0468 7.30297 10.4969C7.75306 10.947 8.36351 11.1999 9.00003 11.1999Z" fill="#F73163"/>
</svg>
