<svg width="220" height="220" viewBox="0 0 220 220" fill="none" xmlns="http://www.w3.org/2000/svg">
<path d="M220 168.256H0V168.366H220V168.256Z" fill="#EBEBEB"/>
<path d="M41.8 172.132H23.6676V172.242H41.8V172.132Z" fill="#EBEBEB"/>
<path d="M78.76 171.252H60.5748V171.362H78.76V171.252Z" fill="#EBEBEB"/>
<path d="M102.423 171.252H98.0232V171.362H102.423V171.252Z" fill="#EBEBEB"/>
<path d="M58.4452 175.01H38.0952V175.12H58.4452V175.01Z" fill="#EBEBEB"/>
<path d="M128.832 172.075H119.328V172.185H128.832V172.075Z" fill="#EBEBEB"/>
<path d="M145.037 172.075H132.748V172.185H145.037V172.075Z" fill="#EBEBEB"/>
<path d="M204.305 173.936H176.832V174.046H204.305V173.936Z" fill="#EBEBEB"/>
<path d="M104.28 148.632H19.3204C18.6549 148.631 18.017 148.366 17.5467 147.895C17.0765 147.424 16.8124 146.785 16.8124 146.12V26.6904C16.8182 26.0287 17.0849 25.3959 17.5545 24.9296C18.0241 24.4633 18.6587 24.2011 19.3204 24.2H104.28C104.946 24.2 105.585 24.4647 106.057 24.9359C106.528 25.407 106.792 26.0461 106.792 26.7124V146.12C106.792 146.786 106.528 147.425 106.057 147.896C105.585 148.367 104.946 148.632 104.28 148.632ZM19.3204 24.288C18.684 24.2892 18.0741 24.5428 17.6245 24.9932C17.1749 25.4436 16.9224 26.054 16.9224 26.6904V146.12C16.9224 146.756 17.1749 147.366 17.6245 147.817C18.0741 148.267 18.684 148.521 19.3204 148.522H104.28C104.917 148.521 105.527 148.267 105.978 147.817C106.428 147.367 106.681 146.756 106.682 146.12V26.6904C106.681 26.0536 106.428 25.4432 105.978 24.9929C105.527 24.5427 104.917 24.2892 104.28 24.288H19.3204Z" fill="#EBEBEB"/>
<path d="M199.456 148.632H114.492C113.826 148.631 113.188 148.366 112.717 147.895C112.246 147.424 111.981 146.786 111.98 146.12V26.6904C111.987 26.0283 112.255 25.3955 112.725 24.9294C113.195 24.4632 113.83 24.2011 114.492 24.2H199.456C200.117 24.2023 200.751 24.465 201.22 24.9312C201.688 25.3973 201.954 26.0294 201.96 26.6904V146.12C201.96 146.784 201.697 147.422 201.227 147.893C200.758 148.364 200.121 148.63 199.456 148.632ZM114.492 24.288C113.856 24.2892 113.245 24.5427 112.795 24.9929C112.345 25.4432 112.091 26.0536 112.09 26.6904V146.12C112.091 146.756 112.345 147.367 112.795 147.817C113.245 148.267 113.856 148.521 114.492 148.522H199.456C200.093 148.521 200.704 148.267 201.154 147.817C201.604 147.367 201.858 146.756 201.859 146.12V26.6904C201.858 26.0536 201.604 25.4432 201.154 24.9929C200.704 24.5427 200.093 24.2892 199.456 24.288H114.492Z" fill="#EBEBEB"/>
<path d="M66.5324 77.9152L154.414 77.9152V38.9092L66.5324 38.9092V77.9152Z" fill="#E0E0E0"/>
<path d="M65.5821 77.9152L153.463 77.9152V38.9092L65.5821 38.9092V77.9152Z" fill="#F5F5F5"/>
<path d="M138.508 69.08C138.703 69.0801 138.896 69.0388 139.074 68.9589C139.252 68.879 139.411 68.7622 139.541 68.6163C139.671 68.4704 139.768 68.2986 139.827 68.1123C139.885 67.926 139.903 67.7295 139.88 67.5356L137.632 48.95C137.591 48.6148 137.429 48.3061 137.176 48.0824C136.923 47.8586 136.597 47.7353 136.259 47.7356C136.064 47.736 135.871 47.7779 135.693 47.8583C135.515 47.9388 135.356 48.0561 135.227 48.2024C135.098 48.3488 135.001 48.5209 134.943 48.7074C134.885 48.8939 134.867 49.0905 134.891 49.2844L137.139 67.8656C137.179 68.2004 137.34 68.509 137.593 68.7329C137.845 68.9567 138.17 69.0802 138.508 69.08Z" fill="#EBEBEB"/>
<path d="M82.786 69.08C82.9813 69.0801 83.1743 69.0388 83.3524 68.9589C83.5306 68.879 83.6897 68.7622 83.8195 68.6163C83.9492 68.4704 84.0465 68.2986 84.105 68.1123C84.1635 67.926 84.1818 67.7295 84.1588 67.5356L81.9104 48.95C81.8695 48.6148 81.7073 48.3061 81.4544 48.0824C81.2014 47.8586 80.8753 47.7353 80.5376 47.7356C80.3423 47.736 80.1493 47.7779 79.9714 47.8583C79.7935 47.9388 79.6346 48.0561 79.5053 48.2024C79.376 48.3488 79.2792 48.5209 79.2212 48.7074C79.1633 48.8939 79.1456 49.0905 79.1692 49.2844L81.4 67.8656C81.4402 68.2035 81.6041 68.5145 81.86 68.7388C82.1159 68.963 82.4458 69.0846 82.786 69.08Z" fill="#EBEBEB"/>
<path d="M127.569 122.773H125.8L122.597 168.256H124.366L127.569 122.773Z" fill="#EBEBEB"/>
<path d="M141.75 122.773H139.977L136.774 168.256H138.547L141.75 122.773Z" fill="#EBEBEB"/>
<path d="M140.51 122.773H126.65V124.432H140.51V122.773Z" fill="#EBEBEB"/>
<path d="M167.825 122.773H169.598L172.801 168.256H171.028L167.825 122.773Z" fill="#EBEBEB"/>
<path d="M153.648 122.773H155.417L158.62 168.256H156.851L153.648 122.773Z" fill="#EBEBEB"/>
<path d="M168.736 122.773H154.876V124.432H168.736V122.773Z" fill="#EBEBEB"/>
<path d="M171.173 117.696H124.221C123.608 117.696 123.112 118.192 123.112 118.804V121.66C123.112 122.272 123.608 122.769 124.221 122.769H171.173C171.786 122.769 172.282 122.272 172.282 121.66V118.804C172.282 118.192 171.786 117.696 171.173 117.696Z" fill="#E0E0E0"/>
<path d="M31.9704 168.256H42.6668L42.6668 110H31.9704L31.9704 168.256Z" fill="#E6E6E6"/>
<path d="M33.9988 168.256H31.9704V162.479H36.1284L33.9988 168.256Z" fill="#F0F0F0"/>
<path d="M85.7208 168.256H96.4172L96.4172 110H85.7208V168.256Z" fill="#E6E6E6"/>
<path d="M31.9704 164.71H87.4984V110H31.9704L31.9704 164.71Z" fill="#F0F0F0"/>
<path d="M33.5456 128.788H59.0656V157.485H33.5456V128.788Z" fill="#E6E6E6"/>
<path d="M60.4164 128.788H85.9364V157.485H60.4164V128.788Z" fill="#E6E6E6"/>
<path d="M66.1188 132.88C66.1197 133.238 66.0143 133.588 65.8159 133.886C65.6175 134.184 65.3351 134.417 65.0045 134.554C64.6739 134.692 64.3099 134.728 63.9587 134.658C63.6075 134.589 63.2849 134.416 63.0317 134.163C62.7785 133.91 62.6062 133.587 62.5365 133.236C62.4669 132.885 62.5031 132.521 62.6405 132.19C62.7779 131.86 63.0104 131.577 63.3085 131.379C63.6065 131.181 63.9568 131.075 64.3148 131.076C64.5517 131.076 64.7863 131.123 65.0052 131.213C65.224 131.304 65.4229 131.437 65.5904 131.604C65.7579 131.772 65.8908 131.971 65.9815 132.19C66.0721 132.409 66.1188 132.643 66.1188 132.88Z" fill="#FAFAFA"/>
<path d="M56.958 132.88C56.9589 133.238 56.8535 133.588 56.6554 133.886C56.4572 134.184 56.175 134.416 55.8447 134.554C55.5143 134.691 55.1506 134.728 54.7995 134.659C54.4484 134.589 54.1258 134.417 53.8724 134.165C53.6191 133.912 53.4464 133.59 53.3763 133.239C53.3061 132.888 53.3417 132.524 53.4784 132.193C53.6152 131.863 53.8469 131.58 54.1444 131.381C54.4419 131.182 54.7917 131.076 55.1496 131.076C55.3869 131.075 55.6219 131.122 55.8413 131.212C56.0607 131.302 56.2601 131.435 56.428 131.603C56.596 131.77 56.7293 131.969 56.8202 132.189C56.9112 132.408 56.958 132.643 56.958 132.88Z" fill="#FAFAFA"/>
<path d="M33.5456 112.345H59.0656V127.389H33.5456V112.345Z" fill="#E6E6E6"/>
<path d="M33.5456 112.345H42.746V127.389H33.5456V112.345Z" fill="#E0E0E0"/>
<path d="M60.4164 112.345H85.9364V127.389H60.4164V112.345Z" fill="#E6E6E6"/>
<path d="M60.4164 112.345H69.6168V127.389H60.4164V112.345Z" fill="#E0E0E0"/>
<path d="M82.1744 118.642C82.2005 119.807 81.9936 120.965 81.5659 122.049C81.1382 123.133 80.4982 124.12 79.6836 124.953C78.8689 125.786 77.8961 126.448 76.8221 126.9C75.7481 127.352 74.5946 127.585 73.4294 127.585C72.2642 127.585 71.1107 127.352 70.0367 126.9C68.9627 126.448 67.9899 125.786 67.1752 124.953C66.3606 124.12 65.7206 123.133 65.2929 122.049C64.8651 120.965 64.6583 119.807 64.6844 118.642H82.1744Z" fill="#F5F5F5"/>
<path d="M85.4657 168.256H87.4985V162.479H83.3361L85.4657 168.256Z" fill="#F0F0F0"/>
<path d="M36.0096 99.9636C36.0096 104.196 39.6044 107.914 45.0164 110H65.2564C70.6684 107.914 74.2632 104.196 74.2632 99.9636C74.2329 98.1188 73.5853 96.3373 72.424 94.9036H37.84C36.6818 96.3385 36.0374 98.1199 36.0096 99.9636Z" fill="#F0F0F0"/>
<path d="M39.3316 99.1188C38.2976 100.923 39.0412 103.29 39.0412 103.29C39.0412 103.29 41.4568 102.731 42.4908 100.923C43.5248 99.1144 42.7812 96.7516 42.7812 96.7516C42.7812 96.7516 40.3656 97.3104 39.3316 99.1188Z" fill="#FAFAFA"/>
<path d="M42.3984 104.663C42.6492 106.726 44.66 108.183 44.66 108.183C44.66 108.183 46.2616 106.291 46.0108 104.223C45.76 102.155 43.7492 100.703 43.7492 100.703C43.7492 100.703 42.1476 102.599 42.3984 104.663Z" fill="#FAFAFA"/>
<path d="M34.6412 103.743C34.2408 105.785 35.6972 107.791 35.6972 107.791C35.6972 107.791 37.8092 106.471 38.2096 104.447C38.61 102.423 37.158 100.399 37.158 100.399C37.158 100.399 35.046 101.702 34.6412 103.743Z" fill="#FAFAFA"/>
<path d="M35.7896 95.3964C36.0492 97.46 38.0644 98.9164 38.0644 98.9164C38.0644 98.9164 39.6572 97.0156 39.3844 94.9564C39.1116 92.8972 37.1096 91.4364 37.1096 91.4364C37.1096 91.4364 35.53 93.3328 35.7896 95.3964Z" fill="#FAFAFA"/>
<path d="M39.3184 108.02C40.1984 109.894 42.5832 110.634 42.5832 110.634C42.5832 110.634 43.4984 108.328 42.5832 106.449C41.668 104.57 39.336 103.84 39.336 103.84C39.336 103.84 38.4208 106.141 39.3184 108.02Z" fill="#FAFAFA"/>
<path d="M54.2872 92.202C52.58 91.0184 50.1556 91.5552 50.1556 91.5552C50.1556 91.5552 50.5076 94.0104 52.2192 95.194C53.9308 96.3776 56.3508 95.8408 56.3508 95.8408C56.3508 95.8408 55.9988 93.3812 54.2872 92.202Z" fill="#FAFAFA"/>
<path d="M46.1208 93.5968C46.64 95.612 48.84 96.8 48.84 96.8C48.84 96.8 50.16 94.7144 49.6672 92.6992C49.1744 90.684 46.97 89.5004 46.97 89.5004C46.97 89.5004 45.6016 91.5816 46.1208 93.5968Z" fill="#FAFAFA"/>
<path d="M41.6724 90.6136C40.48 92.3164 41.0036 94.7408 41.0036 94.7408C41.0036 94.7408 43.4588 94.402 44.6512 92.6992C45.8436 90.9964 45.32 88.5676 45.32 88.5676C45.32 88.5676 42.8648 88.9064 41.6724 90.6136Z" fill="#FAFAFA"/>
<path d="M39.16 88.44C37.2416 89.2496 36.3968 91.5816 36.3968 91.5816C36.3968 91.5816 38.6584 92.6024 40.5724 91.7928C42.4864 90.9832 43.34 88.6556 43.34 88.6556C43.34 88.6556 41.0828 87.6436 39.16 88.44Z" fill="#FAFAFA"/>
<path d="M42.4028 95.48C42.4644 97.5612 44.3344 99.1892 44.3344 99.1892C44.3344 99.1892 46.0944 97.4512 46.0372 95.37C45.98 93.2888 44.1056 91.6608 44.1056 91.6608C44.1056 91.6608 42.3368 93.3988 42.4028 95.48Z" fill="#FAFAFA"/>
<path d="M61.7452 98.934C62.656 100.804 65.032 101.526 65.032 101.526C65.032 101.526 65.912 99.2112 65.032 97.3412C64.152 95.4712 61.7496 94.754 61.7496 94.754C61.7496 94.754 60.8344 97.064 61.7452 98.934Z" fill="#FAFAFA"/>
<path d="M62.0796 107.382C63.5316 108.869 66.0132 108.808 66.0132 108.808C66.0132 108.808 66.1364 106.33 64.6932 104.848C63.25 103.365 60.7596 103.422 60.7596 103.422C60.7596 103.422 60.6276 105.89 62.0796 107.382Z" fill="#FAFAFA"/>
<path d="M42.1828 114.809C41.3028 115.711 39.8068 115.689 39.8068 115.689C39.8068 115.689 39.732 114.193 40.6076 113.296C41.4832 112.398 42.9836 112.416 42.9836 112.416C42.9836 112.416 43.0584 113.912 42.1828 114.809Z" fill="#FAFAFA"/>
<path d="M48.6508 100.474C49.5308 101.354 49.5308 102.85 49.5308 102.85C49.5308 102.85 48.0348 102.925 47.1372 102.049C46.2396 101.174 46.2572 99.6732 46.2572 99.6732C46.2572 99.6732 47.7488 99.5984 48.6508 100.474Z" fill="#FAFAFA"/>
<path d="M36.52 112.112C35.9304 114.11 37.1976 116.244 37.1976 116.244C37.1976 116.244 39.3976 115.139 40.0092 113.164C40.6208 111.188 39.3316 109.032 39.3316 109.032C39.3316 109.032 37.1272 110.119 36.52 112.112Z" fill="#FAFAFA"/>
<path d="M43.2388 113.802C43.318 115.878 45.2012 117.498 45.2012 117.498C45.2012 117.498 46.9612 115.738 46.8776 113.665C46.794 111.593 44.9152 109.969 44.9152 109.969C44.9152 109.969 43.164 111.72 43.2388 113.802Z" fill="#FAFAFA"/>
<path d="M33 108.297C31.9616 110.097 32.692 112.468 32.692 112.468C32.692 112.468 35.112 111.918 36.1504 110.114C37.1888 108.31 36.4584 105.943 36.4584 105.943C36.4584 105.943 34.0384 106.48 33 108.297Z" fill="#FAFAFA"/>
<path d="M51.1016 88.836C51.797 88.6502 52.5362 88.722 53.1828 89.0384C53.0714 89.3821 52.8839 89.6962 52.6342 89.9574C52.3846 90.2186 52.0793 90.4201 51.741 90.547C51.4027 90.6738 51.0402 90.7228 50.6803 90.6901C50.3205 90.6575 49.9727 90.5441 49.6628 90.3584C49.9426 89.6937 50.4537 89.1529 51.1016 88.836Z" fill="#FAFAFA"/>
<path d="M56.87 90.4552C56.5511 91.1001 56.0084 91.6069 55.3432 91.8808C55.159 91.5681 55.0479 91.2178 55.0182 90.8561C54.9885 90.4944 55.041 90.1306 55.1718 89.7921C55.3026 89.4535 55.5082 89.1489 55.7733 88.9011C56.0385 88.6532 56.3562 88.4685 56.7028 88.3608C57.013 89.015 57.0725 89.7602 56.87 90.4552Z" fill="#FAFAFA"/>
<path d="M63.0168 92.7476C62.6979 93.3925 62.1552 93.8992 61.49 94.1732C61.3049 93.8607 61.1931 93.5103 61.163 93.1483C61.1329 92.7863 61.1852 92.4223 61.3161 92.0834C61.447 91.7446 61.6529 91.4399 61.9186 91.1922C62.1842 90.9444 62.5025 90.7602 62.8496 90.6532C63.1603 91.3072 63.2198 92.0526 63.0168 92.7476Z" fill="#FAFAFA"/>
<path d="M51.6252 98.5908C51.1104 99.9108 49.5484 100.509 49.5484 100.509C49.5484 100.509 48.84 99 49.3328 97.68C49.8256 96.36 51.414 95.7572 51.414 95.7572C51.414 95.7572 52.14 97.2796 51.6252 98.5908Z" fill="#FAFAFA"/>
<path d="M56.232 96.8924C57.4728 97.548 57.9084 99.1716 57.9084 99.1716C57.9084 99.1716 56.3244 99.726 55.0792 99.066C53.834 98.406 53.4028 96.7868 53.4028 96.7868C53.4028 96.7868 55 96.2324 56.232 96.8924Z" fill="#FAFAFA"/>
<path d="M43.9164 85.4216C45.1616 86.0816 45.5928 87.7008 45.5928 87.7008C45.5928 87.7008 44.0088 88.2552 42.768 87.5996C41.5272 86.944 41.0916 85.3204 41.0916 85.3204C41.0916 85.3204 42.68 84.766 43.9164 85.4216Z" fill="#FAFAFA"/>
<path d="M59.8664 93.236C60.698 94.3756 60.3768 96.0212 60.3768 96.0212C60.3768 96.0212 58.7136 95.8276 57.882 94.7012C57.0504 93.5748 57.3716 91.916 57.3716 91.916C57.3716 91.916 59.0392 92.1008 59.8664 93.236Z" fill="#FAFAFA"/>
<path d="M53.5348 101.301C52.6284 102.379 50.9564 102.458 50.9564 102.458C50.9564 102.458 50.7496 100.791 51.656 99.7172C52.5624 98.6436 54.2344 98.56 54.2344 98.56C54.2344 98.56 54.4412 100.223 53.5348 101.301Z" fill="#FAFAFA"/>
<path d="M60.6452 100.615C60.2492 101.966 58.7488 102.714 58.7488 102.714C58.7488 102.714 57.8688 101.275 58.2824 99.924C58.696 98.5732 60.1788 97.8252 60.1788 97.8252C60.1788 97.8252 61.0412 99.264 60.6452 100.615Z" fill="#FAFAFA"/>
<path d="M52.6108 111.826C52.0872 113.146 50.5208 113.731 50.5208 113.731C50.5208 113.731 49.8036 112.213 50.3316 110.911C50.8596 109.608 52.4216 109.006 52.4216 109.006C52.4216 109.006 53.1388 110.524 52.6108 111.826Z" fill="#FAFAFA"/>
<path d="M49.8432 111.025C49.5748 112.407 48.1492 113.287 48.1492 113.287C48.1492 113.287 47.1592 111.932 47.432 110.554C47.7048 109.177 49.126 108.288 49.126 108.288C49.126 108.288 50.116 109.644 49.8432 111.025Z" fill="#FAFAFA"/>
<path d="M49.0072 106.511C48.092 107.58 46.4156 107.646 46.4156 107.646C46.4156 107.646 46.222 105.978 47.1372 104.909C48.0524 103.84 49.7288 103.774 49.7288 103.774C49.7288 103.774 49.9224 105.437 49.0072 106.511Z" fill="#FAFAFA"/>
<path d="M57.948 112.2C56.7424 112.93 55.132 112.468 55.132 112.468C55.132 112.468 55.4708 110.823 56.6764 110.097C57.882 109.371 59.4924 109.828 59.4924 109.828C59.4924 109.828 59.1492 111.492 57.948 112.2Z" fill="#FAFAFA"/>
<path d="M49.5572 116.2C48.6772 116.992 47.2604 116.864 47.2604 116.864C47.2604 116.864 47.2868 115.443 48.1712 114.664C49.0556 113.885 50.468 114.004 50.468 114.004C50.468 114.004 50.4416 115.408 49.5572 116.2Z" fill="#FAFAFA"/>
<path d="M42.7152 118.712C41.8352 119.504 40.4184 119.372 40.4184 119.372C40.4184 119.372 40.4448 117.955 41.3292 117.172C42.2136 116.389 43.626 116.508 43.626 116.508C43.626 116.508 43.604 117.92 42.7152 118.712Z" fill="#FAFAFA"/>
<path d="M51.3569 114.488C51.2947 115.202 51.495 115.913 51.9201 116.49C52.2375 116.319 52.5122 116.078 52.7233 115.786C52.9345 115.493 53.0768 115.157 53.1394 114.802C53.2021 114.447 53.1835 114.082 53.0851 113.735C52.9867 113.388 52.811 113.068 52.5713 112.798C51.9748 113.196 51.5432 113.796 51.3569 114.488Z" fill="#FAFAFA"/>
<path d="M43.4588 119.838C43.3967 120.552 43.597 121.264 44.022 121.84C44.3392 121.669 44.6136 121.428 44.8247 121.136C45.0358 120.844 45.1782 120.508 45.2413 120.153C45.3043 119.798 45.2863 119.433 45.1887 119.086C45.0912 118.739 44.9164 118.419 44.6776 118.149C44.0796 118.545 43.6463 119.146 43.4588 119.838Z" fill="#FAFAFA"/>
<path d="M49.038 117.577C48.6201 117.992 48.3682 118.546 48.3296 119.134C48.6188 119.194 48.9178 119.188 49.2043 119.116C49.4907 119.044 49.7573 118.909 49.9843 118.72C50.2113 118.531 50.3928 118.293 50.5154 118.024C50.6379 117.756 50.6985 117.463 50.6924 117.168C50.1095 117.099 49.5214 117.244 49.038 117.577Z" fill="#FAFAFA"/>
<path d="M58.2296 107.386C58.5656 107.87 59.0662 108.214 59.6376 108.354C59.7469 108.08 59.7928 107.784 59.7721 107.489C59.7513 107.194 59.6643 106.908 59.5176 106.651C59.3709 106.395 59.1682 106.174 58.9247 106.007C58.6811 105.839 58.4029 105.729 58.1108 105.684C57.9418 106.247 57.9841 106.852 58.2296 107.386Z" fill="#FAFAFA"/>
<path d="M45.9844 119.856C46.3213 120.338 46.8215 120.682 47.3924 120.824C47.5025 120.549 47.5491 120.253 47.5288 119.957C47.5084 119.662 47.4216 119.375 47.2748 119.118C47.128 118.861 46.9251 118.64 46.6811 118.472C46.4371 118.304 46.1583 118.194 45.8656 118.149C45.6964 118.713 45.7386 119.32 45.9844 119.856Z" fill="#FAFAFA"/>
<path d="M45.8172 87.4016C46.1533 87.8847 46.6538 88.2289 47.2252 88.3696C47.3345 88.0949 47.3805 87.7992 47.3597 87.5043C47.3389 87.2094 47.252 86.923 47.1053 86.6664C46.9586 86.4097 46.7559 86.1895 46.5123 86.022C46.2688 85.8544 45.9906 85.744 45.6984 85.6988C45.5295 86.2619 45.5717 86.8674 45.8172 87.4016Z" fill="#FAFAFA"/>
<path d="M45.7292 96.9056C44.6776 97.504 44.3476 98.912 44.3476 98.912C44.3476 98.912 45.7248 99.352 46.7764 98.7448C47.828 98.1376 48.158 96.7384 48.158 96.7384C48.158 96.7384 46.7808 96.3028 45.7292 96.9056Z" fill="#FAFAFA"/>
<path d="M55.484 103.523C55.5324 104.931 54.34 106.11 54.34 106.11C54.34 106.11 53.0728 105.01 53.02 103.607C52.9672 102.203 54.164 101.02 54.164 101.02C54.164 101.02 55.44 102.12 55.484 103.523Z" fill="#FAFAFA"/>
<path d="M52.8 105.631C51.9948 106.784 50.336 107.017 50.336 107.017C50.336 107.017 49.9752 105.38 50.776 104.223C51.5768 103.066 53.24 102.837 53.24 102.837C53.24 102.837 53.614 104.474 52.8 105.631Z" fill="#FAFAFA"/>
<path d="M56.8348 108.266C56.43 109.617 54.9252 110.352 54.9252 110.352C54.9252 110.352 54.0716 108.909 54.4852 107.562C54.8988 106.216 56.3948 105.472 56.3948 105.472C56.3948 105.472 57.2396 106.92 56.8348 108.266Z" fill="#FAFAFA"/>
<path d="M57.8996 102.52C58.2736 103.875 57.3936 105.301 57.3936 105.301C57.3936 105.301 55.9064 104.531 55.528 103.176C55.1496 101.82 56.0384 100.39 56.0384 100.39C56.0384 100.39 57.5256 101.169 57.8996 102.52Z" fill="#FAFAFA"/>
<path d="M53.24 108.68C52.1092 109.52 50.4636 109.212 50.4636 109.212C50.4636 109.212 50.644 107.545 51.7836 106.704C52.9232 105.864 54.56 106.176 54.56 106.176C54.56 106.176 54.3884 107.835 53.24 108.68Z" fill="#FAFAFA"/>
<path d="M198.779 168.256H184.461V167.671C184.461 167.174 184.659 166.697 185.01 166.345C185.362 165.994 185.838 165.796 186.336 165.796H196.896C197.393 165.796 197.869 165.994 198.221 166.345C198.573 166.697 198.77 167.174 198.77 167.671V168.256H198.779Z" fill="#E6E6E6"/>
<path d="M190.573 167.028H192.663V39.952C192.663 39.6743 192.552 39.4079 192.356 39.2115C192.16 39.0151 191.893 38.9048 191.616 38.9048C191.339 38.9059 191.073 39.0168 190.878 39.2131C190.683 39.4093 190.573 39.675 190.573 39.952V167.028Z" fill="#E6E6E6"/>
<path d="M191.616 41.7648C193.195 41.7648 194.476 40.4843 194.476 38.9048C194.476 37.3253 193.195 36.0448 191.616 36.0448C190.036 36.0448 188.756 37.3253 188.756 38.9048C188.756 40.4843 190.036 41.7648 191.616 41.7648Z" fill="#E6E6E6"/>
<path d="M190.986 71.7684C191.238 71.7517 191.474 71.6398 191.646 71.4556C191.819 71.2714 191.915 71.0285 191.915 70.7762C191.915 70.5239 191.819 70.2811 191.646 70.0969C191.474 69.9126 191.238 69.8008 190.986 69.784C190.044 69.784 189.141 69.4101 188.474 68.7443C187.807 68.0785 187.432 67.1754 187.431 66.2332C187.431 65.9707 187.327 65.7189 187.141 65.5332C186.956 65.3475 186.704 65.2432 186.441 65.2432C186.179 65.2432 185.927 65.3475 185.741 65.5332C185.555 65.7189 185.451 65.9707 185.451 66.2332C185.452 67.7009 186.036 69.1081 187.074 70.1459C188.111 71.1837 189.519 71.7673 190.986 71.7684Z" fill="#E6E6E6"/>
<path d="M192.61 88.1936C192.474 88.2026 192.338 88.1837 192.21 88.1379C192.081 88.0922 191.964 88.0206 191.865 87.9275C191.765 87.8345 191.686 87.7221 191.632 87.5972C191.577 87.4723 191.549 87.3375 191.549 87.2014C191.549 87.0652 191.577 86.9305 191.632 86.8056C191.686 86.6807 191.765 86.5683 191.865 86.4752C191.964 86.3822 192.081 86.3106 192.21 86.2649C192.338 86.2191 192.474 86.2001 192.61 86.2092C193.551 86.208 194.454 85.8336 195.12 85.1679C195.785 84.5023 196.16 83.5998 196.161 82.6584C196.178 82.4067 196.289 82.1707 196.474 81.9984C196.658 81.826 196.901 81.7301 197.153 81.7301C197.405 81.7301 197.648 81.826 197.832 81.9984C198.017 82.1707 198.128 82.4067 198.145 82.6584C198.143 84.1257 197.559 85.5323 196.521 86.5698C195.484 87.6073 194.077 88.1913 192.61 88.1936Z" fill="#E6E6E6"/>
<path d="M194.574 44.4234C198.614 40.1475 199.704 34.615 197.007 32.0664C194.31 29.5178 188.848 30.9181 184.807 35.194C180.766 39.47 179.677 45.0024 182.374 47.551C185.071 50.0997 190.533 48.6994 194.574 44.4234Z" fill="#E6E6E6"/>
<path d="M191.894 41.5673C194.868 38.4199 195.093 33.8024 192.396 31.2538C189.699 28.7051 185.102 29.1905 182.128 32.3379C179.153 35.4852 178.929 40.1028 181.626 42.6514C184.322 45.2 188.92 44.7146 191.894 41.5673Z" fill="#F0F0F0"/>
<path d="M189.336 39.16C186.362 42.306 182.336 43.3356 180.343 41.4524C178.35 39.5692 179.146 35.4904 182.103 32.3444C185.06 29.1984 189.103 28.1732 191.096 30.052C193.09 31.9308 192.311 35.9964 189.336 39.16Z" fill="#E6E6E6"/>
<path d="M110 188.126C157.116 188.126 195.312 185.896 195.312 183.146C195.312 180.395 157.116 178.165 110 178.165C62.8837 178.165 24.6884 180.395 24.6884 183.146C24.6884 185.896 62.8837 188.126 110 188.126Z" fill="#F5F5F5"/>
<path d="M87.4764 50.5164C87.5248 50.7848 87.7052 50.9564 87.8812 50.9564C88.0572 50.9564 88.1628 50.6748 88.1144 50.4064C88.066 50.138 87.8856 49.9664 87.7096 49.9664C87.5336 49.9664 87.4324 50.248 87.4764 50.5164Z" fill="#263238"/>
<path d="M87.6788 50.9739C88.1419 51.7276 88.7092 52.412 89.364 53.0067C89.2032 53.1742 89.0086 53.3055 88.7931 53.392C88.5777 53.4785 88.3463 53.5181 88.1144 53.5083L87.6788 50.9739Z" fill="#ED893E"/>
<path d="M86.24 49.2272C86.2624 49.2273 86.2845 49.2226 86.305 49.2135C86.3255 49.2044 86.3438 49.1911 86.3588 49.1744C86.4942 49.0216 86.6633 48.9024 86.8526 48.8261C87.042 48.7497 87.2464 48.7183 87.45 48.7344C87.4924 48.7409 87.5357 48.7308 87.571 48.7062C87.6062 48.6817 87.6306 48.6445 87.6392 48.6024C87.6436 48.5818 87.6438 48.5605 87.6397 48.5399C87.6356 48.5193 87.6273 48.4997 87.6154 48.4824C87.6034 48.465 87.588 48.4504 87.5702 48.4392C87.5523 48.4281 87.5324 48.4207 87.5116 48.4176C87.2557 48.3922 86.9974 48.4272 86.7575 48.5196C86.5176 48.6121 86.3026 48.7595 86.13 48.95C86.1152 48.9647 86.1035 48.9822 86.0955 49.0014C86.0875 49.0207 86.0834 49.0413 86.0834 49.0622C86.0834 49.083 86.0875 49.1037 86.0955 49.1229C86.1035 49.1422 86.1152 49.1597 86.13 49.1744C86.1436 49.1904 86.1604 49.2034 86.1793 49.2125C86.1983 49.2216 86.2189 49.2266 86.24 49.2272Z" fill="#263238"/>
<path d="M79.7324 54.2828C80.146 56.76 80.4936 61.3008 78.7072 62.9552C78.7072 62.9552 79.31 65.472 83.9168 65.472C88.9812 65.472 86.4116 62.9552 86.4116 62.9552C83.666 62.2952 83.8024 60.2448 84.3392 58.3176L79.7324 54.2828Z" fill="#FFB573"/>
<path d="M78.562 63.7692C78.2936 62.8892 78.0076 61.8992 78.738 61.6176C79.5476 61.3096 83.8728 61.1204 85.338 61.8112C86.8032 62.502 86.24 64.24 86.24 64.24L78.562 63.7692Z" fill="#F73163"/>
<path opacity="0.2" d="M78.562 63.7692C78.2936 62.8892 78.0076 61.8992 78.738 61.6176C79.5476 61.3096 83.8728 61.1204 85.338 61.8112C86.8032 62.502 86.24 64.24 86.24 64.24L78.562 63.7692Z" fill="black"/>
<path d="M84.194 179.52C84.634 179.52 85.0476 179.463 85.1972 179.265C85.2322 179.214 85.2509 179.153 85.2509 179.091C85.2509 179.029 85.2322 178.968 85.1972 178.917C85.1711 178.87 85.1353 178.828 85.0921 178.796C85.0488 178.763 84.9992 178.74 84.9464 178.728C84.3876 178.574 83.1864 179.247 83.1336 179.278C83.1186 179.286 83.1065 179.298 83.0986 179.313C83.0908 179.328 83.0876 179.345 83.0896 179.362C83.0924 179.377 83.0998 179.392 83.1107 179.404C83.1216 179.415 83.1356 179.424 83.1512 179.428C83.4956 179.487 83.8444 179.518 84.194 179.52ZM84.7484 178.864C84.8009 178.857 84.8542 178.857 84.9068 178.864C84.9385 178.871 84.9683 178.885 84.9941 178.905C85.02 178.925 85.0412 178.95 85.0564 178.979C85.1136 179.076 85.0916 179.128 85.0564 179.155C84.8892 179.375 84.0356 179.379 83.4064 179.291C83.8232 179.069 84.2787 178.929 84.7484 178.878V178.864Z" fill="#F73163"/>
<path d="M83.16 179.441H83.1908C83.6044 179.26 84.4404 178.526 84.3876 178.143C84.3876 178.055 84.3172 177.94 84.0972 177.918C83.9382 177.904 83.78 177.953 83.6572 178.055C83.2172 178.411 83.094 179.322 83.0896 179.375C83.0875 179.389 83.0893 179.403 83.0947 179.416C83.1001 179.43 83.109 179.441 83.1204 179.45C83.1341 179.45 83.1476 179.447 83.16 179.441ZM84.04 178.068H84.0884C84.2336 178.068 84.238 178.143 84.2424 178.16C84.2732 178.389 83.7056 178.966 83.2788 179.216C83.3293 178.828 83.4965 178.465 83.7584 178.174C83.8369 178.106 83.9366 178.069 84.04 178.068Z" fill="#F73163"/>
<path d="M79.4508 179.362H82.8388L83.4108 171.516H80.0228L79.4508 179.362Z" fill="#FFB573"/>
<path d="M51.5592 170.513L54.6788 171.741L59.3076 165.044L56.188 163.816L51.5592 170.513Z" fill="#FFB573"/>
<path d="M55.7568 173.162C56.0868 173.43 56.452 173.646 56.6852 173.58C56.7462 173.563 56.8003 173.526 56.8397 173.477C56.8792 173.427 56.9021 173.366 56.9052 173.303C56.9151 173.25 56.914 173.196 56.9019 173.144C56.8897 173.091 56.8669 173.042 56.8348 172.999C56.5004 172.528 55.154 172.322 55.0968 172.313C55.0804 172.309 55.0633 172.311 55.0481 172.318C55.0329 172.325 55.0206 172.337 55.0132 172.352C55.0045 172.365 54.9998 172.381 54.9998 172.396C54.9998 172.412 55.0045 172.427 55.0132 172.44C55.2391 172.703 55.488 172.944 55.7568 173.162ZM56.5928 172.982C56.6326 173.015 56.6694 173.052 56.7028 173.092C56.7232 173.117 56.7377 173.147 56.7453 173.179C56.7529 173.211 56.7534 173.244 56.7468 173.276C56.7468 173.391 56.6808 173.417 56.6456 173.426C56.3816 173.496 55.7216 172.986 55.2948 172.511C55.754 172.581 56.195 172.741 56.5928 172.982Z" fill="#F73163"/>
<path d="M55.0309 172.454H55.0617C55.5017 172.564 56.5885 172.498 56.7909 172.163C56.8393 172.084 56.8613 171.956 56.7073 171.802C56.6499 171.745 56.5811 171.7 56.5053 171.67C56.4296 171.641 56.3485 171.627 56.2673 171.631C55.7085 171.631 55.0441 172.295 55.0177 172.322C55.0106 172.333 55.0069 172.346 55.0069 172.359C55.0069 172.372 55.0106 172.385 55.0177 172.396C55.0157 172.416 55.0204 172.436 55.0309 172.454ZM56.5576 171.899L56.5928 171.93C56.6941 172.031 56.6632 172.08 56.6544 172.097C56.5312 172.3 55.7349 172.405 55.2553 172.339C55.5335 172.062 55.8896 171.876 56.2761 171.807C56.3783 171.8 56.4793 171.833 56.5576 171.899Z" fill="#F73163"/>
<path d="M55 171.626L52.162 169.167C52.11 169.124 52.0446 169.1 51.9772 169.1C51.9097 169.1 51.8444 169.124 51.7924 169.167L49.28 170.997C49.2189 171.041 49.1684 171.097 49.1323 171.163C49.0963 171.229 49.0756 171.302 49.0717 171.377C49.0679 171.452 49.0811 171.527 49.1103 171.596C49.1395 171.665 49.184 171.726 49.2404 171.776C50.248 172.616 50.7804 172.977 52.03 174.06C52.7956 174.724 54.3048 176.176 55.3652 177.096C56.4256 178.015 57.5124 177.074 57.1648 176.598C55.6028 174.478 55.4048 173.246 55.286 172.137C55.2589 171.936 55.1566 171.754 55 171.626Z" fill="#263238"/>
<path d="M82.8256 178.97H79.1252C79.0576 178.97 78.9919 178.992 78.9385 179.034C78.8851 179.075 78.8471 179.133 78.8304 179.199L78.0692 182.213C78.0502 182.284 78.048 182.359 78.0628 182.432C78.0777 182.505 78.1091 182.573 78.1547 182.631C78.2003 182.69 78.2589 182.737 78.3257 182.769C78.3926 182.801 78.4659 182.817 78.54 182.816C79.86 182.789 81.8048 182.714 83.4856 182.714C85.4436 182.714 85.6592 182.82 87.9604 182.82C89.3508 182.82 89.7776 181.412 89.2012 181.284C86.5612 180.708 85.8836 180.646 83.6352 179.234C83.3958 179.071 83.1151 178.979 82.8256 178.97Z" fill="#263238"/>
<path d="M93.4208 67.2848L94.0808 68.8908C94.3096 69.4364 94.5472 69.9776 94.7936 70.5188C95.282 71.5968 95.7924 72.6616 96.3292 73.7044C97.3261 75.7297 98.5562 77.6317 99.9944 79.3716L100.126 79.5168L100.192 79.5916C100.192 79.618 100.192 79.5916 100.162 79.5652L100.1 79.5168C99.8635 79.3393 99.5809 79.2339 99.286 79.2132C99.0881 79.1947 98.8887 79.2249 98.7052 79.3012C98.626 79.3364 98.6172 79.3628 98.648 79.3452C98.7844 79.2737 98.9091 79.1817 99.0176 79.0724C99.1716 78.9272 99.3432 78.7468 99.5104 78.5532C100.237 77.6782 100.906 76.7566 101.512 75.7944C102.806 73.7968 104.051 71.6628 105.266 69.5552L107.615 70.532C106.893 72.9783 105.991 75.368 104.918 77.682C104.355 78.9065 103.694 80.0836 102.942 81.202C102.736 81.4968 102.502 81.796 102.243 82.104C101.94 82.4599 101.599 82.7816 101.226 83.0632C100.954 83.2616 100.658 83.427 100.346 83.556C99.8744 83.7501 99.3637 83.8314 98.8548 83.7936C98.2499 83.7409 97.6735 83.5131 97.196 83.138L97.0508 83.0148L96.932 82.9136L96.8352 82.8212L96.6416 82.6364C95.6524 81.6718 94.7553 80.6171 93.962 79.486C93.1915 78.412 92.482 77.2956 91.8368 76.142C91.1944 75.0024 90.6092 73.8452 90.0768 72.6704C89.8128 72.0808 89.5532 71.4912 89.3024 70.9104C89.0516 70.3296 88.8272 69.7312 88.5896 69.0624L93.4208 67.2848Z" fill="#FFB573"/>
<path d="M78.9624 64.8428L85.6416 67.1748C87.8724 67.9492 90.1032 68.706 92.3208 69.3748C92.8708 69.542 93.4252 69.7092 93.9708 69.8544L94.3844 69.9688L94.4636 69.9908H94.4944C94.6011 70.0153 94.711 70.0227 94.82 70.0128C95.2276 69.9717 95.6275 69.874 96.008 69.7224C96.4858 69.5421 96.9529 69.335 97.4072 69.102C99.4009 68.015 101.313 66.7842 103.127 65.4192L104.94 67.2056C103.398 69.2266 101.581 71.0216 99.5412 72.5384C98.9819 72.9445 98.3937 73.3092 97.7812 73.6296C97.0881 74.0022 96.3482 74.2804 95.5812 74.4568C95.1018 74.5614 94.6107 74.6028 94.1204 74.58L93.7068 74.5404L93.4912 74.5052L93.3548 74.4788L92.8928 74.382C92.2724 74.2632 91.674 74.1268 91.0668 73.9904C88.6688 73.414 86.3368 72.7408 84.0268 72.0192C81.7168 71.2976 79.4464 70.5012 77.1672 69.63L78.9624 64.8428Z" fill="#FFB573"/>
<path d="M102.617 65.78L103.937 63.6152L106.726 66.2552C106.726 66.2552 105.547 67.7952 103.906 67.804L102.617 65.78Z" fill="#FFB573"/>
<path d="M105.983 60.7156L107.95 63.5228L106.735 66.2772L103.946 63.6152L105.983 60.7156Z" fill="#FFB573"/>
<path d="M74.272 68.552C75.2576 71.632 84.7748 73.7792 84.7748 73.7792L88.9196 66.7392C88.9196 66.7392 84.458 65.4192 80.5376 64.0464C76.4368 62.6384 73.2644 65.406 74.272 68.552Z" fill="#F73163"/>
<path d="M91.5948 63.8968C91.5948 63.8968 95.0796 67.9712 90.9084 93.1788H72.7892C72.754 90.7368 74.4128 79.9788 73.2688 68.4992C73.2054 67.8348 73.2749 67.1645 73.4732 66.5272C73.6715 65.89 73.9947 65.2986 74.4239 64.7875C74.8531 64.2764 75.3797 63.8558 75.9731 63.5503C76.5664 63.2448 77.2147 63.0604 77.88 63.008C78.1528 63.008 78.43 62.9684 78.7028 62.9552C81.2688 62.8077 83.8412 62.8077 86.4072 62.9552C88.1584 63.1327 89.8929 63.4476 91.5948 63.8968Z" fill="#F73163"/>
<path d="M87.8416 62.92C87.1376 63.536 82.0292 68.112 79.354 73.304C78.21 70.9676 76.3312 66.4532 77.066 63.3204C77.075 63.2773 77.0721 63.2325 77.0575 63.1909C77.0429 63.1493 77.0173 63.1125 76.9833 63.0844C76.9494 63.0564 76.9084 63.0381 76.8648 63.0316C76.8212 63.0251 76.7767 63.0306 76.736 63.0476L75.6316 63.5184C75.6025 63.5306 75.5762 63.5486 75.5543 63.5713C75.5324 63.594 75.5153 63.6209 75.504 63.6504C75.2972 64.1872 74.4964 67.122 78.0076 74.2456L78.6456 77.0088C78.6456 77.0088 78.5092 86.4512 77.6292 93.1876H79.3012C79.3012 93.1876 80.4232 82.5572 80.1812 77.0088L80.7928 74.8396C80.7928 74.8396 83.7232 67.7292 89.518 63.4964C89.561 63.4703 89.5946 63.4311 89.614 63.3847C89.6333 63.3382 89.6374 63.2868 89.6257 63.2379C89.614 63.1889 89.587 63.145 89.5486 63.1124C89.5103 63.0798 89.4626 63.0602 89.4124 63.0564L88.0528 62.8584C88.0153 62.8512 87.9765 62.8531 87.9398 62.8638C87.9031 62.8745 87.8695 62.8938 87.8416 62.92Z" fill="#263238"/>
<path d="M86.9968 67.3199C85.7692 70.3559 90.7368 78.4431 90.7368 78.4431L98.6128 73.7879C98.6128 73.7879 95.4932 70.1975 93.7728 66.4179C91.4496 61.2127 88 64.8735 86.9968 67.3199Z" fill="#F73163"/>
<path d="M106.792 71.6364L110.084 70.268L108.469 67.628C108.469 67.628 106.159 67.87 105.266 69.388C105.141 69.6034 105.1 69.8574 105.151 70.1012C105.202 70.345 105.342 70.5611 105.543 70.708L106.792 71.6364Z" fill="#FFB573"/>
<path d="M112.781 68.288L110 66.4092L108.469 67.6236L110.084 70.268L112.781 68.288Z" fill="#FFB573"/>
<path d="M114.022 67.276L103.55 68.6972L102.916 65.956L113.388 64.5348L114.022 67.276Z" fill="#F73163"/>
<path opacity="0.3" d="M108.016 65.7756C107.997 65.7757 107.979 65.769 107.966 65.7569C107.952 65.7447 107.943 65.7279 107.941 65.7096C107.94 65.6997 107.94 65.6898 107.943 65.6802C107.946 65.6707 107.95 65.6617 107.956 65.654C107.962 65.6462 107.97 65.6397 107.979 65.6349C107.987 65.6301 107.997 65.6271 108.007 65.626L113.15 64.8912C113.17 64.8912 113.189 64.8991 113.203 64.9131C113.217 64.9271 113.225 64.9461 113.225 64.966C113.225 64.9858 113.217 65.0048 113.203 65.0189C113.189 65.0329 113.17 65.0408 113.15 65.0408L108.007 65.7756H108.016Z" fill="black"/>
<path opacity="0.3" d="M108.513 66.0748C108.494 66.0749 108.477 66.0682 108.463 66.0561C108.449 66.0439 108.44 66.027 108.438 66.0088C108.437 65.9989 108.438 65.989 108.44 65.9794C108.443 65.9699 108.447 65.9609 108.454 65.9532C108.46 65.9454 108.467 65.9389 108.476 65.9341C108.485 65.9293 108.494 65.9263 108.504 65.9252L112.935 65.3576C112.945 65.3557 112.955 65.3559 112.965 65.3583C112.976 65.3607 112.985 65.3651 112.993 65.3713C113.002 65.3775 113.008 65.3853 113.014 65.3943C113.019 65.4033 113.022 65.4133 113.023 65.4236C113.024 65.4432 113.018 65.4627 113.006 65.4781C112.994 65.4936 112.976 65.5039 112.957 65.5072L108.522 66.0748H108.513Z" fill="black"/>
<path opacity="0.3" d="M108.403 66.4884C108.385 66.4876 108.367 66.4807 108.354 66.4686C108.34 66.4566 108.331 66.4403 108.328 66.4224C108.326 66.4122 108.326 66.4018 108.329 66.3917C108.331 66.3817 108.336 66.3722 108.342 66.3639C108.348 66.3557 108.356 66.3488 108.365 66.3437C108.374 66.3386 108.384 66.3354 108.394 66.3344L113.375 65.6656C113.393 65.6665 113.411 65.6737 113.424 65.6861C113.438 65.6985 113.447 65.7153 113.449 65.7335C113.452 65.7517 113.448 65.7703 113.439 65.786C113.429 65.8017 113.414 65.8136 113.397 65.8196L108.416 66.4884H108.403Z" fill="black"/>
<path opacity="0.3" d="M108.134 66.9152C108.117 66.911 108.102 66.9012 108.091 66.8872C108.08 66.8732 108.074 66.856 108.074 66.8382C108.074 66.8204 108.08 66.8032 108.091 66.7892C108.102 66.7752 108.117 66.7654 108.134 66.7612L113.436 66C113.457 65.9975 113.477 66.0029 113.494 66.0152C113.51 66.0275 113.521 66.0457 113.524 66.066C113.526 66.0856 113.52 66.1051 113.508 66.1206C113.495 66.136 113.478 66.1464 113.458 66.1496L108.148 66.9108L108.134 66.9152Z" fill="black"/>
<path opacity="0.3" d="M108.522 67.32C108.503 67.3201 108.485 67.3135 108.472 67.3013C108.458 67.2891 108.449 67.2723 108.447 67.254C108.444 67.2336 108.45 67.2131 108.462 67.1967C108.474 67.1802 108.493 67.1692 108.513 67.166L113.52 66.44C113.54 66.4373 113.56 66.4422 113.576 66.4536C113.592 66.465 113.604 66.4821 113.608 66.5016C113.611 66.5219 113.605 66.5425 113.593 66.5589C113.58 66.5753 113.562 66.5863 113.542 66.5896L108.535 67.32H108.522Z" fill="black"/>
<path opacity="0.3" d="M108.808 67.6896C108.789 67.6888 108.772 67.6818 108.759 67.6698C108.745 67.6578 108.736 67.6415 108.733 67.6236C108.731 67.6134 108.731 67.603 108.734 67.5929C108.736 67.5828 108.74 67.5734 108.747 67.5651C108.753 67.5568 108.761 67.5499 108.77 67.5449C108.779 67.5398 108.789 67.5366 108.799 67.5356L113.494 66.8008C113.514 66.7993 113.534 66.8051 113.55 66.8173C113.566 66.8294 113.577 66.847 113.582 66.8668C113.583 66.8769 113.583 66.8874 113.581 66.8974C113.579 66.9075 113.574 66.917 113.568 66.9252C113.562 66.9335 113.554 66.9404 113.545 66.9455C113.536 66.9506 113.526 66.9537 113.516 66.9548L108.821 67.6896H108.808Z" fill="black"/>
<path opacity="0.3" d="M107.901 68.1076L103.55 68.6972L102.916 65.956L107.268 65.362L107.901 68.1076Z" fill="black"/>
<path opacity="0.2" d="M83.4108 171.516L83.116 175.56H79.7236L80.0228 171.516H83.4108Z" fill="black"/>
<path opacity="0.2" d="M56.188 163.816L59.3076 165.044L56.738 168.758L53.7988 167.27L56.188 163.816Z" fill="black"/>
<path d="M78.3904 51.7616C79.1648 55.0088 79.4508 56.9579 81.4132 58.3043C84.3656 60.3371 88.1892 58.0052 88.4136 54.5644C88.6116 51.4844 87.3136 46.6751 83.8508 46.0195C83.0773 45.878 82.2807 45.9314 81.5329 46.1749C80.7852 46.4184 80.1099 46.8443 79.568 47.4141C79.0261 47.984 78.6347 48.6798 78.4291 49.4388C78.2235 50.1978 78.2102 50.9961 78.3904 51.7616Z" fill="#FFB573"/>
<path d="M80.0272 56.892C76.9824 54.8548 77.0264 51.2776 76.8592 49.5352C76.692 47.7928 82.0116 45.5048 85.1312 46.7852C88.2508 48.0656 82.1568 58.3176 80.0272 56.892Z" fill="#FFB573"/>
<path opacity="0.6" d="M80.0272 56.892C76.9824 54.8548 77.0264 51.2776 76.8592 49.5352C76.692 47.7928 82.0116 45.5048 85.1312 46.7852C88.2508 48.0656 82.1568 58.3176 80.0272 56.892Z" fill="#263238"/>
<path d="M83.05 51.6164C83.2616 52.4133 83.7379 53.1147 84.4008 53.6052C85.2808 54.2432 85.9452 53.6052 85.8968 52.5976C85.8484 51.7176 85.338 50.2964 84.3656 50.0456C83.3932 49.7948 82.808 50.6484 83.05 51.6164Z" fill="#FFB573"/>
<path d="M85.8792 48.2548C87.3004 46.9612 88.5192 45.1264 87.0628 43.7052C87.0276 44.66 85.6856 44.66 85.6856 44.66C85.6856 44.66 86.2796 41.7912 82.544 42.2752C79.2264 42.7152 78.474 44.6952 76.384 45.1748C77.261 45.2825 78.1509 45.1549 78.9624 44.8052C78.9624 44.8052 75.3896 46.5036 75.2884 48.1448C75.1872 49.786 77.0484 51.5768 77.0484 51.5768C77.0484 51.5768 83.952 50.0148 85.8792 48.2548Z" fill="#263238"/>
<path d="M84.48 93.1788C84.48 93.1788 79.8512 119.073 77.44 128.77C74.8 139.396 58.7664 168.599 58.7664 168.599L53.24 165.937C53.24 165.937 65.604 140.25 67.2408 129.734C69.0008 118.32 72.776 93.1788 72.776 93.1788H84.48Z" fill="#263238"/>
<path opacity="0.2" d="M81.7696 102.406C77.2992 103.286 77.2684 119.856 77.5456 128.366C79.0108 122.338 81.2372 110.739 82.7684 102.507C82.4567 102.36 82.1044 102.325 81.7696 102.406Z" fill="black"/>
<path d="M90.9084 93.1788C90.9084 93.1788 90.6092 118.51 89.9272 128.845C89.2188 139.59 84.4008 174.777 84.4008 174.777H78.6808C78.6808 174.777 79.5168 140.219 79.5608 129.664C79.6312 118.158 78.9976 93.1788 78.9976 93.1788H90.9084Z" fill="#263238"/>
<path d="M60.72 166.962L59.0612 168.837L52.8484 165.84L53.6272 163.495L60.72 166.962Z" fill="#F73163"/>
<path d="M85.5756 172.48C85.602 172.48 85.1796 174.86 85.1796 174.86H78.1968L78.0736 172.735L85.5756 172.48Z" fill="#F73163"/>
<path d="M150.92 67.0736C148.218 65.9604 145.521 67.7732 142.82 66.3696C142.949 65.1962 143.076 64.0156 143.202 62.8276C145.904 63.9408 148.601 62.1236 151.298 63.5272C151.184 64.7034 151.058 65.8856 150.92 67.0736Z" fill="#F73163"/>
<path opacity="0.2" d="M150.075 63.3908C148.183 62.9992 146.296 63.7208 144.404 63.448C144.105 63.404 143.81 63.3333 143.524 63.2368L143.431 64.1168C143.387 64.5568 143.343 64.9572 143.295 65.3752C143.264 65.6656 143.233 65.9516 143.207 66.2552C143.49 66.3768 143.785 66.4697 144.087 66.5324C145.979 66.924 147.871 66.2024 149.758 66.4752C150.058 66.5186 150.352 66.5893 150.638 66.6864L150.731 65.8064C150.779 65.3664 150.823 64.966 150.867 64.548L150.96 63.668C150.675 63.5463 150.378 63.4534 150.075 63.3908ZM150.515 65.7448C150.359 65.7361 150.205 65.7794 150.076 65.8677C149.947 65.956 149.851 66.0845 149.802 66.2332C147.893 65.9428 145.983 66.6732 144.082 66.286C144.051 66.1159 143.983 65.9548 143.883 65.8141C143.783 65.6734 143.652 65.5566 143.502 65.472C143.546 65.032 143.594 64.592 143.638 64.152C143.795 64.1598 143.95 64.1158 144.08 64.0268C144.209 63.9377 144.306 63.8086 144.355 63.6592C146.265 63.9496 148.17 63.2192 150.075 63.6064C150.104 63.777 150.172 63.9389 150.272 64.0799C150.373 64.2209 150.504 64.3372 150.656 64.4204C150.612 64.8648 150.568 65.3048 150.52 65.7448H150.515Z" fill="black"/>
<path opacity="0.2" d="M147.84 64.878C147.813 65.0877 147.718 65.2827 147.569 65.4329C147.421 65.5832 147.227 65.6804 147.017 65.7096C146.925 65.7228 146.831 65.714 146.743 65.6839C146.654 65.6537 146.575 65.603 146.51 65.5361C146.445 65.4691 146.397 65.3876 146.37 65.2985C146.342 65.2093 146.337 65.115 146.353 65.0232C146.38 64.8133 146.475 64.618 146.624 64.4672C146.772 64.3163 146.966 64.218 147.176 64.1872C147.268 64.1747 147.362 64.1843 147.45 64.215C147.539 64.2458 147.618 64.2968 147.683 64.3641C147.748 64.4314 147.796 64.513 147.823 64.6023C147.85 64.6916 147.856 64.786 147.84 64.878Z" fill="black"/>
<path d="M143.374 81.0876C140.884 79.7676 138.362 80.4364 135.872 78.9184C136.004 78.1528 136.133 77.3799 136.259 76.5996C138.754 77.9196 141.275 77.2508 143.761 78.7688C143.632 79.5344 143.503 80.3073 143.374 81.0876Z" fill="#F73163"/>
<path opacity="0.2" d="M142.613 78.4124C140.853 77.7524 139.093 77.8492 137.333 77.2684C137.052 77.1755 136.777 77.0653 136.51 76.9384C136.479 77.1276 136.444 77.3168 136.413 77.5104C136.369 77.7832 136.325 78.0604 136.277 78.3332L136.184 78.9008C136.451 79.043 136.728 79.1665 137.012 79.2704C138.772 79.9304 140.532 79.838 142.27 80.4188C142.552 80.5116 142.828 80.6218 143.097 80.7488L143.189 80.1768C143.233 79.904 143.282 79.6268 143.326 79.354L143.418 78.7864C143.158 78.6452 142.889 78.5203 142.613 78.4124ZM143 80.08C142.883 80.0347 142.755 80.0282 142.635 80.0615C142.514 80.0948 142.408 80.1661 142.331 80.2648C140.571 79.6664 138.785 79.772 137.02 79.1032C136.938 78.8191 136.749 78.578 136.492 78.43C136.536 78.144 136.585 77.858 136.633 77.55C136.749 77.5964 136.877 77.604 136.998 77.5714C137.118 77.5389 137.225 77.468 137.302 77.3696C139.062 77.9636 140.844 77.8624 142.608 78.5312C142.69 78.8158 142.882 79.0564 143.141 79.2C143.097 79.5256 143.048 79.8116 143 80.08Z" fill="black"/>
<path opacity="0.2" d="M140.51 78.9492C140.466 79.2264 140.122 79.3892 139.74 79.3408C139.357 79.2924 139.084 79.0108 139.128 78.738C139.172 78.4652 139.515 78.298 139.898 78.3464C140.281 78.3948 140.554 78.6764 140.51 78.9492Z" fill="black"/>
<path d="M126.35 83.4196C123.455 83.27 121.334 84.2996 118.36 84.0356C118.171 83.5472 117.977 83.0588 117.788 82.5616C120.683 82.7112 122.804 81.6816 125.778 81.95C125.968 82.4384 126.157 82.9268 126.35 83.4196Z" fill="#F73163"/>
<path opacity="0.2" d="M124.546 82.0292C122.619 82.082 120.987 82.5836 119.09 82.6848C118.796 82.6848 118.488 82.7068 118.175 82.6848C118.224 82.8036 118.268 82.9268 118.316 83.0456C118.364 83.1644 118.452 83.3932 118.518 83.5692C118.584 83.7452 118.615 83.8068 118.659 83.9256C118.982 83.9432 119.294 83.9432 119.596 83.9256C121.524 83.8728 123.152 83.3712 125.048 83.2744C125.347 83.2744 125.651 83.2744 125.963 83.2744C125.919 83.1512 125.871 83.0324 125.822 82.9136C125.774 82.7948 125.686 82.5616 125.62 82.39C125.554 82.2184 125.528 82.148 125.479 82.0292C125.158 82.0248 124.85 82.0204 124.546 82.0292ZM125.598 82.9092C125.277 82.9356 125.066 83.05 125.039 83.1864C123.121 83.2788 121.475 83.7892 119.53 83.842C119.303 83.6816 119.034 83.5899 118.756 83.578L118.545 83.0324C118.866 83.0016 119.073 82.8872 119.099 82.7552C121.018 82.6584 122.663 82.148 124.608 82.0996C124.836 82.2591 125.105 82.3493 125.382 82.3592C125.453 82.566 125.528 82.7464 125.598 82.9312V82.9092Z" fill="black"/>
<path opacity="0.2" d="M122.76 82.8784C122.83 83.0544 122.571 83.2436 122.188 83.3184C121.805 83.3932 121.431 83.2876 121.361 83.1116C121.29 82.9356 121.546 82.7508 121.933 82.6716C122.32 82.5924 122.698 82.72 122.76 82.8784Z" fill="black"/>
<path d="M128.379 68.5476C126.179 66.6468 126.553 63.4216 124.076 61.6528L121.092 63.6064C123.292 65.5028 122.918 68.7324 125.396 70.4968L128.379 68.5476Z" fill="#F73163"/>
<path opacity="0.2" d="M124.709 69.454C123.499 67.9492 123.284 65.934 122.184 64.3764C122.007 64.1262 121.808 63.8921 121.59 63.6768L122.32 63.1972L123.38 62.5064L124.111 62.0312C124.348 62.234 124.566 62.4579 124.762 62.7C125.968 64.2092 126.183 66.22 127.288 67.782C127.466 68.0299 127.665 68.2625 127.882 68.4772L127.16 68.9568L126.1 69.6476L125.369 70.1228C125.127 69.9227 124.906 69.6986 124.709 69.454ZM127.006 68.7808C126.928 68.645 126.897 68.4875 126.918 68.3324C126.939 68.1774 127.01 68.0334 127.12 67.9228C125.99 66.3564 125.8 64.3192 124.564 62.8012C124.398 62.8517 124.223 62.8644 124.052 62.8385C123.881 62.8126 123.717 62.7488 123.574 62.6516L122.465 63.36C122.547 63.4985 122.58 63.6602 122.559 63.8197C122.539 63.9791 122.465 64.127 122.351 64.24C123.477 65.8064 123.671 67.8436 124.907 69.3616C125.073 69.3105 125.247 69.297 125.419 69.3221C125.59 69.3473 125.753 69.4103 125.897 69.5068L127.006 68.7808Z" fill="black"/>
<path opacity="0.2" d="M125.008 66.7744C125.184 66.6554 125.315 66.4818 125.382 66.2805C125.449 66.0793 125.447 65.8616 125.378 65.6612C125.347 65.5732 125.296 65.4936 125.229 65.4288C125.162 65.3641 125.081 65.3161 124.992 65.2887C124.903 65.2613 124.808 65.2552 124.716 65.271C124.624 65.2868 124.538 65.324 124.463 65.3796C124.288 65.4996 124.158 65.6733 124.091 65.8742C124.025 66.0751 124.025 66.2923 124.093 66.4928C124.124 66.5809 124.175 66.6605 124.242 66.7252C124.309 66.7899 124.39 66.8379 124.479 66.8653C124.569 66.8927 124.663 66.8988 124.755 66.883C124.847 66.8672 124.934 66.83 125.008 66.7744Z" fill="black"/>
<path d="M133.76 96.0608C131.437 94.3932 128.427 95.6208 126.174 93.676L127.371 90.2352C129.694 91.9028 132.704 90.6752 134.957 92.62C134.539 93.7596 134.143 94.908 133.76 96.0608Z" fill="#F73163"/>
<path opacity="0.2" d="M133.782 92.224C132.066 91.4408 130.086 91.784 128.339 91.0976C128.059 90.9922 127.79 90.8611 127.534 90.706C127.437 90.9876 127.34 91.2692 127.239 91.5508L126.799 92.7696L126.509 93.61C126.755 93.7909 127.019 93.9457 127.296 94.072C129.017 94.8552 130.997 94.512 132.739 95.194C133.019 95.301 133.289 95.4335 133.544 95.59L133.839 94.7452L134.279 93.522L134.57 92.686C134.324 92.5051 134.06 92.3503 133.782 92.224ZM133.654 94.6528C133.502 94.6153 133.342 94.628 133.198 94.689C133.053 94.7501 132.933 94.8563 132.854 94.9916C131.094 94.3052 129.096 94.644 127.362 93.852C127.376 93.6797 127.35 93.5067 127.286 93.3459C127.223 93.1851 127.124 93.0407 126.997 92.9236C127.147 92.4836 127.296 92.07 127.437 91.6432C127.59 91.6811 127.751 91.668 127.895 91.6061C128.04 91.5441 128.16 91.4367 128.238 91.3C129.998 91.9908 131.996 91.652 133.729 92.444C133.716 92.6163 133.742 92.7893 133.805 92.9501C133.869 93.1109 133.967 93.2553 134.094 93.3724L133.654 94.6528Z" fill="black"/>
<path opacity="0.2" d="M131.278 93.2316C131.207 93.4324 131.072 93.6048 130.894 93.7229C130.717 93.841 130.506 93.8987 130.293 93.8872C130.2 93.8789 130.111 93.8484 130.032 93.7983C129.954 93.7481 129.888 93.6798 129.842 93.5992C129.795 93.5185 129.768 93.4278 129.764 93.3347C129.76 93.2416 129.778 93.1489 129.818 93.0644C129.889 92.8639 130.022 92.6917 130.199 92.5735C130.376 92.4553 130.586 92.3976 130.799 92.4088C130.892 92.4174 130.981 92.448 131.059 92.4981C131.138 92.5482 131.203 92.6163 131.25 92.6968C131.297 92.7773 131.324 92.8678 131.329 92.9608C131.334 93.0538 131.317 93.1466 131.278 93.2316Z" fill="black"/>
<path d="M167.253 96.1488C165.176 94.3228 162.611 94.4548 160.582 92.4352L161.48 90.2C163.557 92.0304 166.122 91.894 168.15 93.9136C167.86 94.6645 167.561 95.4096 167.253 96.1488Z" fill="#F73163"/>
<path opacity="0.2" d="M167.152 93.3328C165.629 92.312 163.926 92.0392 162.386 91.102C162.137 90.9503 161.897 90.7828 161.669 90.6004C161.599 90.7852 161.524 90.9656 161.449 91.146C161.339 91.41 161.229 91.674 161.124 91.938L160.899 92.4792C161.121 92.6767 161.357 92.859 161.603 93.0248C163.121 94.0456 164.828 94.314 166.368 95.2556C166.616 95.4088 166.854 95.5763 167.081 95.7572L167.306 95.2116L167.631 94.4196C167.706 94.2392 167.781 94.0588 167.851 93.8784C167.63 93.6823 167.396 93.5 167.152 93.3328ZM167.13 95.0928C167.027 95.0229 166.905 94.9892 166.781 94.9972C166.657 95.0052 166.54 95.0543 166.448 95.1368C164.894 94.1776 163.17 93.9092 161.638 92.8796C161.628 92.5838 161.502 92.3041 161.286 92.1008L161.625 91.2736C161.727 91.3435 161.85 91.3772 161.974 91.3692C162.097 91.3612 162.215 91.3121 162.307 91.2296C163.86 92.1888 165.585 92.4572 167.116 93.4868C167.121 93.6334 167.154 93.7778 167.214 93.9115C167.275 94.0452 167.361 94.1655 167.468 94.2656L167.13 95.0928Z" fill="black"/>
<path opacity="0.2" d="M165 93.4296C164.917 93.5665 164.784 93.6664 164.63 93.7089C164.475 93.7514 164.31 93.7334 164.168 93.6584C164.014 93.6179 163.882 93.5189 163.8 93.3825C163.718 93.2461 163.692 93.0831 163.728 92.928C163.812 92.7911 163.944 92.6912 164.099 92.6487C164.253 92.6062 164.418 92.6242 164.56 92.6992C164.714 92.7397 164.846 92.8387 164.928 92.9751C165.01 93.1115 165.036 93.2745 165 93.4296Z" fill="black"/>
<path d="M156.332 83.688C153.604 84.4712 151.967 86.152 149.129 86.8516C148.804 86.438 148.469 86.02 148.135 85.6064C150.863 84.8188 152.5 83.138 155.338 82.4428L156.332 83.688Z" fill="#F73163"/>
<path opacity="0.2" d="M154.22 82.918C152.46 83.5868 151.105 84.5944 149.38 85.3028C149.112 85.4128 148.83 85.514 148.535 85.6108L148.782 85.9144L149.138 86.3544L149.38 86.658C149.684 86.5744 149.97 86.4776 150.26 86.372C152.02 85.7032 153.38 84.6912 155.1 83.9872C155.373 83.8772 155.654 83.7716 155.945 83.6792L155.703 83.3756L155.346 82.9356L155.1 82.632C154.788 82.72 154.497 82.8124 154.22 82.918ZM155.478 83.4504C155.192 83.5824 155.038 83.7628 155.038 83.8904C153.278 84.5988 151.932 85.6196 150.15 86.2972C149.889 86.2173 149.61 86.2173 149.349 86.2972L148.975 85.8572C149.266 85.7296 149.415 85.5492 149.415 85.4172C151.175 84.7132 152.517 83.688 154.304 83.0148C154.564 83.0977 154.844 83.0977 155.104 83.0148L155.478 83.4504Z" fill="black"/>
<path opacity="0.2" d="M152.843 84.3128C152.966 84.458 152.786 84.7264 152.451 84.9112C152.117 85.096 151.743 85.1224 151.624 84.9772C151.505 84.832 151.677 84.5636 152.016 84.3788C152.354 84.194 152.724 84.1676 152.843 84.3128Z" fill="black"/>
<path d="M145.266 108.781C143.29 106.674 143.999 103.426 141.746 101.433L138.635 103.193C140.606 105.301 139.898 108.548 142.155 110.541L145.266 108.781Z" fill="#F73163"/>
<path opacity="0.2" d="M141.588 109.41C140.562 107.782 140.554 105.719 139.638 104.047C139.492 103.779 139.321 103.526 139.128 103.29L139.894 102.85L140.998 102.23L141.759 101.79C141.972 102.014 142.162 102.258 142.327 102.52C143.352 104.148 143.356 106.212 144.276 107.884C144.423 108.151 144.593 108.404 144.786 108.64L144.021 109.08L142.916 109.701L142.155 110.141C141.942 109.917 141.752 109.672 141.588 109.41ZM143.898 108.909C143.834 108.76 143.819 108.595 143.854 108.437C143.89 108.279 143.974 108.136 144.096 108.029C143.154 106.348 143.158 104.262 142.12 102.621C141.955 102.66 141.784 102.659 141.62 102.62C141.455 102.58 141.303 102.502 141.174 102.392L140.017 103.039C140.082 103.188 140.098 103.353 140.062 103.512C140.027 103.67 139.941 103.813 139.819 103.919C140.76 105.6 140.756 107.686 141.794 109.327C141.959 109.287 142.131 109.287 142.295 109.327C142.46 109.367 142.612 109.445 142.74 109.556L143.898 108.909Z" fill="black"/>
<path opacity="0.2" d="M142.155 106.709C142.339 106.598 142.484 106.432 142.569 106.235C142.653 106.037 142.673 105.818 142.626 105.609C142.609 105.515 142.569 105.428 142.51 105.354C142.45 105.28 142.373 105.222 142.285 105.186C142.197 105.15 142.102 105.137 142.008 105.148C141.913 105.159 141.823 105.193 141.746 105.248C141.561 105.358 141.416 105.524 141.331 105.721C141.246 105.919 141.225 106.138 141.271 106.348C141.288 106.441 141.329 106.529 141.389 106.603C141.449 106.677 141.526 106.734 141.615 106.77C141.703 106.806 141.798 106.819 141.893 106.808C141.987 106.798 142.077 106.763 142.155 106.709Z" fill="black"/>
<path d="M160.723 104.826C157.854 105.371 156.592 108.346 153.564 108.671L151.941 105.494C154.81 104.949 156.077 101.974 159.104 101.649C159.641 102.705 160.16 103.761 160.723 104.826Z" fill="#F73163"/>
<path opacity="0.2" d="M157.986 102.216C156.191 102.92 155.003 104.562 153.274 105.367C152.991 105.498 152.696 105.603 152.394 105.679L152.79 106.458C152.984 106.836 153.177 107.21 153.366 107.589L153.762 108.359C154.071 108.303 154.373 108.218 154.664 108.104C156.46 107.395 157.643 105.754 159.377 104.949C159.66 104.818 159.954 104.713 160.257 104.636C160.125 104.377 159.993 104.117 159.856 103.858L159.28 102.731L158.884 101.957C158.577 102.012 158.276 102.099 157.986 102.216ZM159.645 103.941C159.511 104.021 159.406 104.142 159.347 104.287C159.288 104.431 159.279 104.591 159.32 104.742C157.56 105.543 156.367 107.206 154.554 107.919C154.436 107.793 154.292 107.695 154.131 107.633C153.97 107.571 153.798 107.545 153.626 107.558L153.019 106.379C153.155 106.3 153.261 106.178 153.321 106.032C153.381 105.887 153.39 105.725 153.349 105.574C155.109 104.773 156.297 103.11 158.114 102.397C158.231 102.523 158.376 102.622 158.537 102.685C158.697 102.748 158.87 102.775 159.042 102.762C159.245 103.154 159.447 103.545 159.645 103.941Z" fill="black"/>
<path opacity="0.2" d="M156.917 104.694C157.009 104.884 157.036 105.1 156.994 105.307C156.952 105.514 156.843 105.702 156.684 105.842C156.614 105.903 156.53 105.946 156.44 105.969C156.349 105.992 156.255 105.993 156.164 105.972C156.073 105.951 155.989 105.91 155.917 105.851C155.845 105.791 155.789 105.716 155.751 105.631C155.659 105.441 155.631 105.225 155.672 105.018C155.714 104.811 155.822 104.623 155.98 104.482C156.05 104.421 156.134 104.376 156.225 104.353C156.316 104.33 156.411 104.329 156.502 104.349C156.594 104.37 156.679 104.412 156.751 104.472C156.823 104.532 156.88 104.608 156.917 104.694Z" fill="black"/>
<path d="M146.749 126.685C144.254 125.365 141.737 126.034 139.269 124.52C139.396 123.75 139.528 122.976 139.656 122.197C142.151 123.517 144.668 122.852 147.136 124.366C147.008 125.132 146.876 125.906 146.749 126.685Z" fill="#F73163"/>
<path opacity="0.2" d="M145.988 124.01C144.228 123.35 142.468 123.446 140.708 122.866C140.425 122.773 140.149 122.663 139.88 122.536L139.788 123.108C139.744 123.38 139.696 123.658 139.652 123.93L139.559 124.498C139.826 124.639 140.101 124.764 140.382 124.872C142.142 125.532 143.902 125.435 145.662 126.016C145.943 126.109 146.218 126.219 146.485 126.346C146.52 126.157 146.551 125.968 146.582 125.774C146.626 125.501 146.67 125.224 146.718 124.951L146.81 124.384C146.544 124.243 146.269 124.118 145.988 124.01ZM146.375 125.699C146.259 125.653 146.131 125.645 146.01 125.678C145.89 125.71 145.783 125.781 145.706 125.88C143.946 125.286 142.186 125.387 140.4 124.718C140.316 124.434 140.125 124.194 139.867 124.049L140.012 123.169C140.128 123.215 140.256 123.222 140.376 123.188C140.495 123.155 140.601 123.083 140.677 122.984C142.437 123.578 144.223 123.477 145.988 124.146C146.07 124.43 146.259 124.671 146.516 124.819C146.472 125.123 146.423 125.4 146.375 125.699Z" fill="black"/>
<path opacity="0.2" d="M143.88 124.546C143.836 124.824 143.488 124.986 143.11 124.942C142.732 124.898 142.454 124.612 142.494 124.335C142.534 124.058 142.881 123.895 143.268 123.944C143.656 123.992 143.928 124.274 143.88 124.546Z" fill="black"/>
<path d="M116.16 121.629C114.057 123.627 113.344 125.875 111.104 127.851L109.644 127.252C111.747 125.255 112.455 123.006 114.695 121.031L116.16 121.629Z" fill="#F73163"/>
<path opacity="0.2" d="M113.894 121.981C112.605 123.416 111.848 124.947 110.616 126.381C110.422 126.606 110.216 126.821 109.996 127.054L110.356 127.2L110.876 127.411L111.232 127.556C111.465 127.336 111.672 127.116 111.883 126.887C113.172 125.453 113.929 123.926 115.161 122.487C115.355 122.258 115.562 122.047 115.782 121.81L115.421 121.664L114.902 121.453L114.545 121.308C114.312 121.532 114.096 121.757 113.894 121.981ZM115.271 121.836C115.069 122.087 115.007 122.32 115.086 122.434C113.837 123.891 113.076 125.435 111.773 126.883C111.501 126.935 111.25 127.067 111.052 127.261L110.506 127.041C110.708 126.79 110.77 126.557 110.686 126.447C111.94 124.991 112.702 123.446 114 121.999C114.274 121.945 114.526 121.812 114.726 121.616L115.271 121.836Z" fill="black"/>
<path opacity="0.2" d="M113.287 123.856C113.463 123.926 113.423 124.243 113.203 124.564C112.983 124.885 112.662 125.092 112.49 125.004C112.319 124.916 112.354 124.617 112.57 124.296C112.785 123.974 113.111 123.79 113.287 123.856Z" fill="black"/>
<path d="M129.281 117.581C128.462 114.778 130.552 112.301 129.444 109.454H125.88C126.698 112.257 124.608 114.734 125.712 117.581H129.281Z" fill="#F73163"/>
<path opacity="0.2" d="M125.708 116.336C125.519 114.413 126.443 112.609 126.372 110.7C126.36 110.393 126.322 110.089 126.258 109.789H129.268C129.357 110.087 129.417 110.394 129.448 110.704C129.633 112.627 128.713 114.431 128.784 116.336C128.796 116.642 128.834 116.947 128.898 117.247H125.888C125.8 116.95 125.739 116.645 125.708 116.336ZM128 117.027C128.01 116.87 128.071 116.721 128.173 116.602C128.276 116.482 128.414 116.4 128.568 116.367C128.476 114.44 129.417 112.622 129.224 110.682C129.056 110.632 128.902 110.544 128.774 110.426C128.645 110.308 128.544 110.162 128.48 110H127.16C127.151 110.157 127.09 110.306 126.987 110.424C126.885 110.543 126.746 110.624 126.592 110.656C126.68 112.587 125.743 114.404 125.932 116.345C126.1 116.391 126.254 116.475 126.384 116.59C126.514 116.705 126.615 116.849 126.68 117.009L128 117.027Z" fill="black"/>
<path opacity="0.2" d="M127.428 114.25C127.639 114.246 127.843 114.173 128.009 114.042C128.174 113.911 128.292 113.729 128.344 113.524C128.366 113.434 128.366 113.339 128.345 113.249C128.324 113.158 128.283 113.073 128.223 113.001C128.164 112.93 128.089 112.873 128.003 112.835C127.918 112.798 127.825 112.78 127.732 112.785C127.52 112.79 127.316 112.864 127.15 112.996C126.983 113.128 126.865 113.31 126.812 113.516C126.79 113.606 126.789 113.701 126.811 113.792C126.832 113.883 126.874 113.968 126.934 114.039C126.994 114.111 127.07 114.167 127.156 114.204C127.242 114.241 127.335 114.257 127.428 114.25Z" fill="black"/>
<path d="M134.103 144.241C133.954 141.385 131.107 139.814 131.226 136.831L134.658 135.612C134.807 138.468 137.658 140.043 137.54 143.026L134.103 144.241Z" fill="#F73163"/>
<path opacity="0.2" d="M137.126 141.874C136.686 140.043 135.172 138.701 134.6 136.924C134.507 136.637 134.442 136.343 134.407 136.044L133.562 136.343L132.343 136.783L131.507 137.078C131.521 137.383 131.565 137.687 131.639 137.984C132.106 139.814 133.593 141.156 134.165 142.934C134.259 143.22 134.324 143.515 134.358 143.814L135.203 143.515L136.422 143.075L137.258 142.776C137.244 142.471 137.199 142.169 137.126 141.874ZM135.15 143.295C135.085 143.152 134.975 143.034 134.837 142.96C134.699 142.885 134.54 142.857 134.385 142.881C133.826 141.082 132.308 139.731 131.846 137.883C131.989 137.783 132.108 137.652 132.193 137.499C132.279 137.347 132.328 137.177 132.339 137.003L133.615 136.563C133.68 136.707 133.79 136.826 133.93 136.9C134.069 136.975 134.229 137.002 134.385 136.976C134.944 138.776 136.457 140.127 136.924 141.975C136.779 142.074 136.659 142.205 136.573 142.357C136.487 142.51 136.437 142.68 136.426 142.855L135.15 143.295Z" fill="black"/>
<path opacity="0.2" d="M134.772 140.549C134.571 140.619 134.353 140.622 134.15 140.557C133.947 140.493 133.77 140.365 133.646 140.193C133.595 140.115 133.564 140.027 133.554 139.935C133.545 139.843 133.557 139.751 133.591 139.665C133.625 139.579 133.678 139.502 133.747 139.441C133.817 139.379 133.899 139.336 133.989 139.313C134.19 139.242 134.408 139.239 134.611 139.303C134.814 139.368 134.991 139.496 135.115 139.669C135.166 139.747 135.197 139.835 135.206 139.927C135.216 140.019 135.203 140.111 135.17 140.197C135.136 140.283 135.083 140.36 135.013 140.421C134.944 140.483 134.861 140.526 134.772 140.549Z" fill="black"/>
<path d="M172.176 78.8436C170.1 77.0132 167.53 77.1496 165.502 75.13C165.81 74.3908 166.113 73.6516 166.421 72.9036C168.494 74.7296 171.063 74.5976 173.092 76.6172C172.788 77.3564 172.48 78.0956 172.176 78.8436Z" fill="#F73163"/>
<path opacity="0.2" d="M172.071 76.0276C170.553 75.0068 168.846 74.734 167.306 73.7924C167.058 73.6422 166.819 73.4761 166.593 73.2952L166.368 73.8408L166.047 74.6328L165.823 75.174C166.045 75.3712 166.28 75.5535 166.527 75.7196C168.045 76.7404 169.752 77.0088 171.292 77.9504C171.54 78.1021 171.778 78.2696 172.005 78.452L172.229 77.9064L172.55 77.1144L172.775 76.5732C172.554 76.3745 172.318 76.1922 172.071 76.0276ZM172.049 77.7876C171.947 77.7177 171.824 77.684 171.7 77.692C171.577 77.7 171.459 77.7491 171.367 77.8316C169.818 76.8724 168.093 76.604 166.558 75.57C166.553 75.4244 166.521 75.2811 166.461 75.1482C166.401 75.0153 166.316 74.8955 166.21 74.7956C166.32 74.5184 166.434 74.2412 166.549 73.9684C166.651 74.0383 166.774 74.0719 166.897 74.064C167.021 74.056 167.138 74.0068 167.231 73.9244C168.78 74.8836 170.504 75.152 172.04 76.1816C172.049 76.4767 172.174 76.7564 172.388 76.9604C172.278 77.2332 172.163 77.506 172.04 77.7832L172.049 77.7876Z" fill="black"/>
<path opacity="0.2" d="M169.932 76.12C169.85 76.2566 169.718 76.3564 169.564 76.3989C169.41 76.4415 169.246 76.4235 169.105 76.3488C168.951 76.3083 168.819 76.2093 168.737 76.0729C168.655 75.9365 168.629 75.7735 168.665 75.6184C168.748 75.4818 168.879 75.3821 169.033 75.3395C169.187 75.297 169.351 75.3149 169.492 75.3896C169.647 75.4291 169.78 75.5279 169.862 75.6646C169.944 75.8013 169.97 75.9649 169.932 76.12Z" fill="black"/>
<path d="M170.152 117.564C167.42 118.351 165.788 120.032 162.95 120.727L161.951 119.482C164.683 118.699 166.316 117.018 169.154 116.318L170.152 117.564Z" fill="#F73163"/>
<path opacity="0.2" d="M168.036 116.798C166.276 117.462 164.921 118.474 163.196 119.178C162.928 119.293 162.646 119.394 162.356 119.486C162.435 119.592 162.518 119.693 162.598 119.794L162.954 120.234L163.196 120.538C163.5 120.454 163.79 120.358 164.076 120.252C165.836 119.583 167.191 118.571 168.916 117.867C169.184 117.757 169.466 117.652 169.761 117.559C169.677 117.458 169.594 117.357 169.514 117.251L169.158 116.811L168.916 116.508C168.604 116.6 168.318 116.692 168.036 116.798ZM169.299 117.33C169.008 117.462 168.859 117.638 168.859 117.77C167.099 118.479 165.757 119.5 163.97 120.177C163.71 120.094 163.43 120.094 163.17 120.177L162.8 119.715C163.086 119.583 163.24 119.407 163.24 119.275C165 118.567 166.342 117.546 168.128 116.873C168.389 116.956 168.669 116.956 168.929 116.873L169.299 117.33Z" fill="black"/>
<path opacity="0.2" d="M166.663 118.193C166.782 118.338 166.606 118.606 166.267 118.791C165.928 118.976 165.559 119.002 165.44 118.857C165.321 118.712 165.497 118.444 165.832 118.259C166.166 118.074 166.544 118.043 166.663 118.193Z" fill="black"/>
<path d="M150.427 153.265C147.699 154.053 146.062 155.734 143.229 156.429L142.23 155.184C144.958 154.4 146.595 152.72 149.433 152.02C149.763 152.434 150.093 152.852 150.427 153.265Z" fill="#F73163"/>
<path opacity="0.2" d="M148.315 152.495C146.555 153.164 145.2 154.176 143.475 154.88C143.207 154.994 142.925 155.096 142.63 155.188L142.877 155.496L143.233 155.936L143.475 156.24C143.779 156.152 144.065 156.055 144.355 155.954C146.115 155.285 147.47 154.273 149.195 153.569C149.464 153.454 149.745 153.353 150.036 153.261L149.794 152.953L149.437 152.513L149.195 152.209C148.883 152.297 148.592 152.394 148.315 152.495ZM149.574 153.032C149.288 153.164 149.134 153.34 149.134 153.472C147.374 154.18 146.027 155.201 144.245 155.874C143.984 155.795 143.705 155.795 143.444 155.874L143.07 155.434C143.361 155.302 143.51 155.126 143.51 154.994C145.27 154.286 146.612 153.265 148.399 152.592C148.66 152.672 148.939 152.672 149.2 152.592L149.574 153.032Z" fill="black"/>
<path opacity="0.2" d="M146.96 153.894C147.079 154.04 146.903 154.304 146.564 154.493C146.225 154.682 145.856 154.704 145.737 154.559C145.618 154.414 145.794 154.145 146.128 153.96C146.463 153.776 146.819 153.745 146.96 153.894Z" fill="black"/>
<path d="M111.408 106.63C112.376 103.91 115.584 103.048 116.327 100.144L113.348 98.1816C112.385 100.901 109.173 101.768 108.434 104.672L111.408 106.63Z" fill="#F73163"/>
<path opacity="0.2" d="M109.164 103.655C110.136 101.996 111.962 101.042 113.027 99.4576C113.199 99.2051 113.346 98.937 113.467 98.6568L114.198 99.1408L115.254 99.8404L115.98 100.316C115.876 100.608 115.747 100.891 115.592 101.16C114.616 102.819 112.79 103.77 111.725 105.354C111.554 105.607 111.407 105.875 111.285 106.154L110.554 105.675L109.498 104.975L108.772 104.496C108.875 104.203 109.006 103.922 109.164 103.655ZM110.669 105.477C110.771 105.355 110.909 105.269 111.063 105.229C111.216 105.19 111.379 105.199 111.527 105.257C112.587 103.646 114.444 102.692 115.425 101.015C115.315 100.887 115.236 100.734 115.196 100.57C115.155 100.406 115.154 100.234 115.192 100.069L114.083 99.3344C113.982 99.4579 113.845 99.5461 113.691 99.5864C113.537 99.6268 113.374 99.6171 113.225 99.5588C112.165 101.169 110.312 102.12 109.331 103.8C109.441 103.929 109.52 104.081 109.56 104.246C109.601 104.41 109.602 104.581 109.564 104.746L110.669 105.477Z" fill="black"/>
<path opacity="0.2" d="M111.822 102.916C112.004 103.029 112.217 103.081 112.431 103.066C112.645 103.051 112.849 102.969 113.014 102.832C113.086 102.774 113.143 102.699 113.18 102.614C113.216 102.528 113.231 102.435 113.223 102.343C113.215 102.25 113.185 102.161 113.135 102.083C113.084 102.005 113.016 101.941 112.935 101.895C112.752 101.783 112.538 101.731 112.324 101.746C112.11 101.762 111.907 101.845 111.742 101.983C111.67 102.041 111.613 102.116 111.577 102.201C111.54 102.286 111.525 102.379 111.533 102.471C111.541 102.563 111.571 102.652 111.622 102.73C111.672 102.807 111.741 102.871 111.822 102.916Z" fill="black"/>
<path d="M112.35 65.3796C115.016 64.2356 117.361 64.4644 120.058 63.1796L120.085 61.6C117.418 62.744 115.073 62.5152 112.376 63.8L112.35 65.3796Z" fill="#F73163"/>
<path opacity="0.2" d="M113.564 63.4479C115.386 62.8275 117.084 62.7351 118.901 62.1675C119.187 62.0795 119.473 61.9784 119.781 61.864C119.781 61.9916 119.781 62.1235 119.781 62.2511C119.781 62.3787 119.781 62.6251 119.781 62.8099C119.781 62.9947 119.781 63.0696 119.781 63.1972C119.486 63.3248 119.2 63.4347 118.901 63.5315C117.075 64.1519 115.381 64.2487 113.56 64.8163C113.278 64.9043 112.988 65.0055 112.68 65.1199C112.68 64.9923 112.68 64.8603 112.68 64.7327C112.68 64.6051 112.68 64.3587 112.68 64.1695C112.68 63.9803 112.68 63.9144 112.68 63.7868C112.983 63.6592 113.274 63.5491 113.564 63.4479ZM112.886 64.6799C113.199 64.5963 113.436 64.6315 113.507 64.7459C115.337 64.1695 117.058 64.0771 118.901 63.4479C119.058 63.2186 119.278 63.0398 119.535 62.9331C119.535 62.7395 119.535 62.5415 119.535 62.3479C119.227 62.4315 118.989 62.3963 118.919 62.2775C117.084 62.8583 115.368 62.9508 113.524 63.5756C113.37 63.8085 113.149 63.9895 112.891 64.0947L112.886 64.6799Z" fill="black"/>
<path opacity="0.2" d="M115.522 63.6284C115.522 63.8176 115.826 63.9056 116.208 63.8308C116.591 63.756 116.908 63.5404 116.912 63.3556C116.917 63.1708 116.613 63.0784 116.226 63.1532C115.839 63.228 115.531 63.4436 115.522 63.6284Z" fill="black"/>
<path d="M107.4 64.9484C109.837 63.3688 112.187 63.1884 114.629 61.4812C114.55 60.9664 114.466 60.4428 114.387 59.9192C111.954 61.4988 109.6 61.6792 107.158 63.3908C107.241 63.9056 107.32 64.4248 107.4 64.9484Z" fill="#F73163"/>
<path opacity="0.2" d="M108.271 62.8408C109.965 61.9212 111.628 61.5208 113.318 60.676C113.582 60.544 113.85 60.3944 114.118 60.236C114.118 60.3636 114.158 60.4912 114.176 60.6188C114.193 60.7464 114.233 60.9884 114.259 61.1732C114.286 61.358 114.299 61.4284 114.321 61.556C114.051 61.732 113.783 61.8904 113.516 62.0312C111.822 62.9508 110.158 63.3512 108.469 64.196C108.205 64.3324 107.936 64.482 107.668 64.636C107.668 64.5084 107.628 64.3808 107.611 64.2532C107.593 64.1256 107.554 63.8836 107.527 63.6988C107.501 63.514 107.488 63.4436 107.466 63.316C107.734 63.1444 108.002 62.986 108.271 62.8408ZM107.831 64.1608C108.121 64.0244 108.363 64.02 108.451 64.1212C110.158 63.2412 111.839 62.8628 113.546 61.9212C113.664 61.668 113.852 61.454 114.088 61.3052C114.057 61.1116 114.03 60.918 114 60.7244C113.705 60.8608 113.467 60.8652 113.375 60.764C111.668 61.644 109.991 62.0224 108.28 62.964C108.165 63.2173 107.978 63.4314 107.743 63.58C107.752 63.7604 107.8 63.954 107.8 64.1476L107.831 64.1608Z" fill="black"/>
<path opacity="0.2" d="M110.233 62.6868C110.26 62.876 110.576 62.9112 110.942 62.7704C111.307 62.6296 111.58 62.37 111.558 62.1808C111.536 61.9916 111.214 61.9608 110.845 62.0972C110.475 62.2336 110.207 62.502 110.233 62.6868Z" fill="black"/>
</svg>
