<svg width="220" height="220" viewBox="0 0 220 220" fill="none" xmlns="http://www.w3.org/2000/svg">
<path d="M220 168.256H0V168.366H220V168.256Z" fill="#EBEBEB"/>
<path d="M197.956 175.336H183.383V175.446H197.956V175.336Z" fill="#EBEBEB"/>
<path d="M129.897 171.934H117.858V172.044H129.897V171.934Z" fill="#EBEBEB"/>
<path d="M182.943 171.252H174.5V171.362H182.943V171.252Z" fill="#EBEBEB"/>
<path d="M30.6284 171.992H23.0824V172.102H30.6284V171.992Z" fill="#EBEBEB"/>
<path d="M48.7916 171.992H34.5444V172.102H48.7916V171.992Z" fill="#EBEBEB"/>
<path d="M99.066 173.848H72.5032V173.958H99.066V173.848Z" fill="#EBEBEB"/>
<path d="M104.28 148.632H19.3204C18.6548 148.631 18.0169 148.366 17.5467 147.895C17.0765 147.424 16.8124 146.785 16.8124 146.12V26.6904C16.8182 26.0286 17.0849 25.3959 17.5544 24.9296C18.024 24.4633 18.6586 24.2011 19.3204 24.2H104.28C104.946 24.2 105.585 24.4647 106.057 24.9358C106.528 25.407 106.792 26.0461 106.792 26.7124V146.12C106.792 146.786 106.528 147.425 106.057 147.896C105.585 148.367 104.946 148.632 104.28 148.632ZM19.3204 24.288C18.684 24.2891 18.0741 24.5428 17.6245 24.9932C17.1749 25.4436 16.9224 26.054 16.9224 26.6904V146.12C16.9224 146.756 17.1749 147.366 17.6245 147.817C18.0741 148.267 18.684 148.521 19.3204 148.522H104.28C104.917 148.521 105.527 148.267 105.977 147.817C106.428 147.367 106.681 146.756 106.682 146.12V26.6904C106.681 26.0536 106.428 25.4432 105.977 24.9929C105.527 24.5426 104.917 24.2891 104.28 24.288H19.3204Z" fill="#EBEBEB"/>
<path d="M199.456 148.632H114.492C113.826 148.631 113.188 148.366 112.717 147.895C112.246 147.424 111.981 146.786 111.98 146.12V26.6904C111.987 26.0282 112.255 25.3955 112.725 24.9293C113.195 24.4631 113.83 24.2011 114.492 24.2H199.456C200.117 24.2023 200.751 24.465 201.22 24.9311C201.688 25.3973 201.954 26.0294 201.96 26.6904V146.12C201.96 146.784 201.697 147.422 201.227 147.893C200.758 148.364 200.121 148.63 199.456 148.632ZM114.492 24.288C113.856 24.2891 113.245 24.5426 112.795 24.9929C112.345 25.4432 112.091 26.0536 112.09 26.6904V146.12C112.091 146.756 112.345 147.367 112.795 147.817C113.245 148.267 113.856 148.521 114.492 148.522H199.456C200.093 148.521 200.704 148.267 201.154 147.817C201.604 147.367 201.858 146.756 201.859 146.12V26.6904C201.858 26.0536 201.604 25.4432 201.154 24.9929C200.704 24.5426 200.093 24.2891 199.456 24.288H114.492Z" fill="#EBEBEB"/>
<path d="M194.678 168.256V35.9568L132.233 35.9568V168.256H194.678Z" fill="#FAFAFA"/>
<path d="M132.233 168.256V35.9568H132V168.256H132.233Z" fill="#F0F0F0"/>
<path d="M187.722 40.2996H136.748V168.256H187.722V40.2996Z" fill="#E6E6E6"/>
<path d="M190.454 40.2996H138.024V168.256H190.454V40.2996Z" fill="#F0F0F0"/>
<path d="M186.63 105.345V106.955L188.241 105.345H186.63Z" fill="#E0E0E0"/>
<path d="M186.63 164.437V44.1232H141.843V164.437H186.63Z" fill="#EBEBEB"/>
<path d="M186.635 164.437V44.1232H186.151V164.437H186.635Z" fill="#E6E6E6"/>
<path d="M178.306 104.685C178.137 104.675 177.968 104.699 177.809 104.757C177.65 104.815 177.504 104.904 177.381 105.02C177.258 105.136 177.16 105.276 177.093 105.432C177.026 105.587 176.991 105.754 176.991 105.923C176.991 106.093 177.026 106.26 177.093 106.415C177.16 106.571 177.258 106.711 177.381 106.827C177.504 106.943 177.65 107.032 177.809 107.09C177.968 107.148 178.137 107.172 178.306 107.162H186.146L186.63 106.955V104.685H178.306Z" fill="#E0E0E0"/>
<path d="M187.818 105.516H179.96C179.797 105.517 179.636 105.485 179.485 105.424C179.335 105.362 179.198 105.271 179.083 105.156C178.968 105.041 178.876 104.904 178.814 104.754C178.751 104.604 178.719 104.443 178.719 104.28C178.719 103.951 178.85 103.635 179.083 103.403C179.315 103.17 179.631 103.039 179.96 103.039H187.801C187.964 103.039 188.125 103.071 188.275 103.134C188.425 103.196 188.562 103.288 188.677 103.403C188.791 103.518 188.882 103.655 188.944 103.805C189.006 103.956 189.038 104.117 189.037 104.28C189.037 104.605 188.909 104.917 188.681 105.148C188.453 105.379 188.143 105.512 187.818 105.516Z" fill="#F5F5F5"/>
<path d="M25.96 85.8H118.862C118.965 85.7992 119.065 85.7594 119.141 85.6885C119.217 85.6175 119.263 85.5207 119.271 85.4172L121.911 34.298C121.914 34.2481 121.908 34.1979 121.891 34.1508C121.874 34.1036 121.848 34.0604 121.813 34.024C121.779 33.9876 121.738 33.9587 121.691 33.9392C121.645 33.9197 121.596 33.9101 121.546 33.9108H28.6396C28.5359 33.9128 28.4367 33.9537 28.3617 34.0254C28.2867 34.0972 28.2414 34.1945 28.2348 34.298L25.5948 85.4172C25.5911 85.4669 25.5979 85.5169 25.6147 85.5638C25.6315 85.6108 25.6579 85.6537 25.6923 85.6898C25.7268 85.7258 25.7684 85.7543 25.8145 85.7733C25.8606 85.7923 25.9102 85.8014 25.96 85.8Z" fill="#E0E0E0"/>
<path d="M26.4 85.8H119.297C119.4 85.7981 119.499 85.7578 119.574 85.687C119.649 85.6162 119.694 85.52 119.702 85.4172L122.342 34.298C122.346 34.2481 122.339 34.1979 122.322 34.1508C122.305 34.1036 122.279 34.0604 122.245 34.024C122.21 33.9876 122.169 33.9587 122.123 33.9392C122.077 33.9197 122.027 33.9101 121.977 33.9108H29.0708C28.9671 33.9128 28.8679 33.9537 28.7929 34.0254C28.7179 34.0972 28.6726 34.1945 28.666 34.298L26.026 85.4172C26.0222 85.4677 26.0292 85.5184 26.0465 85.566C26.0638 85.6136 26.0911 85.6569 26.1265 85.6932C26.1619 85.7294 26.2046 85.7576 26.2517 85.7761C26.2989 85.7945 26.3494 85.8026 26.4 85.8Z" fill="#F0F0F0"/>
<path d="M29.04 84.7132C29.0322 84.8245 28.9824 84.9286 28.9007 85.0046C28.819 85.0806 28.7115 85.1227 28.6 85.1224C28.5471 85.1231 28.4945 85.1129 28.4458 85.0923C28.397 85.0717 28.353 85.0412 28.3166 85.0027C28.2802 84.9643 28.2522 84.9187 28.2344 84.8688C28.2165 84.819 28.2091 84.766 28.2128 84.7132C28.2206 84.6019 28.2704 84.4978 28.3521 84.4218C28.4338 84.3458 28.5412 84.3037 28.6528 84.304C28.7057 84.3033 28.7583 84.3135 28.807 84.3341C28.8558 84.3547 28.8998 84.3852 28.9362 84.4236C28.9726 84.4621 29.0006 84.5077 29.0184 84.5575C29.0363 84.6074 29.0437 84.6604 29.04 84.7132Z" fill="#E0E0E0"/>
<path d="M30.9364 84.7132C30.9286 84.8245 30.8788 84.9286 30.7971 85.0046C30.7154 85.0806 30.608 85.1227 30.4964 85.1224C30.4437 85.1225 30.3914 85.1118 30.343 85.091C30.2945 85.0701 30.2508 85.0396 30.2145 85.0013C30.1783 84.963 30.1502 84.9177 30.1321 84.8681C30.114 84.8186 30.1062 84.7659 30.1092 84.7132C30.117 84.6019 30.1668 84.4978 30.2485 84.4218C30.3302 84.3458 30.4377 84.3037 30.5492 84.304C30.6021 84.3033 30.6547 84.3135 30.7034 84.3341C30.7522 84.3547 30.7962 84.3852 30.8326 84.4236C30.869 84.4621 30.897 84.5077 30.9149 84.5575C30.9327 84.6074 30.9401 84.6604 30.9364 84.7132Z" fill="white"/>
<path d="M117.687 82.9796L120.08 36.7796C120.086 36.6893 120.073 36.5988 120.042 36.5138C120.011 36.4288 119.962 36.3511 119.9 36.2855C119.838 36.2199 119.763 36.1678 119.679 36.1324C119.596 36.0971 119.506 36.0792 119.416 36.08H31.416C31.228 36.0829 31.048 36.1565 30.9119 36.2862C30.7757 36.4158 30.6934 36.592 30.6812 36.7796L28.2876 82.9796C28.2821 83.0697 28.2954 83.16 28.3264 83.2447C28.3575 83.3295 28.4057 83.4069 28.468 83.4722C28.5304 83.5375 28.6056 83.5892 28.6889 83.624C28.7722 83.6589 28.8617 83.6762 28.952 83.6748H116.952C117.139 83.6719 117.319 83.5989 117.455 83.4702C117.591 83.3415 117.674 83.1664 117.687 82.9796Z" fill="#E0E0E0"/>
<path d="M66.946 83.6748L75.7944 36.0712H54.3268L45.4784 83.6748H66.946Z" fill="#E6E6E6"/>
<path d="M81.4396 83.6748L90.288 36.0712H79.552L70.7036 83.6748H81.4396Z" fill="#E6E6E6"/>
<path d="M111.104 111.408H91.5024V168.256H111.104V111.408Z" fill="#E6E6E6"/>
<path d="M107.382 168.256H111.104V163.97H103.479L107.382 168.256Z" fill="#F0F0F0"/>
<path d="M37.84 111.408H25.7092V168.256H37.84V111.408Z" fill="#E6E6E6"/>
<path d="M36.6212 107.505H23.6016V111.408H36.6212V107.505Z" fill="#E0E0E0"/>
<path d="M111.109 111.408H34.5928V167.13H111.109V111.408Z" fill="#F0F0F0"/>
<path d="M113.212 107.505H33.2288V111.408H113.212V107.505Z" fill="#F5F5F5"/>
<path d="M74.1004 138.45V155.496C74.1004 156.281 74.7367 156.917 75.5216 156.917H106.797C107.582 156.917 108.218 156.281 108.218 155.496V138.45C108.218 137.666 107.582 137.029 106.797 137.029H75.5216C74.7367 137.029 74.1004 137.666 74.1004 138.45Z" fill="#E6E6E6"/>
<path d="M37.4836 138.45V155.496C37.4836 156.281 38.1199 156.917 38.9048 156.917H70.18C70.9649 156.917 71.6012 156.281 71.6012 155.496V138.45C71.6012 137.666 70.9649 137.029 70.18 137.029H38.9048C38.1199 137.029 37.4836 137.666 37.4836 138.45Z" fill="#E6E6E6"/>
<path d="M108.24 161.286C108.24 161.473 108.203 161.658 108.132 161.83C108.06 162.003 107.956 162.159 107.824 162.291C107.692 162.423 107.535 162.528 107.363 162.599C107.19 162.671 107.005 162.708 106.819 162.708H38.9004C38.7138 162.708 38.5289 162.671 38.3565 162.599C38.1841 162.528 38.0274 162.423 37.8954 162.291C37.7635 162.159 37.6588 162.003 37.5874 161.83C37.5159 161.658 37.4792 161.473 37.4792 161.286C37.4792 160.909 37.6289 160.548 37.8954 160.281C38.162 160.015 38.5235 159.865 38.9004 159.865H106.797C106.985 159.862 107.172 159.897 107.347 159.967C107.522 160.037 107.682 160.141 107.816 160.274C107.95 160.406 108.057 160.563 108.13 160.737C108.203 160.911 108.24 161.098 108.24 161.286Z" fill="#E6E6E6"/>
<path d="M57.9128 139.313H51.1632C48.364 139.358 45.6324 138.452 43.4148 136.743H65.6656C63.4467 138.453 60.7134 139.359 57.9128 139.313Z" fill="#F0F0F0"/>
<path d="M94.8772 139.313H88.1276C85.3272 139.357 82.5944 138.451 80.3748 136.743H102.63C100.411 138.453 97.6778 139.359 94.8772 139.313Z" fill="#F0F0F0"/>
<path d="M74.096 115.887V132.933C74.096 133.718 74.7323 134.354 75.5172 134.354H106.792C107.577 134.354 108.214 133.718 108.214 132.933V115.887C108.214 115.102 107.577 114.466 106.792 114.466H75.5172C74.7323 114.466 74.096 115.102 74.096 115.887Z" fill="#E6E6E6"/>
<path d="M37.4792 115.892V132.937C37.4792 133.722 38.1155 134.358 38.9004 134.358H70.1756C70.9605 134.358 71.5968 133.722 71.5968 132.937V115.892C71.5968 115.107 70.9605 114.47 70.1756 114.47H38.9004C38.1155 114.47 37.4792 115.107 37.4792 115.892Z" fill="#E6E6E6"/>
<path d="M57.9128 116.754H51.1632C48.3635 116.797 45.6319 115.89 43.4148 114.18H65.6656C63.4471 115.891 60.7139 116.798 57.9128 116.754Z" fill="#F0F0F0"/>
<path d="M94.8772 116.754H88.1276C85.3267 116.797 82.5939 115.889 80.3748 114.18H102.63C100.411 115.891 97.6783 116.798 94.8772 116.754Z" fill="#F0F0F0"/>
<path d="M38.3152 168.256H34.5928V163.97H42.218L38.3152 168.256Z" fill="#F0F0F0"/>
<path d="M42.0684 97.8252C42.0684 101.099 46.6048 103.752 52.1884 103.752C57.772 103.752 62.3084 101.112 62.3084 97.8252H42.0684Z" fill="#F0F0F0"/>
<path d="M42.0684 101.583C42.0684 104.852 46.6048 107.505 52.1884 107.505C57.772 107.505 62.3084 104.865 62.3084 101.583H42.0684Z" fill="#E0E0E0"/>
<path d="M110 188.126C157.116 188.126 195.312 185.896 195.312 183.146C195.312 180.395 157.116 178.165 110 178.165C62.8837 178.165 24.6884 180.395 24.6884 183.146C24.6884 185.896 62.8837 188.126 110 188.126Z" fill="#F5F5F5"/>
<path d="M124.37 181.579H115.328L107.109 155.716C106.344 153.284 104.821 151.161 102.762 149.657C100.704 148.153 98.2186 147.346 95.6692 147.356H89.32C86.7705 147.346 84.2846 148.152 82.2261 149.656C80.1677 151.16 78.6447 153.284 77.88 155.716L69.6564 181.579H60.6364L68.9964 155.223C69.8637 152.462 71.5913 150.051 73.9265 148.342C76.2618 146.633 79.0825 145.715 81.9764 145.724H103C105.894 145.717 108.714 146.634 111.05 148.343C113.386 150.052 115.115 152.463 115.984 155.223L124.37 181.579Z" fill="#F73163"/>
<path opacity="0.4" d="M124.37 181.579H115.328L107.109 155.716C106.344 153.284 104.821 151.161 102.762 149.657C100.704 148.153 98.2186 147.346 95.6692 147.356H89.32C86.7705 147.346 84.2846 148.152 82.2261 149.656C80.1677 151.16 78.6447 153.284 77.88 155.716L69.6564 181.579H60.6364L68.9964 155.223C69.8637 152.462 71.5913 150.051 73.9265 148.342C76.2618 146.633 79.0825 145.715 81.9764 145.724H103C105.894 145.717 108.714 146.634 111.05 148.343C113.386 150.052 115.115 152.463 115.984 155.223L124.37 181.579Z" fill="#171A1C"/>
<path d="M124.37 181.579H122.663L114.444 155.716C113.679 153.284 112.156 151.161 110.097 149.657C108.039 148.153 105.553 147.346 103.004 147.356H89.32C86.7705 147.346 84.2846 148.152 82.2261 149.656C80.1676 151.16 78.6446 153.284 77.88 155.716L69.6564 181.579H67.9536L76.3136 155.223C77.1822 152.458 78.9137 150.044 81.2543 148.334C83.5949 146.625 86.4216 145.71 89.32 145.724H103.008C105.903 145.717 108.723 146.634 111.059 148.343C113.395 150.052 115.123 152.463 115.993 155.223L124.37 181.579Z" fill="#F73163"/>
<path d="M164.894 110.44C164.649 110.057 164.312 109.742 163.912 109.523C163.513 109.305 163.066 109.19 162.611 109.19H126.117C125.599 109.19 125.092 109.339 124.655 109.618C124.218 109.897 123.871 110.295 123.653 110.766L102.428 156.79H63.36C63.0035 156.79 62.6505 156.86 62.3211 156.996C61.9917 157.133 61.6924 157.333 61.4403 157.585C61.1883 157.837 60.9883 158.136 60.8519 158.466C60.7154 158.795 60.6452 159.148 60.6452 159.504C60.6452 159.861 60.7154 160.214 60.8519 160.543C60.9883 160.873 61.1883 161.172 61.4403 161.424C61.6924 161.676 61.9917 161.876 62.3211 162.013C62.6505 162.149 63.0035 162.219 63.36 162.219H140.668C141.186 162.219 141.693 162.07 142.13 161.791C142.566 161.512 142.914 161.114 143.132 160.644L165.075 113.08C165.273 112.661 165.36 112.199 165.329 111.737C165.297 111.274 165.148 110.828 164.894 110.44Z" fill="#F73163"/>
<path opacity="0.5" d="M164.894 110.44C164.649 110.057 164.312 109.742 163.912 109.523C163.513 109.305 163.066 109.19 162.611 109.19H126.117C125.599 109.19 125.092 109.339 124.655 109.618C124.218 109.897 123.871 110.295 123.653 110.766L102.428 156.79H63.36C63.0035 156.79 62.6505 156.86 62.3211 156.996C61.9917 157.133 61.6924 157.333 61.4403 157.585C61.1883 157.837 60.9883 158.136 60.8519 158.466C60.7154 158.795 60.6452 159.148 60.6452 159.504C60.6452 159.861 60.7154 160.214 60.8519 160.543C60.9883 160.873 61.1883 161.172 61.4403 161.424C61.6924 161.676 61.9917 161.876 62.3211 162.013C62.6505 162.149 63.0035 162.219 63.36 162.219H140.668C141.186 162.219 141.693 162.07 142.13 161.791C142.566 161.512 142.914 161.114 143.132 160.644L165.075 113.08C165.273 112.661 165.36 112.199 165.329 111.737C165.297 111.274 165.148 110.828 164.894 110.44Z" fill="white"/>
<path opacity="0.5" d="M140.659 162.219H99.8404C99.1204 162.219 98.4299 161.933 97.9208 161.424C97.4116 160.915 97.1256 160.224 97.1256 159.504C97.1256 158.784 97.4116 158.094 97.9208 157.585C98.4299 157.076 99.1204 156.79 99.8404 156.79H138.921L160.16 110.783C160.473 110.149 161.022 109.662 161.689 109.426C162.356 109.19 163.089 109.224 163.732 109.521C164.374 109.818 164.875 110.353 165.129 111.014C165.382 111.675 165.367 112.408 165.088 113.058L143.123 160.644C142.905 161.114 142.558 161.512 142.121 161.791C141.684 162.07 141.177 162.219 140.659 162.219Z" fill="#F73163"/>
<path d="M126.364 116.45L125.796 116.666L125.272 116.851C124.925 116.974 124.573 117.075 124.225 117.185C123.526 117.396 122.822 117.581 122.104 117.744C120.641 118.09 119.152 118.312 117.652 118.408C116.002 118.534 114.343 118.406 112.732 118.03L112.407 117.951L112.244 117.907L112.16 117.885C112.12 117.877 112.08 117.865 112.042 117.85C111.559 117.7 111.105 117.472 110.695 117.176C109.892 116.589 109.302 115.756 109.017 114.802C108.732 113.849 108.766 112.828 109.116 111.896C109.14 111.828 109.168 111.76 109.199 111.694L109.261 111.566L109.384 111.307L109.626 110.792C110.268 109.485 111.003 108.227 111.826 107.026C112.618 105.842 113.48 104.733 114.36 103.655C115.24 102.577 116.164 101.548 117.124 100.553C118.083 99.5589 119.051 98.6085 120.124 97.6801L122.514 99.8185C121.097 102.018 119.645 104.218 118.342 106.462C118.008 107.017 117.696 107.576 117.374 108.134C117.053 108.693 116.758 109.252 116.494 109.815C115.924 110.897 115.416 112.011 114.972 113.15L114.822 113.56L114.748 113.762L114.712 113.863C114.712 113.89 114.673 113.96 114.712 113.898C114.83 113.612 114.852 113.296 114.774 112.996C114.69 112.678 114.503 112.396 114.242 112.196C114.108 112.094 113.96 112.014 113.802 111.958C113.771 111.958 113.802 111.958 113.802 111.958H113.841H113.925L114.088 111.984C115.11 112.116 116.145 112.116 117.168 111.984C118.336 111.851 119.494 111.642 120.635 111.36C121.224 111.228 121.81 111.056 122.395 110.92L123.275 110.656L123.715 110.524L124.093 110.396L126.364 116.45Z" fill="#FF8B7B"/>
<path d="M132.312 112.367C130.878 109.639 126.372 108.284 117.955 110.823L118.078 120.063C118.078 120.063 136.035 119.442 132.312 112.367Z" fill="#F73163"/>
<path opacity="0.2" d="M127.323 113.802C124.819 113.194 121.603 114.831 118.501 120.054C120.164 119.957 126.342 119.5 130.016 117.643C130.174 115.799 129.501 114.33 127.323 113.802Z" fill="#171A1C"/>
<path d="M75.8736 180.968L71.4032 179.23L73.898 168.111L78.3684 169.844L75.8736 180.968Z" fill="#FF8B7B"/>
<path d="M72.16 177.232L76.5292 177.311C76.6232 177.316 76.7125 177.354 76.781 177.418C76.8495 177.483 76.8929 177.57 76.9032 177.663L77.6028 182.204C77.6196 182.31 77.614 182.417 77.5864 182.521C77.5588 182.624 77.5098 182.72 77.4426 182.803C77.3754 182.886 77.2914 182.954 77.1962 183.002C77.101 183.051 76.9967 183.079 76.89 183.084C75.0948 183.022 74.272 182.886 72.0104 182.851C70.6156 182.851 66.4136 182.934 64.4908 182.904C62.568 182.873 62.414 180.761 63.2104 180.58C66.7744 179.775 70.224 178.627 71.4032 177.5C71.6124 177.318 71.8829 177.222 72.16 177.232Z" fill="#263238"/>
<path opacity="0.2" d="M78.3684 169.849L73.898 168.111L72.6132 173.844L77.22 174.979L78.3684 169.849Z" fill="#171A1C"/>
<path d="M110.972 142.208C110.972 142.208 101.077 142.155 86.5612 145.09C76.5028 147.123 71.6012 170.729 71.6012 170.729L78.7864 173.294C78.7864 173.294 83.6264 157.252 88.2464 153.758C112.35 153.639 124.388 160.798 127.376 144.989C123.402 143.383 110.972 142.208 110.972 142.208Z" fill="#171A1C"/>
<path d="M70.1272 172.08L79.7984 174.099L80.5684 170.909L70.4836 168.595L70.1272 172.08Z" fill="#F73163"/>
<path d="M119.588 98.1553L121.849 95.6693L125.809 98.3093C125.809 98.3093 123.367 101.389 120.556 100.43L119.588 98.1553Z" fill="#FF8B7B"/>
<path d="M126.166 93.7992L127.481 96.3292L125.818 98.2916L121.849 95.6692L126.166 93.7992Z" fill="#FF8B7B"/>
<path d="M126.377 102.731L122.377 99.506C122.336 99.4735 122.302 99.4327 122.278 99.3863C122.254 99.3399 122.24 99.2889 122.236 99.2366C122.233 99.1844 122.241 99.132 122.259 99.0829C122.277 99.0338 122.305 98.9891 122.342 98.9516L129.254 91.7004C129.331 91.6181 129.436 91.5682 129.548 91.5608C129.66 91.5535 129.771 91.5892 129.857 91.6608L133.857 94.886C133.898 94.9181 133.933 94.9588 133.957 95.0052C133.982 95.0516 133.997 95.1028 134 95.1552C134.003 95.2077 133.995 95.2603 133.977 95.3095C133.958 95.3587 133.929 95.4033 133.892 95.4404L126.98 102.692C126.903 102.774 126.798 102.824 126.686 102.831C126.574 102.839 126.463 102.803 126.377 102.731Z" fill="#263238"/>
<path d="M134.125 146.133C134.125 146.133 141.429 135.379 144.98 118.048C145.172 117.086 145.155 116.094 144.929 115.139C144.702 114.185 144.273 113.29 143.669 112.517C143.066 111.744 142.302 111.11 141.431 110.659C140.56 110.208 139.602 109.95 138.622 109.903C135.102 109.718 131.388 109.67 128.37 109.683C126.896 109.688 125.464 110.172 124.289 111.062C123.113 111.951 122.259 113.199 121.854 114.616C119.123 124.142 115.479 133.382 110.972 142.208L134.125 146.133Z" fill="#F73163"/>
<path d="M131.217 117.784C131.166 117.694 131.095 117.618 131.01 117.56C130.925 117.502 130.828 117.464 130.726 117.449C130.625 117.435 130.521 117.443 130.423 117.474C130.325 117.506 130.235 117.559 130.161 117.63L126.324 120.74L125.096 117.48C125.064 117.383 125.009 117.295 124.937 117.223C124.865 117.151 124.777 117.097 124.68 117.064C124.583 117.032 124.48 117.022 124.379 117.036C124.278 117.051 124.182 117.088 124.098 117.146C123.901 117.266 123.75 117.449 123.671 117.665C123.591 117.882 123.586 118.119 123.658 118.338L124.978 121.858L120.938 125.136C120.76 125.279 120.637 125.479 120.587 125.702C120.537 125.925 120.565 126.158 120.666 126.364C120.716 126.458 120.79 126.539 120.88 126.598C120.97 126.657 121.073 126.693 121.18 126.702C121.376 126.71 121.568 126.644 121.717 126.518L125.554 123.407L126.782 126.689C126.823 126.81 126.9 126.917 127.002 126.995C127.103 127.073 127.226 127.12 127.354 127.129C127.508 127.14 127.662 127.102 127.794 127.019C127.99 126.898 128.14 126.715 128.22 126.499C128.299 126.283 128.304 126.046 128.234 125.827L126.914 122.307L130.953 119.029C131.133 118.883 131.258 118.68 131.306 118.453C131.354 118.226 131.323 117.99 131.217 117.784Z" fill="white"/>
<path opacity="0.2" d="M145.081 115.988C142.626 112.561 140.426 112.077 139.801 112.27C134.112 114.061 140.215 129.725 141.161 131.476C142.759 127.1 144.031 122.612 144.967 118.048C145.109 117.371 145.148 116.677 145.081 115.988Z" fill="#171A1C"/>
<path d="M126.72 111.514C126.573 111.514 126.429 111.474 126.304 111.399C126.178 111.324 126.074 111.216 126.004 111.087C125.934 110.959 125.901 110.813 125.907 110.667C125.913 110.52 125.958 110.378 126.038 110.255C126.144 110.092 128.704 106.234 132.572 106.911C132.677 106.93 132.778 106.969 132.869 107.026C132.959 107.084 133.037 107.158 133.099 107.246C133.16 107.334 133.204 107.433 133.227 107.537C133.25 107.642 133.253 107.75 133.234 107.855C133.216 107.96 133.177 108.061 133.119 108.152C133.062 108.242 132.987 108.32 132.899 108.382C132.812 108.443 132.713 108.487 132.608 108.51C132.504 108.533 132.396 108.536 132.29 108.517C129.496 108.024 127.42 111.118 127.402 111.157C127.326 111.268 127.224 111.358 127.105 111.421C126.987 111.483 126.854 111.515 126.72 111.514Z" fill="#263238"/>
<path d="M138.688 98.868C137.544 101.979 136.079 107.611 137.852 109.868C135.664 111.765 132.823 112.733 129.932 112.565C126.28 112.442 127.024 110.981 128.216 109.688C131.771 109.085 132.136 106.097 131.969 103.607L138.688 98.868Z" fill="#FF8B7B"/>
<path d="M122.672 110.739C122.672 112.253 123.741 113.476 125.061 113.476C126.381 113.476 127.446 112.253 127.446 110.739C127.446 109.226 126.377 108.002 125.061 108.002C123.746 108.002 122.672 109.23 122.672 110.739Z" fill="#263238"/>
<path opacity="0.4" d="M122.672 110.739C122.672 112.253 123.741 113.476 125.061 113.476C126.381 113.476 127.446 112.253 127.446 110.739C127.446 109.226 126.377 108.002 125.061 108.002C123.746 108.002 122.672 109.23 122.672 110.739Z" fill="#F73163"/>
<path d="M122.958 110.739C122.957 111.357 123.14 111.962 123.483 112.476C123.826 112.991 124.313 113.392 124.884 113.629C125.455 113.866 126.084 113.928 126.69 113.808C127.297 113.687 127.854 113.39 128.291 112.953C128.728 112.515 129.026 111.958 129.146 111.352C129.267 110.746 129.204 110.117 128.967 109.546C128.73 108.975 128.329 108.487 127.815 108.144C127.3 107.801 126.696 107.619 126.078 107.62C125.251 107.621 124.458 107.95 123.873 108.535C123.288 109.119 122.959 109.912 122.958 110.739Z" fill="#263238"/>
<path opacity="0.2" d="M135.96 100.8L132 103.598C132.053 104.183 132.053 104.773 132 105.358C133.32 105.252 135.379 103.902 135.762 102.507C135.928 101.954 135.995 101.376 135.96 100.8Z" fill="#171A1C"/>
<path d="M139.96 94.5428C138.939 98.6656 138.552 101.143 136.039 102.978C135.245 103.595 134.296 103.982 133.297 104.097C132.298 104.211 131.286 104.049 130.373 103.628C129.46 103.206 128.68 102.542 128.119 101.707C127.557 100.872 127.236 99.8993 127.191 98.8944C126.98 95.04 128.682 88.9372 133.096 87.824C137.443 86.7284 140.98 90.4156 139.96 94.5428Z" fill="#FF8B7B"/>
<path d="M138.068 91.3924C136.541 89.716 129.268 92.4176 128.445 88.7084C127.622 84.9992 131.771 84.1412 133.399 85.8836C134.323 86.8736 136.642 84.92 137.672 86.4248C139.392 88.9372 141.896 87.5776 142.617 89.9448C143.216 91.9028 140.087 93.6012 138.068 91.3924Z" fill="#263238"/>
<path d="M141.192 91.8369C141.192 91.8369 142.67 90.8425 144.003 93.0469C143.144 92.4813 142.193 92.0717 141.192 91.8369Z" fill="#263238"/>
<path d="M141.359 91.2648L139.55 90.5212C137.016 91.4452 137.082 93.2536 137.082 94.952C137.087 96.2002 136.6 97.4001 135.727 98.2916L138.081 99.044C138.081 99.044 146.423 95.5196 141.359 91.2648Z" fill="#263238"/>
<path d="M140.637 99.6292C139.855 100.207 138.884 100.466 137.918 100.355C136.651 100.197 136.558 98.9824 137.368 98.0716C138.09 97.2532 139.625 96.3468 140.677 96.9672C141.728 97.5876 141.592 98.9164 140.637 99.6292Z" fill="#FF8B7B"/>
<path d="M132.942 94.6792C132.88 95.018 132.647 95.2688 132.422 95.2424C132.198 95.216 132.07 94.9124 132.132 94.5736C132.194 94.2348 132.427 93.984 132.647 94.0148C132.867 94.0456 133.003 94.3404 132.942 94.6792Z" fill="#263238"/>
<path d="M128.845 94.2348C128.784 94.5736 128.55 94.8244 128.326 94.7936C128.102 94.7628 127.974 94.468 128.036 94.1292C128.097 93.7904 128.33 93.5396 128.555 93.5704C128.779 93.6012 128.92 93.896 128.845 94.2348Z" fill="#263238"/>
<path d="M130.284 94.6C130.284 94.6 129.149 96.4524 128.119 97.284C128.621 97.922 129.694 97.8032 129.694 97.8032L130.284 94.6Z" fill="#FF5652"/>
<path d="M131.146 99.5061C131.942 99.5103 132.707 99.2041 133.28 98.6525C133.289 98.6429 133.296 98.6318 133.3 98.6196C133.304 98.6075 133.306 98.5947 133.306 98.5818C133.305 98.5689 133.302 98.5563 133.297 98.5446C133.291 98.533 133.283 98.5225 133.274 98.5139C133.264 98.5052 133.253 98.4985 133.241 98.4941C133.229 98.4898 133.216 98.4878 133.203 98.4885C133.19 98.4891 133.178 98.4922 133.166 98.4977C133.154 98.5032 133.144 98.5109 133.135 98.5205C132.817 98.8183 132.436 99.041 132.02 99.172C131.604 99.3029 131.164 99.3389 130.733 99.2773C130.706 99.2745 130.678 99.2821 130.656 99.2983C130.634 99.3146 130.619 99.3385 130.614 99.3653C130.611 99.3781 130.612 99.3913 130.615 99.404C130.618 99.4167 130.623 99.4286 130.631 99.439C130.639 99.4494 130.649 99.458 130.66 99.4643C130.672 99.4705 130.685 99.4743 130.698 99.4753C130.846 99.4959 130.996 99.5062 131.146 99.5061Z" fill="#263238"/>
<path d="M134.64 93.72C134.675 93.719 134.71 93.71 134.741 93.6936C134.788 93.6683 134.824 93.6258 134.84 93.575C134.857 93.5241 134.853 93.4689 134.829 93.4208C134.688 93.1381 134.478 92.8951 134.219 92.7138C133.96 92.5325 133.66 92.4186 133.346 92.3824C133.292 92.3787 133.238 92.3964 133.196 92.4317C133.154 92.467 133.128 92.5172 133.122 92.5716C133.119 92.5975 133.121 92.6238 133.129 92.6488C133.136 92.6737 133.149 92.6968 133.166 92.7167C133.183 92.7365 133.204 92.7526 133.227 92.764C133.251 92.7754 133.276 92.7818 133.302 92.7828C133.55 92.8152 133.786 92.9085 133.989 93.0544C134.191 93.2003 134.355 93.3943 134.464 93.6188C134.482 93.6497 134.507 93.6753 134.538 93.6931C134.569 93.7109 134.604 93.7202 134.64 93.72Z" fill="#263238"/>
<path d="M128.163 92.752C128.196 92.7572 128.23 92.7547 128.262 92.7448C128.294 92.7349 128.324 92.7178 128.348 92.6948C128.527 92.5072 128.748 92.3638 128.992 92.276C129.237 92.1882 129.498 92.1584 129.756 92.1888C129.809 92.1969 129.864 92.1847 129.909 92.1546C129.954 92.1244 129.985 92.0785 129.998 92.026C130.004 92.0012 130.006 91.9752 130.002 91.9498C129.998 91.9244 129.989 91.9 129.976 91.8782C129.962 91.8564 129.944 91.8375 129.923 91.8229C129.902 91.8082 129.878 91.798 129.853 91.7928C129.528 91.7524 129.198 91.7873 128.889 91.8949C128.58 92.0025 128.3 92.1799 128.071 92.4132C128.052 92.4313 128.036 92.4531 128.026 92.4774C128.015 92.5016 128.01 92.5277 128.01 92.554C128.01 92.5804 128.015 92.6065 128.026 92.6307C128.036 92.6549 128.052 92.6767 128.071 92.6948C128.095 92.7229 128.127 92.7429 128.163 92.752Z" fill="#263238"/>
<path d="M57.9304 181.887L55.4092 177.808L64.1036 170.434L66.6204 174.513L57.9304 181.887Z" fill="#FF8B7B"/>
<path d="M56.8876 176.396L60.9268 179.476C60.9933 179.536 61.0361 179.618 61.0474 179.707C61.0587 179.795 61.0378 179.885 60.9884 179.96L58.7356 183.942C58.6904 184.036 58.6261 184.12 58.5466 184.189C58.4672 184.257 58.3743 184.308 58.2741 184.338C58.1739 184.368 58.0685 184.377 57.9646 184.364C57.8607 184.351 57.7607 184.317 57.6708 184.263C56.3948 183.242 55.5192 182.424 53.8824 181.183C52.8792 180.413 49.7376 178.209 48.3472 177.14C46.9568 176.07 48.1316 174.315 48.8224 174.601C51.9244 175.899 54.6084 176.466 56.1484 176.224C56.2768 176.201 56.4087 176.204 56.5359 176.233C56.6631 176.263 56.7828 176.318 56.8876 176.396Z" fill="#263238"/>
<path opacity="0.2" d="M66.6204 174.517L64.0992 170.438L59.62 174.24L62.612 177.918L66.6204 174.517Z" fill="#171A1C"/>
<path d="M117.181 143.26C117.181 143.26 102.221 145.9 88.1408 150.449C78.3772 153.604 61.38 171.653 61.38 171.653L65.56 178.028C65.56 178.028 86.5876 162.866 90.7984 158.866C114.734 156.024 132.95 162.188 134.13 146.133C129.985 144.984 117.181 143.26 117.181 143.26Z" fill="#263238"/>
<path d="M59.3692 171.838L65.868 179.274L68.4068 177.192L61.7496 169.268L59.3692 171.838Z" fill="#F73163"/>
<path d="M145.354 115.98C146.099 119.195 146.677 122.446 147.088 125.721C147.29 127.371 147.453 129.039 147.528 130.768C147.558 131.648 147.567 132.528 147.528 133.448C147.501 133.918 147.462 134.398 147.382 134.917C147.301 135.515 147.166 136.104 146.978 136.677C146.837 137.082 146.653 137.47 146.428 137.834C146.245 138.117 146.042 138.386 145.82 138.64C145.424 139.089 144.981 139.496 144.5 139.854C143.69 140.451 142.817 140.958 141.896 141.363C140.268 142.064 138.574 142.601 136.84 142.965C133.567 143.669 130.231 144.036 126.883 144.06L126.54 140.875C129.561 140.153 132.543 139.272 135.472 138.235C136.839 137.76 138.163 137.172 139.432 136.475C139.958 136.179 140.449 135.824 140.897 135.419C141.06 135.279 141.208 135.121 141.337 134.948C141.374 134.894 141.406 134.836 141.434 134.776C141.376 134.856 141.368 134.878 141.372 134.838C141.406 134.634 141.43 134.428 141.442 134.222C141.442 133.94 141.464 133.619 141.442 133.285C141.442 132.616 141.394 131.89 141.324 131.151C141.183 129.677 140.972 128.15 140.73 126.619C140.241 123.561 139.647 120.428 139.036 117.379L145.354 115.98Z" fill="#FF8B7B"/>
<path d="M140.232 110.18C141.112 110.414 145.103 111.016 147.941 120.771L138.349 124.511C138.349 124.511 131.71 107.901 140.232 110.18Z" fill="#F73163"/>
<path d="M136.941 112.235C136.942 112.853 136.76 113.458 136.417 113.972C136.074 114.486 135.587 114.887 135.016 115.125C134.445 115.362 133.817 115.424 133.21 115.304C132.604 115.184 132.047 114.887 131.61 114.45C131.172 114.013 130.874 113.457 130.754 112.851C130.633 112.245 130.694 111.616 130.931 111.045C131.167 110.474 131.567 109.986 132.081 109.642C132.595 109.299 133.199 109.116 133.817 109.116C134.227 109.115 134.633 109.195 135.012 109.352C135.391 109.508 135.736 109.738 136.026 110.028C136.316 110.317 136.546 110.662 136.703 111.04C136.86 111.419 136.941 111.825 136.941 112.235Z" fill="#263238"/>
<path d="M133.654 113.925C133.462 113.925 133.275 113.856 133.128 113.732C132.981 113.607 132.883 113.435 132.851 113.245C132.82 113.055 132.857 112.859 132.955 112.694C133.054 112.528 133.208 112.403 133.39 112.341C133.443 112.341 136.937 111.087 137.152 108.258C137.169 108.042 137.27 107.842 137.434 107.702C137.598 107.561 137.81 107.491 138.026 107.507C138.241 107.524 138.441 107.625 138.582 107.789C138.722 107.953 138.792 108.165 138.776 108.381C138.477 112.292 134.103 113.819 133.936 113.885C133.845 113.913 133.75 113.926 133.654 113.925Z" fill="#263238"/>
<path d="M137.227 112.235C137.227 113.744 136.158 114.972 134.838 114.972C133.518 114.972 132.453 113.744 132.453 112.235C132.453 110.726 133.518 109.498 134.838 109.498C136.158 109.498 137.227 110.722 137.227 112.235Z" fill="#263238"/>
<path opacity="0.4" d="M137.227 112.235C137.227 113.744 136.158 114.972 134.838 114.972C133.518 114.972 132.453 113.744 132.453 112.235C132.453 110.726 133.518 109.498 134.838 109.498C136.158 109.498 137.227 110.722 137.227 112.235Z" fill="#F73163"/>
<path d="M127.16 140.73L123.438 141.262L125.198 145.768C125.198 145.768 129.263 144.729 129.246 142.688L128.366 141.275C128.237 141.079 128.055 140.924 127.842 140.828C127.628 140.731 127.392 140.697 127.16 140.73Z" fill="#FF8B7B"/>
<path d="M119.486 143.519L121.814 147.184L125.206 145.768L123.438 141.262L119.486 143.519Z" fill="#FF8B7B"/>
<path d="M83.7408 144.65H130.451C130.735 144.652 131.006 144.766 131.206 144.967C131.406 145.168 131.519 145.44 131.52 145.724H82.6804C82.6815 145.442 82.7932 145.171 82.9914 144.97C83.1897 144.77 83.4587 144.655 83.7408 144.65Z" fill="#F73163"/>
<path opacity="0.2" d="M83.7408 144.65H130.451C130.735 144.652 131.006 144.766 131.206 144.967C131.406 145.168 131.519 145.44 131.52 145.724H82.6804C82.6815 145.442 82.7932 145.171 82.9914 144.97C83.1897 144.77 83.4587 144.655 83.7408 144.65Z" fill="white"/>
<path opacity="0.4" d="M116.82 144.65H130.46C130.744 144.652 131.015 144.766 131.215 144.967C131.415 145.168 131.528 145.44 131.529 145.724H115.746C115.748 145.439 115.861 145.167 116.062 144.966C116.263 144.765 116.536 144.651 116.82 144.65Z" fill="#171A1C"/>
<path d="M78.1088 120.771H110.805C111.345 120.797 111.862 120.996 112.281 121.337C112.7 121.678 112.998 122.144 113.133 122.668L117.682 142.754C117.75 142.978 117.763 143.216 117.72 143.447C117.677 143.677 117.579 143.895 117.436 144.08C117.292 144.266 117.106 144.414 116.893 144.513C116.681 144.612 116.447 144.659 116.213 144.65H83.5164C82.976 144.625 82.4579 144.427 82.0382 144.086C81.6185 143.744 81.3193 143.278 81.1844 142.754L76.6392 122.668C76.5707 122.443 76.5571 122.205 76.5996 121.974C76.6421 121.743 76.7394 121.525 76.8834 121.339C77.0273 121.153 77.2137 121.005 77.427 120.906C77.6402 120.807 77.874 120.761 78.1088 120.771Z" fill="#F73163"/>
<path opacity="0.2" d="M78.1088 120.771H110.805C111.345 120.797 111.862 120.996 112.281 121.337C112.7 121.678 112.998 122.144 113.133 122.668L117.682 142.754C117.75 142.978 117.763 143.216 117.72 143.447C117.677 143.677 117.579 143.895 117.436 144.08C117.292 144.266 117.106 144.414 116.893 144.513C116.681 144.612 116.447 144.659 116.213 144.65H83.5164C82.976 144.625 82.4579 144.427 82.0382 144.086C81.6185 143.744 81.3193 143.278 81.1844 142.754L76.6392 122.668C76.5707 122.443 76.5571 122.205 76.5996 121.974C76.6421 121.743 76.7394 121.525 76.8834 121.339C77.0273 121.153 77.2137 121.005 77.427 120.906C77.6402 120.807 77.874 120.761 78.1088 120.771Z" fill="white"/>
<path opacity="0.4" d="M116.763 143.748L111.848 122.034C111.829 121.94 111.842 121.843 111.883 121.757C111.925 121.671 111.993 121.6 112.078 121.557C112.163 121.513 112.26 121.498 112.354 121.514C112.449 121.531 112.535 121.577 112.6 121.647C112.861 121.939 113.045 122.291 113.137 122.672L117.678 142.754C117.775 143.123 117.738 143.514 117.572 143.858C117.529 143.935 117.464 143.996 117.385 144.035C117.306 144.074 117.218 144.089 117.13 144.077C117.043 144.065 116.962 144.028 116.896 143.969C116.831 143.91 116.784 143.833 116.763 143.748Z" fill="#171A1C"/>
<path d="M162.325 181.579H153.283L145.064 155.716C144.298 153.284 142.775 151.161 140.717 149.657C138.659 148.153 136.173 147.346 133.624 147.356H127.279C124.729 147.346 122.244 148.153 120.186 149.657C118.127 151.161 116.604 153.284 115.839 155.716L107.62 181.579H98.5908L106.951 155.223C107.817 152.463 109.544 150.052 111.879 148.343C114.213 146.633 117.033 145.716 119.926 145.724H140.95C143.844 145.716 146.665 146.633 149.001 148.342C151.337 150.051 153.065 152.462 153.934 155.223L162.325 181.579Z" fill="#F73163"/>
<path opacity="0.4" d="M162.325 181.579H153.283L145.064 155.716C144.298 153.284 142.775 151.161 140.717 149.657C138.659 148.153 136.173 147.346 133.624 147.356H127.279C124.729 147.346 122.244 148.153 120.186 149.657C118.127 151.161 116.604 153.284 115.839 155.716L107.62 181.579H98.5908L106.951 155.223C107.817 152.463 109.544 150.052 111.879 148.343C114.213 146.633 117.033 145.716 119.926 145.724H140.95C143.844 145.716 146.665 146.633 149.001 148.342C151.337 150.051 153.065 152.462 153.934 155.223L162.325 181.579Z" fill="#171A1C"/>
<path d="M162.325 181.579H160.6L152.398 155.716C151.633 153.284 150.11 151.161 148.052 149.657C145.993 148.153 143.508 147.346 140.958 147.356H127.279C124.729 147.346 122.244 148.153 120.186 149.657C118.127 151.161 116.604 153.284 115.839 155.716L107.62 181.579H105.912L114.272 155.223C115.139 152.463 116.866 150.052 119.2 148.343C121.535 146.633 124.355 145.716 127.248 145.724H140.936C143.831 145.716 146.652 146.633 148.988 148.342C151.324 150.051 153.052 152.462 153.921 155.223L162.325 181.579Z" fill="#F73163"/>
</svg>
