<svg width="32" height="32" viewBox="0 0 32 32" fill="none" xmlns="http://www.w3.org/2000/svg">
<circle cx="16" cy="16" r="15.5" fill="#F73163" stroke="#F73163"/>
<path d="M24 11L16 7L8 11M24 11L16 15M24 11V21L16 25M8 11L16 15M8 11V21L16 25M16 15V25" stroke="white" stroke-width="2" stroke-linecap="round" stroke-linejoin="round"/>
<path d="M20 13H21V12.4L20.4706 12.1176L20 13ZM19 18C19 18.5523 19.4477 19 20 19C20.5523 19 21 18.5523 21 18H19ZM12.0294 9.88235L19.5294 13.8824L20.4706 12.1176L12.9706 8.11765L12.0294 9.88235ZM19 13V18H21V13H19Z" fill="white"/>
</svg>
