<svg width="10" height="14" viewBox="0 0 10 14" fill="none" xmlns="http://www.w3.org/2000/svg">
<path fill-rule="evenodd" clip-rule="evenodd" d="M8 4.75C8 6.40683 6.65683 7.75 5 7.75C3.34317 7.75 2 6.40683 2 4.75C2 3.09317 3.34317 1.75 5 1.75C6.65683 1.75 8 3.09317 8 4.75ZM6.07587 9.12055C8.04163 8.6383 9.5 6.86447 9.5 4.75C9.5 2.26472 7.48527 0.25 5 0.25C2.51472 0.25 0.5 2.26472 0.5 4.75C0.5 6.86447 1.95838 8.6383 3.92413 9.12055L4.25262 13.0623C4.28495 13.451 4.60992 13.75 5 13.75C5.39008 13.75 5.71505 13.451 5.74738 13.0623L6.07587 9.12055Z" fill="#F73163"/>
</svg>
