<svg width="25" height="24" viewBox="0 0 25 24" fill="none" xmlns="http://www.w3.org/2000/svg">
<mask id="path-1-inside-1" fill="white">
<path fill-rule="evenodd" clip-rule="evenodd" d="M11.5642 2.00205L13.6867 2.00195C13.7509 2.00493 13.8072 2.01227 13.8863 2.0295C14.4668 2.15589 14.6875 2.36432 15.2277 3.6408L15.3157 3.85137L15.6552 4.69254L15.6831 4.70402L16.1205 4.50601C17.0732 4.08002 17.5642 3.90058 17.8944 3.85052L17.9628 3.84173L18.0875 3.835C18.3848 3.835 18.6876 3.94031 18.9194 4.12366L19.029 4.22171L20.3859 5.57302L20.4803 5.67271C20.9065 6.14224 20.9463 6.47511 20.4748 7.68829L20.3179 8.07967L19.9481 8.95464L19.9552 8.97172L20.8023 9.28806L21.2107 9.44946C22.2656 9.88078 22.4824 10.1107 22.6234 10.6387C22.6518 10.7452 22.6619 10.8177 22.6652 10.9078L22.6666 11.0056V12.9133C22.6666 13.0489 22.662 13.1255 22.6286 13.2595C22.4882 13.8232 22.2798 14.0379 21.0121 14.5734L20.8029 14.6607L19.9676 14.9978L19.9618 15.0119L20.2638 15.6718C21.015 17.3413 21.0412 17.7073 20.5475 18.2571L20.4858 18.3241L19.0929 19.7159C18.8435 19.968 18.4883 20.1068 18.1445 20.1068C17.8526 20.1068 17.3941 19.968 16.6125 19.6546L16.1941 19.4832L15.7175 19.2816L15.6902 19.2929L15.4439 19.9534C14.841 21.542 14.6344 21.7999 14.015 21.9597C13.9235 21.9833 13.858 21.9934 13.7837 21.9975L13.6611 22.0001H11.7522C11.6331 22.0001 11.5659 21.9965 11.4475 21.9709C10.8673 21.8451 10.6458 21.6362 10.1045 20.359L10.0163 20.1483L9.67624 19.3067L9.65008 19.2958L9.01479 19.5814C7.99864 20.0288 7.55843 20.1649 7.2447 20.1649C6.9509 20.1649 6.65172 20.0617 6.41372 19.8766L6.30013 19.7773L4.94507 18.424L4.79033 18.2553C4.41872 17.818 4.40045 17.479 4.85658 16.312L5.09426 15.7278L5.38441 15.0458L5.37836 15.0311L4.72148 14.7863C3.40372 14.2863 2.99762 14.056 2.80464 13.6355L2.75244 13.5031L2.70884 13.3567C2.68416 13.263 2.67363 13.1959 2.66936 13.1196L2.66664 12.9936V11.0848C2.66664 10.9481 2.67138 10.8708 2.70541 10.7356C2.8323 10.2317 3.0124 10.0078 3.96111 9.58267L4.3543 9.41288L5.36397 9.00457L5.37089 8.98776L4.99338 8.15484C4.37047 6.73997 4.31888 6.30917 4.71189 5.82802L4.76567 5.76489L4.893 5.62993L6.2428 4.28319C6.4901 4.03452 6.84384 3.89433 7.18814 3.89433C7.4344 3.89433 7.79598 3.99177 8.37469 4.21096L8.9569 4.44176L9.61692 4.71838L9.64398 4.70713L9.89213 4.04231C10.5007 2.44232 10.7179 2.17475 11.3598 2.03105C11.4408 2.01292 11.4985 2.00519 11.5642 2.00205ZM13.1896 4.00006H12.0747L11.9175 4.36859C11.8578 4.5151 11.7904 4.68623 11.7144 4.88487L11.3659 5.817C11.2823 6.03768 11.124 6.22046 10.9204 6.33479L10.8149 6.3861L9.99584 6.72696C9.78904 6.81301 9.56062 6.82667 9.34704 6.76806L9.22096 6.72422L8.25189 6.31575L7.72845 6.10701L7.37662 5.97716L6.58641 6.76558L6.67941 7.00048C6.71575 7.08896 6.75758 7.18788 6.80527 7.29809L6.96634 7.66336L7.3703 8.54646C7.46706 8.75675 7.48729 8.9927 7.43017 9.21416L7.38661 9.34499L7.05167 10.1589C6.96299 10.3744 6.80239 10.551 6.59906 10.6599L6.49397 10.7086L5.4064 11.1458L4.86273 11.3788L4.66664 11.4696V12.5998L4.90127 12.7015C4.9901 12.7387 5.08985 12.7792 5.20141 12.8234L5.57243 12.9673L6.47396 13.3021C6.70125 13.3841 6.88985 13.545 7.00682 13.7533L7.05919 13.8613L7.39418 14.6729C7.4802 14.8813 7.49279 15.1113 7.4323 15.3258L7.38724 15.4524L6.99846 16.3647L6.75464 16.9665L6.63585 17.2861L7.42612 18.0753L7.66143 17.9823C7.7481 17.947 7.84309 17.9074 7.94664 17.8632L8.67249 17.5431L9.19594 17.3022C9.41499 17.1975 9.66327 17.1767 9.8946 17.2409L10.0086 17.2801L10.8325 17.6203C11.0509 17.7105 11.2291 17.8745 11.3373 18.0817L11.3855 18.1888L11.5905 18.7062L11.8823 19.4158L12.0512 19.8035L12.1428 20.0001H13.261L13.4207 19.6236L13.6287 19.0925L13.9673 18.1845C14.0509 17.9618 14.2104 17.7775 14.4158 17.6627L14.5222 17.6113L15.3426 17.2727C15.547 17.1884 15.7724 17.1746 15.9836 17.2314L16.1083 17.2739L16.8809 17.6016L17.4447 17.8312L17.7533 17.9502L17.9569 18.0239L18.7481 17.2342L18.5956 16.8579L18.367 16.3364L17.9622 15.454C17.8651 15.2433 17.8448 15.0069 17.9022 14.785L17.9459 14.6539L18.2803 13.8435C18.3685 13.6297 18.5276 13.4542 18.729 13.3453L18.8331 13.2965L19.7542 12.9263L20.2244 12.7291L20.3537 12.6729L20.6666 12.5298V11.4007L20.3529 11.2668L19.9281 11.0987L18.8557 10.6995C18.6289 10.617 18.441 10.4558 18.3246 10.2474L18.2725 10.1394L17.9381 9.32458C17.8528 9.1167 17.8404 8.88745 17.9007 8.67361L17.9456 8.54745L18.2561 7.82156C18.3369 7.6296 18.4072 7.45937 18.468 7.30892L18.5769 7.03378L18.6956 6.71227L17.905 5.92488L17.6695 6.01804C17.5393 6.07114 17.3901 6.13416 17.2208 6.20775L17.0448 6.28489L16.122 6.70346C15.912 6.79966 15.6767 6.81967 15.4557 6.7627L15.3252 6.71927L14.5018 6.3808C14.2862 6.2922 14.1096 6.13165 14.0006 5.92835L13.9519 5.82327L13.6608 5.09488L13.4498 4.58458L13.3329 4.31319L13.1896 4.00006ZM12.6671 8.00006C14.8732 8.00006 16.6666 9.79308 16.6666 11.9992C16.6666 14.2055 14.8731 16.0001 12.6671 16.0001C10.4605 16.0001 8.66664 14.2058 8.66664 11.9992C8.66664 9.79276 10.4603 8.00006 12.6671 8.00006ZM12.6671 10.0001C11.5646 10.0001 10.6666 10.8976 10.6666 11.9992C10.6666 13.1014 11.5651 14.0001 12.6671 14.0001C13.7682 14.0001 14.6666 13.1012 14.6666 11.9992C14.6666 10.8978 13.7687 10.0001 12.6671 10.0001Z"/>
</mask>
<path fill-rule="evenodd" clip-rule="evenodd" d="M11.5642 2.00205L13.6867 2.00195C13.7509 2.00493 13.8072 2.01227 13.8863 2.0295C14.4668 2.15589 14.6875 2.36432 15.2277 3.6408L15.3157 3.85137L15.6552 4.69254L15.6831 4.70402L16.1205 4.50601C17.0732 4.08002 17.5642 3.90058 17.8944 3.85052L17.9628 3.84173L18.0875 3.835C18.3848 3.835 18.6876 3.94031 18.9194 4.12366L19.029 4.22171L20.3859 5.57302L20.4803 5.67271C20.9065 6.14224 20.9463 6.47511 20.4748 7.68829L20.3179 8.07967L19.9481 8.95464L19.9552 8.97172L20.8023 9.28806L21.2107 9.44946C22.2656 9.88078 22.4824 10.1107 22.6234 10.6387C22.6518 10.7452 22.6619 10.8177 22.6652 10.9078L22.6666 11.0056V12.9133C22.6666 13.0489 22.662 13.1255 22.6286 13.2595C22.4882 13.8232 22.2798 14.0379 21.0121 14.5734L20.8029 14.6607L19.9676 14.9978L19.9618 15.0119L20.2638 15.6718C21.015 17.3413 21.0412 17.7073 20.5475 18.2571L20.4858 18.3241L19.0929 19.7159C18.8435 19.968 18.4883 20.1068 18.1445 20.1068C17.8526 20.1068 17.3941 19.968 16.6125 19.6546L16.1941 19.4832L15.7175 19.2816L15.6902 19.2929L15.4439 19.9534C14.841 21.542 14.6344 21.7999 14.015 21.9597C13.9235 21.9833 13.858 21.9934 13.7837 21.9975L13.6611 22.0001H11.7522C11.6331 22.0001 11.5659 21.9965 11.4475 21.9709C10.8673 21.8451 10.6458 21.6362 10.1045 20.359L10.0163 20.1483L9.67624 19.3067L9.65008 19.2958L9.01479 19.5814C7.99864 20.0288 7.55843 20.1649 7.2447 20.1649C6.9509 20.1649 6.65172 20.0617 6.41372 19.8766L6.30013 19.7773L4.94507 18.424L4.79033 18.2553C4.41872 17.818 4.40045 17.479 4.85658 16.312L5.09426 15.7278L5.38441 15.0458L5.37836 15.0311L4.72148 14.7863C3.40372 14.2863 2.99762 14.056 2.80464 13.6355L2.75244 13.5031L2.70884 13.3567C2.68416 13.263 2.67363 13.1959 2.66936 13.1196L2.66664 12.9936V11.0848C2.66664 10.9481 2.67138 10.8708 2.70541 10.7356C2.8323 10.2317 3.0124 10.0078 3.96111 9.58267L4.3543 9.41288L5.36397 9.00457L5.37089 8.98776L4.99338 8.15484C4.37047 6.73997 4.31888 6.30917 4.71189 5.82802L4.76567 5.76489L4.893 5.62993L6.2428 4.28319C6.4901 4.03452 6.84384 3.89433 7.18814 3.89433C7.4344 3.89433 7.79598 3.99177 8.37469 4.21096L8.9569 4.44176L9.61692 4.71838L9.64398 4.70713L9.89213 4.04231C10.5007 2.44232 10.7179 2.17475 11.3598 2.03105C11.4408 2.01292 11.4985 2.00519 11.5642 2.00205ZM13.1896 4.00006H12.0747L11.9175 4.36859C11.8578 4.5151 11.7904 4.68623 11.7144 4.88487L11.3659 5.817C11.2823 6.03768 11.124 6.22046 10.9204 6.33479L10.8149 6.3861L9.99584 6.72696C9.78904 6.81301 9.56062 6.82667 9.34704 6.76806L9.22096 6.72422L8.25189 6.31575L7.72845 6.10701L7.37662 5.97716L6.58641 6.76558L6.67941 7.00048C6.71575 7.08896 6.75758 7.18788 6.80527 7.29809L6.96634 7.66336L7.3703 8.54646C7.46706 8.75675 7.48729 8.9927 7.43017 9.21416L7.38661 9.34499L7.05167 10.1589C6.96299 10.3744 6.80239 10.551 6.59906 10.6599L6.49397 10.7086L5.4064 11.1458L4.86273 11.3788L4.66664 11.4696V12.5998L4.90127 12.7015C4.9901 12.7387 5.08985 12.7792 5.20141 12.8234L5.57243 12.9673L6.47396 13.3021C6.70125 13.3841 6.88985 13.545 7.00682 13.7533L7.05919 13.8613L7.39418 14.6729C7.4802 14.8813 7.49279 15.1113 7.4323 15.3258L7.38724 15.4524L6.99846 16.3647L6.75464 16.9665L6.63585 17.2861L7.42612 18.0753L7.66143 17.9823C7.7481 17.947 7.84309 17.9074 7.94664 17.8632L8.67249 17.5431L9.19594 17.3022C9.41499 17.1975 9.66327 17.1767 9.8946 17.2409L10.0086 17.2801L10.8325 17.6203C11.0509 17.7105 11.2291 17.8745 11.3373 18.0817L11.3855 18.1888L11.5905 18.7062L11.8823 19.4158L12.0512 19.8035L12.1428 20.0001H13.261L13.4207 19.6236L13.6287 19.0925L13.9673 18.1845C14.0509 17.9618 14.2104 17.7775 14.4158 17.6627L14.5222 17.6113L15.3426 17.2727C15.547 17.1884 15.7724 17.1746 15.9836 17.2314L16.1083 17.2739L16.8809 17.6016L17.4447 17.8312L17.7533 17.9502L17.9569 18.0239L18.7481 17.2342L18.5956 16.8579L18.367 16.3364L17.9622 15.454C17.8651 15.2433 17.8448 15.0069 17.9022 14.785L17.9459 14.6539L18.2803 13.8435C18.3685 13.6297 18.5276 13.4542 18.729 13.3453L18.8331 13.2965L19.7542 12.9263L20.2244 12.7291L20.3537 12.6729L20.6666 12.5298V11.4007L20.3529 11.2668L19.9281 11.0987L18.8557 10.6995C18.6289 10.617 18.441 10.4558 18.3246 10.2474L18.2725 10.1394L17.9381 9.32458C17.8528 9.1167 17.8404 8.88745 17.9007 8.67361L17.9456 8.54745L18.2561 7.82156C18.3369 7.6296 18.4072 7.45937 18.468 7.30892L18.5769 7.03378L18.6956 6.71227L17.905 5.92488L17.6695 6.01804C17.5393 6.07114 17.3901 6.13416 17.2208 6.20775L17.0448 6.28489L16.122 6.70346C15.912 6.79966 15.6767 6.81967 15.4557 6.7627L15.3252 6.71927L14.5018 6.3808C14.2862 6.2922 14.1096 6.13165 14.0006 5.92835L13.9519 5.82327L13.6608 5.09488L13.4498 4.58458L13.3329 4.31319L13.1896 4.00006ZM12.6671 8.00006C14.8732 8.00006 16.6666 9.79308 16.6666 11.9992C16.6666 14.2055 14.8731 16.0001 12.6671 16.0001C10.4605 16.0001 8.66664 14.2058 8.66664 11.9992C8.66664 9.79276 10.4603 8.00006 12.6671 8.00006ZM12.6671 10.0001C11.5646 10.0001 10.6666 10.8976 10.6666 11.9992C10.6666 13.1014 11.5651 14.0001 12.6671 14.0001C13.7682 14.0001 14.6666 13.1012 14.6666 11.9992C14.6666 10.8978 13.7687 10.0001 12.6671 10.0001Z" fill="currentColor" stroke="currentColor" stroke-width="2" mask="url(#path-1-inside-1)"/>
</svg>
