<svg width="24" height="24" viewBox="0 0 24 24" fill="none" xmlns="http://www.w3.org/2000/svg">
<path d="M11.5754 3.68296C11.771 3.3683 12.229 3.3683 12.4246 3.68296L14.908 7.6771C14.9768 7.78781 15.0862 7.86725 15.2127 7.89851L19.7788 9.02606C20.1385 9.11489 20.28 9.55044 20.0412 9.83374L17.01 13.4298C16.9259 13.5295 16.8842 13.658 16.8936 13.788L17.2322 18.4791C17.2588 18.8486 16.8884 19.1178 16.5451 18.9782L12.1883 17.2066C12.0676 17.1575 11.9324 17.1575 11.8117 17.2066L7.45484 18.9782C7.11161 19.1178 6.74111 18.8486 6.76779 18.4791L7.1064 13.788C7.11579 13.658 7.07402 13.5295 6.99 13.4298L3.95875 9.83374C3.71995 9.55044 3.86147 9.11489 4.22118 9.02606L8.78723 7.89851C8.91379 7.86725 9.02314 7.78781 9.09198 7.6771L11.5754 3.68296Z" fill="currentColor"/>
</svg>
