<svg width="24" height="24" viewBox="0 0 24 24" fill="none" xmlns="http://www.w3.org/2000/svg">
<path d="M11.4349 16.2802L7.82314 17.749L8.10386 13.86C8.13201 13.47 8.00671 13.0843 7.75465 12.7853L5.2417 9.80406L9.02702 8.86929C9.40671 8.77553 9.73476 8.53719 9.94126 8.20506L12 4.89386L14.0587 8.20506C14.2652 8.53719 14.5933 8.77553 14.9729 8.86929L18.7583 9.80406L16.2453 12.7853C15.9933 13.0843 15.868 13.47 15.8961 13.86L16.1768 17.749L12.565 16.2802C12.2027 16.1329 11.7972 16.1329 11.4349 16.2802Z" stroke="currentColor" stroke-width="2"/>
<path fill-rule="evenodd" clip-rule="evenodd" d="M12 3.4469C11.8366 3.4469 11.6732 3.52556 11.5753 3.68289L9.09198 7.67703C9.02315 7.78774 8.9138 7.86719 8.78724 7.89844L4.22118 9.02601C3.86147 9.11484 3.71995 9.55038 3.95876 9.83368L6.99001 13.4298C7.07402 13.5295 7.11579 13.658 7.10641 13.788L6.7678 18.479C6.74112 18.8486 7.11162 19.1178 7.45484 18.9782L11.8116 17.2066C11.872 17.182 11.936 17.1697 12 17.1697V3.4469Z" fill="currentColor"/>
</svg>
