<svg width="24" height="24" viewBox="0 0 24 24" fill="none" xmlns="http://www.w3.org/2000/svg">
<path fill-rule="evenodd" clip-rule="evenodd" d="M11.594 2.08712C11.8155 1.98867 12.064 1.97461 12.2932 2.04493L12.406 2.08712L21.406 6.0859C21.768 6.24673 21.9974 6.60378 22 6.99272L21.9939 7.11019L21.4215 12.2619C21.1289 14.8951 19.6919 17.2602 17.5025 18.7339L17.2465 18.9L12.53 21.8478C12.2418 22.0279 11.8846 22.048 11.5811 21.9078L11.47 21.8478L6.75349 18.9C4.50675 17.4958 2.99738 15.1762 2.61734 12.5645L2.57852 12.2619L2.00612 7.11019C1.96238 6.71652 2.15493 6.3383 2.48945 6.13987L2.59397 6.0859L11.594 2.08712ZM12 4.09524L4.07469 7.61653L4.56629 12.041C4.79233 14.0754 5.89661 15.904 7.58032 17.0517L7.81349 17.204L12 19.8206L16.1865 17.204C17.9223 16.1191 19.0922 14.3318 19.3975 12.3171L19.4337 12.041L19.9253 7.61653L12 4.09524ZM14.2136 8.38198C14.5549 7.94771 15.1835 7.87227 15.6178 8.21348C16.0186 8.52845 16.1138 9.08833 15.8577 9.51417L15.7863 9.61762L11.7863 14.6176C11.4424 15.0553 10.815 15.1227 10.3877 14.7906L10.2929 14.7069L8.2929 12.7069C7.90237 12.3164 7.90237 11.6832 8.2929 11.2927C8.65338 10.9322 9.22061 10.9045 9.6129 11.2095L9.70711 11.2927L10.9101 12.4957L14.2136 8.38198Z" fill="#F73163"/>
</svg>
