<svg width="20" height="20" viewBox="0 0 20 20" fill="none" xmlns="http://www.w3.org/2000/svg">
<path d="M17.5009 6.17116L17.501 6.52452L17.8341 6.64238C18.8054 6.98604 19.5 7.91255 19.5 9V11C19.5 12.0875 18.8054 13.014 17.8341 13.3576L17.501 13.4755L17.5009 13.8289L17.5 16.9999V17C17.5 18.3289 16.4629 19.416 15.1542 19.4953L14.9928 19.5H3C1.67111 19.5 0.584095 18.4629 0.504663 17.1543L0.5 16.9928V3C0.5 1.67111 1.53711 0.584095 2.84574 0.504663L3.00722 0.5H15C16.3289 0.5 17.416 1.53715 17.4953 2.84579L17.5 3.00728L17.5009 6.17116ZM15.0288 1.50083L15.0144 1.5H15H3C2.23039 1.5 1.59677 2.07916 1.51007 2.8257L1.5084 2.8401L1.50756 2.85457L1.50083 2.97119L1.5 2.98558V3V17C1.5 17.7696 2.07915 18.4032 2.82566 18.49L2.84014 18.4916L2.8547 18.4925L2.97132 18.4992L2.98565 18.5H3H15C15.7696 18.5 16.4032 17.9209 16.49 17.1743L16.4916 17.1598L16.4925 17.1453L16.4992 17.0287L16.5 17.0144V17V14V13.5H16H15C13.6192 13.5 12.5 12.3808 12.5 11V9C12.5 7.61929 13.6192 6.5 15 6.5H16H16.5V6V3C16.5 2.2304 15.9209 1.59677 15.1743 1.51007L15.1599 1.5084L15.1454 1.50756L15.0288 1.50083ZM15 7.5C14.1716 7.5 13.5 8.17156 13.5 9V11C13.5 11.8284 14.1716 12.5 15 12.5H17C17.8284 12.5 18.5 11.8284 18.5 11V9C18.5 8.17156 17.8284 7.5 17 7.5H15Z" fill="currentColor" stroke="currentColor"/>
</svg>
