<svg width="220" height="220" viewBox="0 0 220 220" fill="none" xmlns="http://www.w3.org/2000/svg">
<g clip-path="url(#clip0)">
<path d="M220 168.256H0V168.366H220V168.256Z" fill="#EBEBEB"/>
<path d="M60.5704 171.252H45.9976V171.362H60.5704V171.252Z" fill="#EBEBEB"/>
<path d="M93.2316 175.283H75.3016V175.393H93.2316V175.283Z" fill="#EBEBEB"/>
<path d="M45.5576 173.906H23.0824V174.016H45.5576V173.906Z" fill="#EBEBEB"/>
<path d="M197.956 171.991H156.974V172.101H197.956V171.991Z" fill="#EBEBEB"/>
<path d="M153.058 171.991H150.273V172.101H153.058V171.991Z" fill="#EBEBEB"/>
<path d="M140.554 173.848H121.972V173.958H140.554V173.848Z" fill="#EBEBEB"/>
<path d="M104.28 148.632H19.3204C18.6548 148.631 18.0169 148.366 17.5467 147.895C17.0765 147.423 16.8124 146.785 16.8124 146.12V26.6904C16.8182 26.0286 17.0848 25.3959 17.5544 24.9296C18.024 24.4633 18.6586 24.2011 19.3204 24.2H104.28C104.946 24.2 105.585 24.4646 106.057 24.9358C106.528 25.407 106.792 26.046 106.792 26.7124V146.12C106.792 146.786 106.528 147.425 106.057 147.896C105.585 148.367 104.946 148.632 104.28 148.632ZM19.3204 24.288C18.684 24.2891 18.0741 24.5427 17.6245 24.9932C17.1749 25.4436 16.9224 26.054 16.9224 26.6904V146.12C16.9224 146.756 17.1749 147.366 17.6245 147.817C18.0741 148.267 18.684 148.521 19.3204 148.522H104.28C104.916 148.52 105.526 148.266 105.976 147.816C106.426 147.366 106.68 146.756 106.682 146.12V26.6904C106.68 26.0539 106.426 25.4442 105.976 24.9942C105.526 24.5441 104.916 24.2903 104.28 24.288H19.3204Z" fill="#EBEBEB"/>
<path d="M199.456 148.632H114.492C113.827 148.63 113.189 148.364 112.718 147.894C112.248 147.423 111.982 146.785 111.98 146.12V26.6904C111.987 26.0282 112.255 25.3955 112.725 24.9293C113.195 24.4631 113.83 24.2011 114.492 24.2H199.456C200.117 24.2022 200.751 24.4649 201.22 24.9311C201.688 25.3973 201.954 26.0294 201.96 26.6904V146.12C201.961 146.449 201.896 146.775 201.771 147.08C201.645 147.384 201.461 147.661 201.229 147.894C200.996 148.128 200.72 148.313 200.416 148.439C200.112 148.566 199.786 148.631 199.456 148.632ZM114.492 24.288C113.856 24.2903 113.246 24.5441 112.796 24.9942C112.346 25.4442 112.092 26.0539 112.09 26.6904V146.12C112.092 146.756 112.346 147.366 112.796 147.816C113.246 148.266 113.856 148.52 114.492 148.522H199.456C200.093 148.52 200.703 148.266 201.153 147.816C201.603 147.366 201.856 146.756 201.859 146.12V26.6904C201.856 26.0539 201.603 25.4442 201.153 24.9942C200.703 24.5441 200.093 24.2903 199.456 24.288H114.492Z" fill="#EBEBEB"/>
<path d="M31.0948 75.2839H69.2692C69.2692 75.2839 67.2144 70.5055 60.3504 71.9927C60.3504 71.9927 58.9072 66.5587 53.6712 67.3111C53.6712 67.3111 49.3372 62.6119 43.0144 64.4335C36.6916 66.2551 37.2372 71.9927 37.2372 71.9927C37.2372 71.9927 32.56 70.7695 31.0948 75.2839Z" fill="#FAFAFA"/>
<path d="M133.272 46.1736H95.1016C95.1016 46.1736 97.152 41.3908 104.016 42.878C104.016 42.878 105.459 37.444 110.7 38.1964C110.7 38.1964 115.034 33.5016 121.352 35.3232C127.67 37.1448 127.134 42.878 127.134 42.878C127.134 42.878 131.828 41.6592 133.272 46.1736Z" fill="#FAFAFA"/>
<path d="M161.423 44.9283H190.626C190.626 44.9283 189.508 40.9199 185.284 42.2399C185.284 42.2399 186.164 36.8455 183.049 36.2207C179.934 35.5959 178.944 39.7011 178.944 39.7011C178.231 38.8932 177.306 38.3004 176.275 37.9894C175.243 37.6785 174.145 37.6618 173.105 37.9411C172.082 38.2075 171.149 38.745 170.406 39.4969C169.662 40.2488 169.136 41.1873 168.881 42.2135C168.881 42.2135 163.68 39.2347 161.423 44.9283Z" fill="#FAFAFA"/>
<path d="M55.748 97.7546H20.2224V168.141H55.748V97.7546Z" fill="#E6E6E6"/>
<path d="M49.2888 97.7546H20.2224V168.141H49.2888V97.7546Z" fill="#F0F0F0"/>
<path d="M56.166 97.7546H19.4568V98.903H56.166V97.7546Z" fill="#E0E0E0"/>
<path d="M56.166 95.458H19.4568V96.6064H56.166V95.458Z" fill="#E0E0E0"/>
<path d="M55.396 96.6064H20.2224V97.7548H55.396V96.6064Z" fill="#F0F0F0"/>
<path d="M28.4416 101.895H22.9812V107.439H28.4416V101.895Z" fill="#E6E6E6"/>
<path d="M28.4372 101.895H23.4608V107.439H28.4372V101.895Z" fill="#F5F5F5"/>
<path d="M36.7092 101.895H31.2488V107.439H36.7092V101.895Z" fill="#E6E6E6"/>
<path d="M36.7048 101.895H31.7284V107.439H36.7048V101.895Z" fill="#F5F5F5"/>
<path d="M44.9768 101.895H39.5164V107.439H44.9768V101.895Z" fill="#E6E6E6"/>
<path d="M44.9724 101.895H39.996V107.439H44.9724V101.895Z" fill="#F5F5F5"/>
<path d="M28.4416 110.057H22.9812V115.601H28.4416V110.057Z" fill="#E6E6E6"/>
<path d="M28.4372 110.057H23.4608V115.601H28.4372V110.057Z" fill="#F5F5F5"/>
<path d="M36.7092 110.057H31.2488V115.601H36.7092V110.057Z" fill="#E6E6E6"/>
<path d="M36.7048 110.057H31.7284V115.601H36.7048V110.057Z" fill="#F5F5F5"/>
<path d="M44.9768 110.057H39.5164V115.601H44.9768V110.057Z" fill="#E6E6E6"/>
<path d="M44.9724 110.057H39.996V115.601H44.9724V110.057Z" fill="#F5F5F5"/>
<path d="M28.4416 125.004H22.9812V130.548H28.4416V125.004Z" fill="#E6E6E6"/>
<path d="M28.4372 125.004H23.4608V130.548H28.4372V125.004Z" fill="#F5F5F5"/>
<path d="M36.7092 125.004H31.2488V130.548H36.7092V125.004Z" fill="#E6E6E6"/>
<path d="M36.7048 125.004H31.7284V130.548H36.7048V125.004Z" fill="#F5F5F5"/>
<path d="M44.9768 125.004H39.5164V130.548H44.9768V125.004Z" fill="#E6E6E6"/>
<path d="M44.9724 125.004H39.996V130.548H44.9724V125.004Z" fill="#F5F5F5"/>
<path d="M28.4416 133.166H22.9812V138.71H28.4416V133.166Z" fill="#E6E6E6"/>
<path d="M28.4372 133.166H23.4608V138.71H28.4372V133.166Z" fill="#F5F5F5"/>
<path d="M36.7092 133.166H31.2488V138.71H36.7092V133.166Z" fill="#E6E6E6"/>
<path d="M36.7048 133.166H31.7284V138.71H36.7048V133.166Z" fill="#F5F5F5"/>
<path d="M44.9768 133.166H39.5164V138.71H44.9768V133.166Z" fill="#E6E6E6"/>
<path d="M44.9724 133.166H39.996V138.71H44.9724V133.166Z" fill="#F5F5F5"/>
<path d="M28.4416 149.776H22.9812V155.32H28.4416V149.776Z" fill="#E6E6E6"/>
<path d="M28.4372 149.776H23.4608V155.32H28.4372V149.776Z" fill="#F5F5F5"/>
<path d="M36.7092 149.776H31.2488V155.32H36.7092V149.776Z" fill="#E6E6E6"/>
<path d="M36.7048 149.776H31.7284V155.32H36.7048V149.776Z" fill="#F5F5F5"/>
<path d="M44.9768 149.776H39.5164V155.32H44.9768V149.776Z" fill="#E6E6E6"/>
<path d="M44.9724 149.776H39.996V155.32H44.9724V149.776Z" fill="#F5F5F5"/>
<path d="M28.4416 157.938H22.9812V163.482H28.4416V157.938Z" fill="#E6E6E6"/>
<path d="M28.4372 157.938H23.4608V163.482H28.4372V157.938Z" fill="#F5F5F5"/>
<path d="M36.7092 157.938H31.2488V163.482H36.7092V157.938Z" fill="#E6E6E6"/>
<path d="M36.7048 157.938H31.7284V163.482H36.7048V157.938Z" fill="#F5F5F5"/>
<path d="M44.9768 157.938H39.5164V163.482H44.9768V157.938Z" fill="#E6E6E6"/>
<path d="M44.9724 157.938H39.996V163.482H44.9724V157.938Z" fill="#F5F5F5"/>
<path d="M55.748 119.5H20.2224V120.014H55.748V119.5Z" fill="#E0E0E0"/>
<path d="M55.748 145.046H20.2224V145.561H55.748V145.046Z" fill="#E0E0E0"/>
<path d="M195.448 83.2302H160.349V168.639H195.448V83.2302Z" fill="#E0E0E0"/>
<path d="M185.451 83.2302H160.349V168.639H185.451V83.2302Z" fill="#F0F0F0"/>
<path d="M172.278 90.2483H162.936V94.7847H172.278V90.2483Z" fill="#E6E6E6"/>
<path d="M172.278 90.2483H163.557V94.7847H172.278V90.2483Z" fill="#F5F5F5"/>
<path d="M183.084 90.2483H173.743V94.7847H183.084V90.2483Z" fill="#E6E6E6"/>
<path d="M183.084 90.2483H174.363V94.7847H183.084V90.2483Z" fill="#F5F5F5"/>
<path d="M172.278 98.7844H162.936V103.321H172.278V98.7844Z" fill="#E6E6E6"/>
<path d="M172.278 98.7844H163.557V103.321H172.278V98.7844Z" fill="#F5F5F5"/>
<path d="M183.084 98.7844H173.743V103.321H183.084V98.7844Z" fill="#E6E6E6"/>
<path d="M183.084 98.7844H174.363V103.321H183.084V98.7844Z" fill="#F5F5F5"/>
<path d="M172.278 109.692H162.936V114.228H172.278V109.692Z" fill="#E6E6E6"/>
<path d="M172.278 109.692H163.557V114.228H172.278V109.692Z" fill="#F5F5F5"/>
<path d="M183.084 109.692H173.743V114.228H183.084V109.692Z" fill="#E6E6E6"/>
<path d="M183.084 109.692H174.363V114.228H183.084V109.692Z" fill="#F5F5F5"/>
<path d="M172.278 115.962H162.936V120.498H172.278V115.962Z" fill="#E6E6E6"/>
<path d="M172.278 115.962H163.557V120.498H172.278V115.962Z" fill="#F5F5F5"/>
<path d="M183.084 115.962H173.743V120.498H183.084V115.962Z" fill="#E6E6E6"/>
<path d="M183.084 115.962H174.363V120.498H183.084V115.962Z" fill="#F5F5F5"/>
<path d="M172.278 126.262H162.936V130.799H172.278V126.262Z" fill="#E6E6E6"/>
<path d="M172.278 126.262H163.557V130.799H172.278V126.262Z" fill="#F5F5F5"/>
<path d="M183.084 126.262H173.743V130.799H183.084V126.262Z" fill="#E6E6E6"/>
<path d="M183.084 126.262H174.363V130.799H183.084V126.262Z" fill="#F5F5F5"/>
<path d="M172.278 132.528H162.936V137.064H172.278V132.528Z" fill="#E6E6E6"/>
<path d="M172.278 132.528H163.557V137.064H172.278V132.528Z" fill="#F5F5F5"/>
<path d="M183.084 132.528H173.743V137.064H183.084V132.528Z" fill="#E6E6E6"/>
<path d="M183.084 132.528H174.363V137.064H183.084V132.528Z" fill="#F5F5F5"/>
<path d="M172.278 143.739H162.936V148.275H172.278V143.739Z" fill="#E6E6E6"/>
<path d="M172.278 143.739H163.557V148.275H172.278V143.739Z" fill="#F5F5F5"/>
<path d="M183.084 143.739H173.743V148.275H183.084V143.739Z" fill="#E6E6E6"/>
<path d="M183.084 143.739H174.363V148.275H183.084V143.739Z" fill="#F5F5F5"/>
<path d="M172.278 152.016H162.936V156.552H172.278V152.016Z" fill="#E6E6E6"/>
<path d="M172.278 152.016H163.557V156.552H172.278V152.016Z" fill="#F5F5F5"/>
<path d="M183.084 152.016H173.743V156.552H183.084V152.016Z" fill="#E6E6E6"/>
<path d="M183.084 152.016H174.363V156.552H183.084V152.016Z" fill="#F5F5F5"/>
<path opacity="0.05" d="M195.448 106.115H160.349V106.894H195.448V106.115Z" fill="black"/>
<path opacity="0.05" d="M195.448 122.989H160.349V123.768H195.448V122.989Z" fill="black"/>
<path opacity="0.05" d="M195.448 140.012H160.349V140.791H195.448V140.012Z" fill="black"/>
<path d="M195.448 80.7048H158.695V83.4328H195.448V80.7048Z" fill="#E0E0E0"/>
<path opacity="0.05" d="M195.448 80.7048H187.048V83.4328H195.448V80.7048Z" fill="black"/>
<path d="M110.361 64.0552H70.6816V167.182H110.361V64.0552Z" fill="#E6E6E6"/>
<path d="M95.678 64.0552H55.9944V167.182H95.678V64.0552Z" fill="#F0F0F0"/>
<path d="M92.2152 71.0554H59.4572V76.309H92.2152V71.0554Z" fill="#E6E6E6"/>
<path d="M92.2152 71.0554H60.7288V76.309H92.2152V71.0554Z" fill="#F5F5F5"/>
<path d="M92.2152 79.8997H59.4572V85.1533H92.2152V79.8997Z" fill="#E6E6E6"/>
<path d="M92.2152 79.8997H60.7288V85.1533H92.2152V79.8997Z" fill="#F5F5F5"/>
<path d="M92.2152 89.0867H59.4572V94.3403H92.2152V89.0867Z" fill="#E6E6E6"/>
<path d="M92.2152 89.0867H60.7288V94.3403H92.2152V89.0867Z" fill="#F5F5F5"/>
<path d="M92.2152 98.2783H59.4572V103.532H92.2152V98.2783Z" fill="#E6E6E6"/>
<path d="M92.2152 98.2783H60.7288V103.532H92.2152V98.2783Z" fill="#F5F5F5"/>
<path d="M92.2152 107.466H59.4572V112.719H92.2152V107.466Z" fill="#E6E6E6"/>
<path d="M92.2152 107.466H60.7288V112.719H92.2152V107.466Z" fill="#F5F5F5"/>
<path d="M92.2152 116.657H59.4572V121.911H92.2152V116.657Z" fill="#E6E6E6"/>
<path d="M92.2152 116.657H60.7288V121.911H92.2152V116.657Z" fill="#F5F5F5"/>
<path d="M92.2152 126.786H59.4572V132.039H92.2152V126.786Z" fill="#E6E6E6"/>
<path d="M92.2152 126.786H60.7288V132.039H92.2152V126.786Z" fill="#F5F5F5"/>
<path d="M92.2152 136.91H59.4572V142.164H92.2152V136.91Z" fill="#E6E6E6"/>
<path d="M92.2152 136.91H60.7288V142.164H92.2152V136.91Z" fill="#F5F5F5"/>
<path d="M92.2152 147.039H59.4572V152.293H92.2152V147.039Z" fill="#E6E6E6"/>
<path d="M92.2152 147.039H60.7288V152.293H92.2152V147.039Z" fill="#F5F5F5"/>
<path d="M92.2152 157.168H59.4572V162.422H92.2152V157.168Z" fill="#E6E6E6"/>
<path d="M92.2152 157.168H60.7288V162.422H92.2152V157.168Z" fill="#F5F5F5"/>
<path d="M111.395 63.0168H54.8724V65.5336H111.395V63.0168Z" fill="#F5F5F5"/>
<path d="M111.395 58.4758H54.8724V60.9926H111.395V58.4758Z" fill="#F5F5F5"/>
<path d="M109.516 60.5H55.9944V63.0168H109.516V60.5Z" fill="#F0F0F0"/>
<path d="M110.365 71.0554H99.308V76.309H110.365V71.0554Z" fill="#E0E0E0"/>
<path d="M110.365 79.7017H99.308V84.9553H110.365V79.7017Z" fill="#E0E0E0"/>
<path d="M110.365 88.3477H99.308V93.6013H110.365V88.3477Z" fill="#E0E0E0"/>
<path d="M110.365 98.2739H99.308V103.528H110.365V98.2739Z" fill="#E0E0E0"/>
<path d="M110.365 107.466H99.308V112.719H110.365V107.466Z" fill="#E0E0E0"/>
<path d="M110.365 116.657H99.308V121.911H110.365V116.657Z" fill="#E0E0E0"/>
<path d="M110.365 126.781H99.308V132.035H110.365V126.781Z" fill="#E0E0E0"/>
<path d="M110.365 136.91H99.308V142.164H110.365V136.91Z" fill="#E0E0E0"/>
<path d="M110.365 147.039H99.308V152.293H110.365V147.039Z" fill="#E0E0E0"/>
<path d="M110.365 157.168H99.308V162.422H110.365V157.168Z" fill="#E0E0E0"/>
<path d="M161.37 100.095H157.005V106.924H161.37V100.095Z" fill="#E0E0E0"/>
<path d="M161.37 111.271H157.005V118.1H161.37V111.271Z" fill="#E0E0E0"/>
<path d="M161.37 122.135H157.005V128.964H161.37V122.135Z" fill="#E0E0E0"/>
<path d="M161.37 133.619H157.005V140.448H161.37V133.619Z" fill="#E0E0E0"/>
<path d="M161.37 144.795H157.005V151.624H161.37V144.795Z" fill="#E0E0E0"/>
<path d="M161.37 93.2314H115.438V163.086H161.37V93.2314Z" fill="#E6E6E6"/>
<path d="M153.613 93.2314H115.443V163.086H153.613V93.2314Z" fill="#F0F0F0"/>
<path d="M149.912 100.1H118.875V106.929H149.912V100.1Z" fill="#EBEBEB"/>
<path d="M149.912 111.271H118.875V118.1H149.912V111.271Z" fill="#EBEBEB"/>
<path d="M149.912 122.448H118.875V129.276H149.912V122.448Z" fill="#EBEBEB"/>
<path d="M149.912 133.619H118.875V140.448H149.912V133.619Z" fill="#EBEBEB"/>
<path d="M149.912 144.795H118.875V151.624H149.912V144.795Z" fill="#EBEBEB"/>
<path d="M149.912 100.1H120.019V106.929H149.912V100.1Z" fill="#F5F5F5"/>
<path d="M149.912 111.271H120.019V118.1H149.912V111.271Z" fill="#F5F5F5"/>
<path d="M149.912 122.448H120.019V129.276H149.912V122.448Z" fill="#F5F5F5"/>
<path d="M149.912 133.619H120.019V140.448H149.912V133.619Z" fill="#F5F5F5"/>
<path d="M149.912 144.795H120.019V151.624H149.912V144.795Z" fill="#F5F5F5"/>
<path d="M110 188.126C157.116 188.126 195.312 185.896 195.312 183.146C195.312 180.395 157.116 178.165 110 178.165C62.8837 178.165 24.6884 180.395 24.6884 183.146C24.6884 185.896 62.8837 188.126 110 188.126Z" fill="#F5F5F5"/>
<path d="M61.4812 183.146H59.7212" stroke="#F73163" stroke-width="0.44" stroke-linecap="round" stroke-linejoin="round"/>
<path d="M56.3948 183.146H11.4488" stroke="#F73163" stroke-width="0.44" stroke-linecap="round" stroke-linejoin="round" stroke-dasharray="3.33 3.33"/>
<path d="M9.78557 183.146H8.02557" stroke="#F73163" stroke-width="0.44" stroke-linecap="round" stroke-linejoin="round"/>
<path d="M166.213 77.8232L115.444 78.665L116.051 115.316L166.821 114.475L166.213 77.8232Z" fill="#F73163"/>
<path opacity="0.3" d="M146.088 78.1524L115.394 78.6614L116.001 115.313L146.696 114.804L146.088 78.1524Z" fill="white"/>
<path opacity="0.3" d="M150.714 80.622L141.874 80.7988L141.923 83.2628L150.763 83.086L150.714 80.622Z" fill="white"/>
<path opacity="0.3" d="M150.976 109.123L142.138 109.269L142.179 111.733L151.017 111.586L150.976 109.123Z" fill="white"/>
<path d="M156.869 101.284C159.734 101.284 162.056 98.6557 162.056 95.414C162.056 92.1723 159.734 89.5444 156.869 89.5444C154.004 89.5444 151.681 92.1723 151.681 95.414C151.681 98.6557 154.004 101.284 156.869 101.284Z" stroke="white" stroke-width="0.44" stroke-miterlimit="10"/>
<path d="M157.084 90.4377V91.4233" stroke="white" stroke-width="0.44" stroke-linecap="round" stroke-linejoin="round"/>
<path d="M157.309 99.4666V100.452" stroke="white" stroke-width="0.44" stroke-linecap="round" stroke-linejoin="round"/>
<path d="M152.495 95.2205H153.485" stroke="white" stroke-width="0.44" stroke-linecap="round" stroke-linejoin="round"/>
<path d="M160.442 95.2249H161.432" stroke="white" stroke-width="0.44" stroke-linecap="round" stroke-linejoin="round"/>
<path d="M157.08 95.2206L157.084 92.1846" stroke="white" stroke-width="0.22" stroke-linecap="round" stroke-linejoin="round"/>
<path d="M157.274 95.4185L159.421 97.5657" stroke="white" stroke-width="0.22" stroke-linecap="round" stroke-linejoin="round"/>
<path d="M157.56 95.2247C157.56 95.3196 157.531 95.4123 157.479 95.4912C157.426 95.5701 157.351 95.6315 157.263 95.6678C157.176 95.7041 157.079 95.7136 156.986 95.6951C156.893 95.6766 156.808 95.6309 156.741 95.5639C156.674 95.4968 156.628 95.4113 156.61 95.3183C156.591 95.2253 156.601 95.1288 156.637 95.0412C156.673 94.9536 156.735 94.8787 156.813 94.826C156.892 94.7733 156.985 94.7451 157.08 94.7451C157.143 94.7446 157.206 94.7566 157.264 94.7804C157.323 94.8043 157.376 94.8396 157.42 94.8843C157.465 94.9289 157.5 94.9821 157.524 95.0405C157.548 95.099 157.56 95.1616 157.56 95.2247Z" fill="white"/>
<path opacity="0.3" d="M156.869 102.837C160.662 102.837 163.737 99.5135 163.737 95.414C163.737 91.3145 160.662 87.9912 156.869 87.9912C153.075 87.9912 150 91.3145 150 95.414C150 99.5135 153.075 102.837 156.869 102.837Z" fill="white"/>
<path d="M99.8271 159.786C100.593 160.371 115.962 158.717 111.989 131.45C111.989 131.45 119.28 133.302 120.063 133.179C120.063 133.179 130.759 149.578 122.971 157.7C115.183 165.823 103.576 166.32 103.576 166.32L99.8271 159.786Z" fill="#F73163"/>
<path opacity="0.3" d="M99.8271 159.786C100.593 160.371 115.962 158.717 111.989 131.45C111.989 131.45 119.28 133.302 120.063 133.179C120.063 133.179 130.759 149.578 122.971 157.7C115.183 165.823 103.576 166.32 103.576 166.32L99.8271 159.786Z" fill="black"/>
<path d="M116.86 135.67C116.899 135.67 112.565 135.753 111.113 133.949C109.661 132.145 108.68 128.92 111.32 126.72C113.96 124.52 129.461 115.016 136.761 114.268C144.06 113.52 151.875 118.228 151.875 118.228L142.318 125.294L121.739 130.275L116.86 135.67Z" fill="#263238"/>
<path d="M102.846 155.492L103.246 159.434L107.98 159.034L107.268 154.981L102.846 155.492Z" fill="#FFC3BD"/>
<path d="M101.926 159.148L108.794 159.051L109.283 162.518C109.283 162.518 102.85 162.606 100.206 162.254C97.5612 161.902 97.9748 160.525 97.9748 160.525C97.9748 160.525 101.072 160.6 101.926 159.148Z" fill="#263238"/>
<path d="M161.866 169.127C162.892 159.048 156.807 150.174 148.275 149.306C139.744 148.438 131.996 155.905 130.971 165.984C129.945 176.062 136.03 184.937 144.561 185.805C153.093 186.673 160.841 179.206 161.866 169.127Z" fill="#263238"/>
<path d="M135.626 111.448C135.626 111.448 136.338 127.802 126.826 128.269C117.313 128.735 107.092 127.692 107.092 127.692L110.088 157.08L101.169 157.63C101.169 157.63 94.7671 132.7 93.7595 126.434C92.7519 120.168 93.6276 115.738 100.241 112.957C106.854 110.176 135.626 111.448 135.626 111.448Z" fill="#F73163"/>
<path d="M82.39 163.337L94.2392 128.92L110.079 111.435C110.079 111.435 96.2544 111.487 89.6104 115.307C82.9664 119.126 82.72 123.715 81.5012 129.175C80.2824 134.636 75.394 160.481 75.394 160.481L82.39 163.337Z" fill="#F73163"/>
<path opacity="0.7" d="M135.626 111.448C135.626 111.448 120.903 110.792 110.106 111.448C110.106 111.448 96.2808 111.5 89.6368 115.32C82.9928 119.139 82.72 123.715 81.5012 129.175C80.2824 134.636 75.394 160.481 75.394 160.481L82.39 163.337L94.2392 128.92C96.2324 138.459 101.169 157.612 101.169 157.612L110.088 157.08L107.087 127.71C107.087 127.71 117.304 128.753 126.821 128.286C136.338 127.82 135.626 111.448 135.626 111.448Z" fill="black"/>
<path d="M111.32 84.9202L105.851 85.5846C105.851 85.5846 104.9 95.6386 104.016 97.5922C104.016 97.5922 87.1948 99.9022 80.3044 99.7042L76.8064 102.08L76.6832 106.212L80.1108 106.313L81.2152 103.695C81.2152 103.695 83.5296 103.594 84.0664 102.291C84.0664 102.291 101.939 106.608 108.522 101.68C108.53 101.684 112.499 95.8542 111.32 84.9202Z" fill="#FFC3BD"/>
<path d="M126.993 57.9963C126.993 57.9963 128.704 60.1963 128.053 62.1015C127.873 62.6449 127.557 63.1327 127.134 63.5181C126.711 63.9034 126.195 64.1732 125.638 64.3015C125.638 64.3015 125.316 67.3507 123.517 67.4387C121.717 67.5267 122.32 60.7199 122.32 60.7199L126.993 57.9963Z" fill="#263238"/>
<path d="M113.137 111.523L111.936 91.8677L104.482 86.9133C104.482 86.9133 106.92 78.3202 111.584 76.8638C116.248 75.4074 126.421 72.0677 132.59 73.7265C138.758 75.3853 138.05 82.6629 136.99 88.0617L135.802 88.3433C135.802 88.3433 135.617 109.617 135.608 111.448L113.137 111.523Z" fill="#263238"/>
<path d="M126.548 74.9408C124.106 77.3036 119.126 78.7116 117.748 77.5368C116.371 76.362 118.109 75.284 119.403 73.9552C120.102 73.2248 120.08 71.8564 119.918 70.7652C119.832 70.2153 119.705 69.6726 119.539 69.1416C114.968 68.8908 113.071 66.7524 112.882 62.9816C112.693 59.2108 114.4 54.8328 114.4 54.8328L117.63 52.0784C117.63 52.0784 122.03 52.7384 125.55 55.1584C127.644 56.584 127.024 59.3912 126.157 61.4636C125.79 62.3457 125.348 63.195 124.837 64.0024C124.344 69.1636 126.548 74.9408 126.548 74.9408Z" fill="#FFC3BD"/>
<path d="M115.425 64.02C115.425 64.02 117.185 64.1037 117.955 63.0125" stroke="#263238" stroke-width="0.44" stroke-linecap="round" stroke-linejoin="round"/>
<path d="M118.228 59.5672C118.228 59.9016 118.026 60.1656 117.788 60.1612C117.55 60.1568 117.379 59.8796 117.388 59.5452C117.396 59.2108 117.59 58.9468 117.828 58.9512C118.065 58.9556 118.241 59.2328 118.228 59.5672Z" fill="#263238"/>
<path d="M114.215 59.6729C114.215 60.0073 114.013 60.2713 113.775 60.2669C113.538 60.2625 113.366 59.9853 113.375 59.6509C113.384 59.3165 113.577 59.0525 113.815 59.0569C114.052 59.0613 114.228 59.3429 114.215 59.6729Z" fill="#263238"/>
<path d="M115.61 62.4052L115.43 59.708L114.14 62.2688C114.342 62.4398 114.591 62.5447 114.854 62.5691C115.117 62.5935 115.381 62.5363 115.61 62.4052Z" fill="#ED847E"/>
<path d="M118.017 57.4552C118.354 57.3624 118.714 57.3925 119.031 57.5399C119.349 57.6874 119.604 57.9427 119.75 58.2604" stroke="#263238" stroke-width="0.44" stroke-linecap="round" stroke-linejoin="round"/>
<path d="M112.974 57.9525C112.974 57.9525 113.784 57.0725 114.734 57.2969" stroke="#263238" stroke-width="0.44" stroke-linecap="round" stroke-linejoin="round"/>
<path d="M126.188 61.4636C121.154 61.644 120.529 55.9372 120.529 55.9372C118.039 57.2572 114.418 54.8372 114.418 54.8372L117.647 52.074C117.647 52.074 122.047 52.7428 125.567 55.154C127.675 56.584 127.054 59.4 126.188 61.4636Z" fill="#263238"/>
<path d="M112.798 56.5094C112.798 56.5094 110.194 54.7758 111.342 53.5262C112.49 52.2766 119.526 54.6526 124.784 57.5654C124.784 57.5654 112.741 49.509 109.468 52.0566C106.762 54.1642 112.763 57.0902 112.583 57.0858L112.798 56.5094Z" fill="#F73163"/>
<path d="M127.49 55.9196C127.483 56.832 127.31 57.7355 126.98 58.586L115.152 52.8661C115.642 52.3002 116.229 51.8264 116.886 51.4669C117.586 51.0665 118.347 50.784 119.139 50.6309C119.978 50.4703 120.838 50.4407 121.686 50.5429C126.012 51.0401 127.512 54.3664 127.49 55.9196Z" fill="#F73163"/>
<path d="M75.1124 114.167C75.1124 114.167 61.754 132.647 72.754 161.093" stroke="#263238" stroke-width="0.44" stroke-linecap="round" stroke-linejoin="round"/>
<path d="M92.7431 123.768C92.7431 123.768 92.7431 123.803 92.7431 123.873C92.7431 123.944 92.7431 123.983 92.7431 124.062V124.106C92.5842 125.886 92.2901 127.651 91.8631 129.386C91.2559 131.952 90.4507 134.394 89.7863 136.356C86.9703 144.694 87.2959 153.679 87.2959 153.679C86.3631 152.517 84.6559 151.69 82.5219 151.109C74.7515 148.975 61.5603 150.119 61.5603 150.119C58.9731 141.042 59.8971 126.834 62.4711 118.879C65.0451 110.924 72.1819 112.719 72.1819 112.719C72.1819 112.719 79.7147 112.939 80.6607 112.838C82.3921 112.628 84.1445 112.664 85.8659 112.944C91.6827 114.008 93.0819 118.606 92.7431 123.768Z" fill="#F73163"/>
<path d="M150.74 158.4C137.54 170.315 112.059 171.565 93.0995 170.245L82.4779 151.136L78.1747 143.396L91.9995 124.762L92.7299 123.781C92.7299 123.781 92.7299 123.816 92.7299 123.886C92.7299 123.957 92.7299 123.996 92.7299 124.076V124.12C92.5407 127.442 91.3175 154.101 101.09 160.64L101.169 160.697C102.492 161.551 104.026 162.021 105.6 162.052C123.53 162.571 123.028 139.172 118.47 134.16L149.582 127.908C149.582 127.908 155.725 143.374 150.74 158.4Z" fill="#F73163"/>
<path d="M116.134 129.087C116.134 129.087 113.216 131.507 114.721 134.754C116.226 138.002 130.733 131.696 136.444 130.548C142.155 129.4 148.764 128.278 151.606 127.692C154.449 127.107 154.202 118.954 151.879 118.232C149.556 117.511 126.799 121.532 123.024 123.741C120.531 125.255 118.219 127.049 116.134 129.087Z" fill="#263238"/>
<path d="M123.438 63.4788C123.16 63.1799 122.992 62.7957 122.961 62.3889C122.93 61.9822 123.037 61.5769 123.266 61.2392C123.97 60.1832 125.391 58.5068 126.755 59.7608C128.665 61.5208 125.404 64.7196 124.054 63.9452C123.827 63.8195 123.62 63.6625 123.438 63.4788Z" fill="#FFC3BD"/>
<path opacity="0.2" d="M112.798 56.5094C112.798 56.5094 110.194 54.7758 111.342 53.5262C111.852 52.9718 113.379 53.0862 115.443 53.6758C116.77 54.033 118.07 54.4844 119.332 55.0266C121.145 55.8142 123.072 56.8218 124.784 57.5654C124.784 57.5654 112.741 49.509 109.468 52.0566C106.762 54.1642 112.389 56.8966 112.587 57.0814L112.684 56.725L112.798 56.5094Z" fill="black"/>
<path d="M114.035 55.7568C114.035 55.7568 111.395 56.1968 113.216 59.0392L114.035 55.7568Z" fill="#263238"/>
<path d="M116.565 54.0233C116.565 54.0233 112.583 52.6241 111.474 53.4161C110.365 54.2081 111.527 55.7173 112.794 56.4961L113.81 56.6281L114.409 54.8241L115.958 54.6349L116.565 54.0233Z" fill="#263238"/>
<path opacity="0.3" d="M121.99 51.8716L121.035 53.284L116.886 51.48C117.586 51.0796 118.347 50.7972 119.139 50.644L121.99 51.8716Z" fill="white"/>
<path opacity="0.1" d="M121.066 68.7544C120.791 69.4846 120.397 70.1642 119.9 70.7652C119.814 70.2154 119.688 69.6727 119.522 69.1416C120.055 69.1043 120.578 68.9732 121.066 68.7544Z" fill="black"/>
<path d="M81.6199 107.448C81.4439 110.497 80.1239 112.992 78.5047 113.608C78.2245 113.716 77.9245 113.763 77.6247 113.745C75.6271 113.63 74.1751 110.634 74.3775 107.057C74.5799 103.479 76.3663 100.672 78.3639 100.787C79.1779 100.831 79.8951 101.354 80.4539 102.195C81.2767 103.4 81.7387 105.327 81.6199 107.448Z" fill="#F5F5F5"/>
<path d="M81.62 107.448C81.444 110.497 80.124 112.992 78.5048 113.608C76.6568 113.502 75.3148 110.735 75.504 107.448C75.6932 104.161 77.3388 101.552 79.1868 101.658C79.6629 101.693 80.1136 101.887 80.4672 102.208C81.2768 103.4 81.7388 105.327 81.62 107.448Z" fill="white"/>
<path d="M152.931 150.669C149.53 148.28 136.369 145.935 136.369 145.935C128.374 145.935 121.356 153.129 120.388 162.681C119.596 170.452 123.028 177.505 128.559 180.721C128.559 180.721 129.021 180.915 129.796 181.218C132.726 182.376 140.162 185.178 144.558 185.794" fill="#263238"/>
<path opacity="0.3" d="M161.866 169.127C162.892 159.048 156.807 150.174 148.275 149.306C139.744 148.438 131.996 155.905 130.971 165.984C129.945 176.062 136.03 184.937 144.561 185.805C153.093 186.673 160.841 179.206 161.866 169.127Z" fill="black"/>
<path d="M93.4641 168.541C94.4896 158.462 88.4048 149.588 79.8732 148.72C71.3416 147.851 63.594 155.318 62.5684 165.397C61.5429 175.476 67.6277 184.35 76.1593 185.218C84.6909 186.086 92.4385 178.62 93.4641 168.541Z" fill="#263238"/>
<path d="M87.5072 152.082L79.64 185.112C78.4922 185.298 77.325 185.332 76.1684 185.214H76.0804C74.5712 184.826 75.2444 185.244 73.7308 184.743C69.8808 183.471 64.2884 181.223 64.2884 181.223C58.3616 178.341 55.0132 171.332 55.8272 163.324C56.8128 153.622 63.7736 146.375 71.9664 146.969C71.9664 146.969 75.856 147.686 79.86 148.729C81.62 149.169 83.38 149.692 84.8276 150.238C85.786 150.752 86.6847 151.37 87.5072 152.082Z" fill="#263238"/>
<path opacity="0.3" d="M93.4648 168.52C92.5848 177.21 86.702 183.955 79.6312 185.095C78.4834 185.281 77.3162 185.315 76.1596 185.196H76.0716C74.4606 185.022 72.8949 184.555 71.4516 183.819C65.5072 180.805 61.7452 173.483 62.568 165.387C63.5932 155.316 71.324 147.858 79.8512 148.711H79.8732C81.6046 148.886 83.2848 149.399 84.8188 150.221C85.7774 150.736 86.6761 151.356 87.4984 152.069C91.7092 155.729 94.16 161.872 93.4648 168.52Z" fill="black"/>
<path d="M91.322 156.948C91.0641 156.537 90.7695 156.149 90.442 155.791C88.4752 153.107 83.9784 152.104 81.0348 152.341C78.7782 152.562 76.6117 153.339 74.7296 154.603C72.5824 155.993 71.0468 158.123 68.9172 159.584C64.878 162.373 58.7488 162.294 54.692 159.421C54.4632 159.258 54.2456 159.08 54.0408 158.888C53.6273 158.458 53.3516 157.914 53.2488 157.326C53.0936 156.593 53.15 155.83 53.4116 155.126C54.2916 152.654 57.2264 150.48 59.0788 149.156C62.8343 146.506 67.2516 144.951 71.8388 144.663C84.92 143.761 90.4992 154.933 91.322 156.948Z" fill="#F73163"/>
<path opacity="0.3" d="M90.4156 157.3C87.604 153.243 83.996 152.104 81.0524 152.341C78.7958 152.562 76.6292 153.339 74.7472 154.603C72.6 155.993 71.0644 158.123 68.9348 159.584C64.8956 162.373 58.7664 162.294 54.7096 159.421C54.4808 159.258 54.2632 159.08 54.0584 158.888C53.6449 158.458 53.3692 157.914 53.2664 157.326C53.1111 156.593 53.1676 155.83 53.4292 155.126C54.7888 156.697 58.7488 160.481 64.1124 158.646C70.8004 156.336 72.4328 149.473 79.5828 149.534C85.2631 149.6 88.7612 154 90.4156 157.3Z" fill="black"/>
<g opacity="0.3">
<path opacity="0.3" d="M60.9928 147.946C62.9007 146.59 65.0473 145.606 67.32 145.046C69.5949 144.467 71.9508 144.274 74.2896 144.474C76.6246 144.699 78.9114 145.281 81.07 146.199L81.8708 146.551L82.654 146.942C83.182 147.189 83.6792 147.497 84.1896 147.778C84.7 148.06 85.1708 148.408 85.6592 148.72C86.1476 149.032 86.6052 149.398 87.0716 149.745C85.1527 148.46 83.1043 147.379 80.96 146.52C78.8199 145.661 76.5648 145.123 74.2676 144.923C71.9751 144.704 69.6624 144.852 67.4168 145.363C66.2894 145.613 65.1843 145.954 64.1124 146.384C63.0246 146.802 61.9798 147.326 60.9928 147.946Z" fill="black"/>
</g>
<g opacity="0.3">
<path opacity="0.3" d="M75.2399 144.8C74.6913 142.965 74.3619 141.071 74.2587 139.159C74.1135 137.254 74.0827 135.34 74.1223 133.439C74.1619 131.538 74.2939 129.62 74.4699 127.719L74.7911 124.877C74.9319 123.931 75.0551 122.985 75.2311 122.043L74.8307 127.763L74.6723 130.614C74.6459 131.565 74.5887 132.515 74.5843 133.465C74.5095 135.366 74.5447 137.267 74.6151 139.185C74.6459 140.136 74.7207 141.082 74.8175 142.028C74.8948 142.96 75.036 143.887 75.2399 144.8Z" fill="black"/>
</g>
<path opacity="0.3" d="M101.068 160.6C91.8808 154.691 91.5156 139.445 91.828 129.386C91.8852 127.657 91.9556 126.086 92.0084 124.736C92.1048 123.384 92.1048 122.026 92.0084 120.674C91.08 113.766 85.8 112.935 85.8 112.935H85.822C91.6696 114.008 93.0688 118.606 92.73 123.768C92.73 123.768 92.73 123.803 92.73 123.873C92.73 123.944 92.73 123.983 92.73 124.062V124.106C92.532 127.428 91.3088 154.088 101.068 160.6Z" fill="black"/>
<path opacity="0.2" d="M100.32 108.531C99.55 109.336 89.5928 107.272 87.8548 108.196C87.12 108.583 86.7988 109.956 86.0596 111.461C83.9828 114.761 81.0612 115.28 80.8808 115.307C84.3656 112.667 85.338 106.313 83.6088 102.296C81.8796 98.2786 75.6888 99.3214 75.3368 99.4402C76.3925 98.976 77.528 98.7205 78.6808 98.6877C82.0292 98.5117 86.1124 99.4534 87.2564 101.574C89.5796 105.899 99.5412 104.927 100.456 106.062C101.372 107.197 101.09 107.725 100.32 108.531Z" fill="black"/>
<path d="M92.5232 104.689C91.9179 105.806 91.6764 107.085 91.8324 108.346L100.267 109.296C100.698 108.797 101.017 108.211 101.202 107.578C101.386 106.944 101.432 106.279 101.336 105.626C101.336 105.626 92.9808 104.786 92.5232 104.689Z" fill="#263238"/>
<path d="M66.9108 104.377C66.9108 104.377 66.0704 102.59 67.078 101.46C64.8252 101.257 63.4304 101.02 61.9784 100.808C61.7628 101.464 61.6572 102.093 62.4184 103.092C63.1796 104.091 66.9108 104.377 66.9108 104.377Z" fill="#263238"/>
<path d="M62.2248 115.557C60.764 117.938 59.5144 121.748 59.4044 127.833" stroke="#F73163" stroke-width="0.44" stroke-linecap="round" stroke-linejoin="round"/>
<path d="M67.034 111.633C65.9712 111.879 64.9942 112.406 64.2048 113.159" stroke="#F73163" stroke-width="0.44" stroke-linecap="round" stroke-linejoin="round"/>
<path d="M132.651 88.6953L127.098 89.3729C127.098 89.3729 126.13 99.5765 125.233 101.561C125.233 101.561 108.156 103.911 101.156 103.704L97.6051 106.115L97.4819 110.313L100.962 110.414L102.084 107.774C102.084 107.774 104.434 107.673 104.975 106.348C104.975 106.348 123.121 110.748 129.804 105.732C129.8 105.715 133.835 99.7965 132.651 88.6953Z" fill="#FFC3BD"/>
<path opacity="0.2" d="M87.4367 167.2C87.2783 172.735 83.6527 177.118 79.3363 176.994C78.7562 176.977 78.1815 176.878 77.6291 176.7C74.1707 175.6 71.6803 171.521 71.8167 166.747C71.9531 162.127 74.5007 158.308 77.8491 157.247C78.5182 157.032 79.219 156.932 79.9215 156.952C84.2379 157.08 87.5995 161.682 87.4367 167.2Z" fill="#FAFAFA"/>
<path d="M83.4635 167.2C83.3271 171.926 80.8235 175.811 77.6291 176.713C74.1707 175.613 71.6803 171.534 71.8167 166.76C71.9531 162.14 74.5007 158.321 77.8491 157.26C81.1755 158.162 83.5999 162.307 83.4635 167.2Z" fill="#263238"/>
<path opacity="0.2" d="M155.232 167.64C155.069 173.175 151.444 177.562 147.132 177.434C146.551 177.419 145.976 177.32 145.424 177.14C141.962 176.04 139.471 171.965 139.612 167.187C139.744 162.571 142.292 158.748 145.64 157.687C146.309 157.472 147.01 157.372 147.712 157.392C152.029 157.52 155.39 162.114 155.232 167.64Z" fill="#FAFAFA"/>
<path d="M151.259 167.64C151.118 172.361 148.619 176.246 145.424 177.148C141.962 176.048 139.471 171.974 139.612 167.196C139.744 162.58 142.292 158.756 145.64 157.696C148.971 158.598 151.4 162.743 151.259 167.64Z" fill="#263238"/>
<path d="M162.034 153.058C162.109 158.501 153.824 162.105 139.96 164.375C136.222 165.032 132.403 165.077 128.652 164.507C122.492 163.491 119.482 160.886 119.482 160.886C119.482 160.886 121.048 142.076 136.55 139.691C147.11 138.072 155.056 142.331 159.086 146.92C160.983 149.076 162.012 151.316 162.034 153.058Z" fill="#F73163"/>
<path opacity="0.3" d="M162.034 153.059C162.109 158.501 153.824 162.105 139.96 164.375C136.222 165.032 132.403 165.077 128.652 164.507C129.316 159.399 132.299 146.001 145.266 144.611C151.149 143.977 155.69 145.165 159.086 146.921C160.983 149.077 162.012 151.316 162.034 153.059Z" fill="black"/>
<g opacity="0.3">
<path opacity="0.3" d="M120.38 160.97C120.665 158.409 121.275 155.896 122.197 153.49C123.103 151.059 124.353 148.771 125.91 146.696C126.697 145.665 127.581 144.711 128.55 143.849C129.511 142.973 130.569 142.211 131.705 141.579C133.965 140.304 136.469 139.523 139.053 139.286C137.787 139.499 136.542 139.819 135.331 140.246C134.719 140.43 134.143 140.716 133.571 140.958C132.997 141.233 132.437 141.537 131.894 141.869C131.34 142.186 130.83 142.569 130.306 142.925C129.782 143.282 129.298 143.704 128.836 144.148C127.897 145.002 127.041 145.944 126.28 146.96C124.734 148.995 123.475 151.232 122.536 153.608C122.048 154.792 121.628 156.003 121.277 157.234C120.904 158.46 120.604 159.708 120.38 160.97Z" fill="black"/>
</g>
<path d="M99.5764 154.757L100.492 157.863L110.088 157.063L110.216 152.72L99.5764 154.757Z" fill="#F73163"/>
<path d="M156.71 133.571L177.826 132.713" stroke="#F73163" stroke-width="0.44" stroke-linecap="round" stroke-linejoin="round"/>
<path d="M184.804 128.867L187.942 128.74" stroke="#F73163" stroke-width="0.44" stroke-linecap="round" stroke-linejoin="round"/>
<path d="M166.83 129.597L182.398 128.964" stroke="#F73163" stroke-width="0.44" stroke-linecap="round" stroke-linejoin="round"/>
<path d="M177.725 140.527L190.771 139.999" stroke="#F73163" stroke-width="0.44" stroke-linecap="round" stroke-linejoin="round"/>
<path d="M169.66 140.857L175.344 140.624" stroke="#F73163" stroke-width="0.44" stroke-linecap="round" stroke-linejoin="round"/>
</g>
<defs>
<clipPath id="clip0">
<rect width="220" height="220" fill="white"/>
</clipPath>
</defs>
</svg>
